<?xml version="1.0" encoding="utf-8"?>
<!-- Generator: Adobe Illustrator 16.0.0, SVG Export Plug-In . SVG Version: 6.00 Build 0)  -->
<!DOCTYPE svg PUBLIC "-//W3C//DTD SVG 1.1//EN" "http://www.w3.org/Graphics/SVG/1.1/DTD/svg11.dtd">
<svg version="1.1" xmlns="http://www.w3.org/2000/svg" xmlns:xlink="http://www.w3.org/1999/xlink" x="0px" y="0px" width="702px"
	 height="417px" viewBox="0 0 702 417" enable-background="new 0 0 702 417" xml:space="preserve">
<g id="Graph">
	<g>
		<g>
			<path fill="#333333" d="M111.704,7.998c-1.059,14.394-0.557,29-0.569,43.428c-0.012,15.138-0.024,30.276-0.037,45.414
				c-0.024,29.646-0.024,59.291-0.021,88.937c0.007,60.124-1.337,120.434,0.727,180.527c0.026,0.771,1.169,0.771,1.195,0
				c2.041-59.436,0.72-119.083,0.726-178.549c0.003-29.646,0.005-59.293-0.019-88.94c-0.012-15.138-0.025-30.277-0.037-45.415
				c-0.012-15.082,0.537-30.356-0.57-45.402C113.033,7.1,111.77,7.1,111.704,7.998L111.704,7.998z"/>
		</g>
	</g>
	<g>
		<g>
			<path fill="#333333" d="M109.321,368.005c66.28,1.153,132.614,0.58,198.902,0.621c66.243,0.041,132.486,0.037,198.729,0.022
				c47.11-0.01,94.276,0.652,141.367-0.884c0.559-0.019,0.559-0.849,0-0.867c-65.613-2.14-131.405-0.886-197.047-0.88
				c-66.229,0.008-132.457,0.014-198.686,0.046c-47.749,0.024-95.524-0.236-143.267,0.594
				C108.452,366.672,108.452,367.99,109.321,368.005L109.321,368.005z"/>
		</g>
	</g>
	<g>
		<g>
			<g>
				<path fill="#644172" d="M311.826,295.794c4.21,0.816,9.309,0.94,13.511,0.045c0.337-0.071,0.337-0.606,0-0.678
					c-4.202-0.896-9.301-0.771-13.511,0.045C311.534,295.263,311.534,295.737,311.826,295.794L311.826,295.794z"/>
			</g>
		</g>
		<g>
			<g>
				<path fill="#644172" d="M333.035,295.771c3,0.721,6.149,0.587,9.222,0.605c3.587,0.021,7.295,0.343,10.826-0.372
					c0.501-0.102,0.501-0.908,0-1.01c-3.049-0.617-6.188-0.398-9.287-0.381c-3.562,0.021-7.281-0.222-10.761,0.614
					C332.766,295.294,332.766,295.706,333.035,295.771L333.035,295.771z"/>
			</g>
		</g>
		<g>
			<g>
				<path fill="#644172" d="M362.448,295.756c2.719,0.568,5.503,0.529,8.271,0.554c3.087,0.027,6.778,0.688,9.687-0.426
					c0.379-0.145,0.379-0.623,0-0.768c-2.557-0.979-5.595-0.462-8.306-0.438c-3.216,0.028-6.491-0.096-9.652,0.565
					C362.193,295.297,362.193,295.703,362.448,295.756L362.448,295.756z"/>
			</g>
		</g>
		<g>
			<g>
				<path fill="#644172" d="M388.079,295.816c4.506,0.633,9.395,0.876,13.898,0.166c0.479-0.076,0.479-0.889,0-0.965
					c-4.504-0.71-9.393-0.467-13.898,0.166C387.764,295.228,387.764,295.772,388.079,295.816L388.079,295.816z"/>
			</g>
		</g>
		<g>
			<g>
				<path fill="#644172" d="M413.749,295.733c3.083,1.037,7.271,0.791,10.417,0.105c0.336-0.073,0.336-0.604,0-0.678
					c-3.146-0.686-7.334-0.932-10.417,0.105C413.519,295.344,413.519,295.656,413.749,295.733L413.749,295.733z"/>
			</g>
		</g>
		<g>
			<g>
				<path fill="#644172" d="M433.192,295.824c3.788,0.912,8.705,0.955,12.486-0.008c0.314-0.08,0.314-0.553,0-0.633
					c-3.781-0.963-8.698-0.92-12.486-0.008C432.87,295.254,432.87,295.746,433.192,295.824L433.192,295.824z"/>
			</g>
		</g>
	</g>
	<g>
		<g>
			<g>
				<path fill="#644172" d="M471.225,56.847c6.52,1.14,13.551,0.556,20.096-0.058c0.372-0.035,0.372-0.543,0-0.578
					c-6.545-0.614-13.576-1.197-20.096-0.058C470.88,56.214,470.88,56.786,471.225,56.847L471.225,56.847z"/>
			</g>
		</g>
		<g>
			<g>
				<path fill="#644172" d="M505.32,56.836c5.815,0.568,12.33,1.102,18.102,0.033c0.367-0.068,0.367-0.67,0-0.738
					c-5.771-1.069-12.286-0.535-18.102,0.033C504.888,56.206,504.888,56.794,505.32,56.836L505.32,56.836z"/>
			</g>
		</g>
		<g>
			<g>
				<path fill="#644172" d="M532.225,56.847c5.594,1.184,11.932,0.688,17.596,0.185c0.684-0.061,0.684-1.002,0-1.063
					c-5.664-0.503-12.002-1-17.596,0.185C531.881,56.227,531.881,56.773,532.225,56.847L532.225,56.847z"/>
			</g>
		</g>
		<g>
			<g>
				<path fill="#644172" d="M125.495,56.883c5.8,0.027,11.719,0.485,17.5,0.211c0.765-0.036,0.765-1.151,0-1.188
					c-5.781-0.274-11.7,0.184-17.5,0.211C125.001,56.12,125.001,56.88,125.495,56.883L125.495,56.883z"/>
			</g>
		</g>
		<g>
			<g>
				<path fill="#644172" d="M153.457,56.658c2.886,0.72,5.864,0.559,8.822,0.583c3.365,0.028,7.058,0.504,10.321-0.379
					c0.358-0.097,0.358-0.626,0-0.724c-2.847-0.77-5.943-0.403-8.878-0.391c-3.408,0.014-6.938-0.235-10.265,0.595
					C153.299,56.381,153.299,56.619,153.457,56.658L153.457,56.658z"/>
			</g>
		</g>
		<g>
			<g>
				<path fill="#644172" d="M187.413,56.816c5.166,1.578,11.812,0.694,17.087,0.027c0.442-0.056,0.442-0.632,0-0.688
					c-5.275-0.667-11.921-1.55-17.087,0.027C187.1,56.279,187.1,56.721,187.413,56.816L187.413,56.816z"/>
			</g>
		</g>
		<g>
			<g>
				<path fill="#644172" d="M216.093,56.161c-0.31-0.088-0.623-0.16-0.94-0.217c-0.823-0.167-0.99,1.073-0.153,1.132
					c3.76,0.263,7.54,0.258,11.308,0.282c3.249,0.021,6.66,0.441,9.811-0.429c0.426-0.117,0.426-0.741,0-0.858
					c-3.15-0.87-6.562-0.45-9.811-0.429c-3.768,0.024-7.547,0.02-11.308,0.282c-0.837,0.059-0.67,1.299,0.153,1.132
					c0.317-0.057,0.63-0.129,0.94-0.217C216.43,56.753,216.43,56.247,216.093,56.161L216.093,56.161z"/>
			</g>
		</g>
		<g>
			<g>
				<path fill="#644172" d="M249.5,56.945c4.214,0.522,9.464,0.995,13.612-0.039c0.403-0.101,0.403-0.713,0-0.813
					c-4.148-1.033-9.398-0.561-13.612-0.039C248.927,56.125,248.927,56.875,249.5,56.945L249.5,56.945z"/>
			</g>
		</g>
		<g>
			<g>
				<path fill="#644172" d="M278.444,56.704c2.592,0.948,5.637,0.655,8.369,0.691c2.946,0.039,5.932,0.223,8.829-0.382
					c0.509-0.106,0.509-0.918,0-1.024c-2.903-0.606-5.877-0.401-8.829-0.382c-2.724,0.017-5.785-0.254-8.369,0.691
					C278.244,56.37,278.244,56.63,278.444,56.704L278.444,56.704z"/>
			</g>
		</g>
		<g>
			<g>
				<path fill="#644172" d="M311,56.109c-0.163-0.037-0.315-0.013-0.456,0.073c-0.632-1.083-1.927,0.817-0.544,0.948
					c3.224,0.305,6.457,0.305,9.692,0.361c2.767,0.048,6.003,0.665,8.493-0.674c0.239-0.128,0.239-0.505,0-0.634
					c-2.19-1.178-4.664-0.695-7.108-0.686c-3.69,0.013-7.402,0.025-11.077,0.373c-1.383,0.131-0.088,2.031,0.544,0.948
					c0.141,0.085,0.293,0.11,0.456,0.073C311.504,56.88,311.504,56.12,311,56.109L311,56.109z"/>
			</g>
		</g>
		<g>
			<g>
				<path fill="#644172" d="M342.017,56.44c-0.271-0.042-0.529-0.442-0.846-0.559c-0.793-0.29-1.151,1.123-0.341,1.237
					c5.054,0.717,11.316,1.07,16.308-0.122c0.493-0.118,0.493-0.876,0-0.994c-4.992-1.192-11.253-0.839-16.308-0.122
					c-0.81,0.115-0.452,1.527,0.341,1.237c0.317-0.116,0.575-0.517,0.846-0.559C342.077,56.551,342.077,56.449,342.017,56.44
					L342.017,56.44z"/>
			</g>
		</g>
		<g>
			<g>
				<path fill="#644172" d="M369,56.938c3.496,0.269,6.995,0.347,10.5,0.402c2.982,0.047,6.281,0.593,9.104-0.463
					c0.371-0.139,0.371-0.614,0-0.753c-2.822-1.056-6.121-0.51-9.104-0.463c-3.505,0.055-7.004,0.133-10.5,0.402
					C368.437,56.106,368.437,56.894,369,56.938L369,56.938z"/>
			</g>
		</g>
		<g>
			<g>
				<path fill="#644172" d="M402.5,56.898c7.096,0.927,14.4,0.586,21.5-0.016c0.493-0.042,0.493-0.724,0-0.766
					c-7.1-0.602-14.404-0.943-21.5-0.016C401.988,56.168,401.988,56.832,402.5,56.898L402.5,56.898z"/>
			</g>
		</g>
		<g>
			<g>
				<path fill="#644172" d="M437.417,56.801c3.477,0.476,6.963,0.478,10.468,0.527c4.061,0.058,8.245,0.442,12.244-0.361
					c0.464-0.093,0.464-0.841,0-0.935c-3.457-0.695-7.002-0.436-10.514-0.386c-4.075,0.058-8.154-0.001-12.198,0.552
					C437.117,56.24,437.117,56.76,437.417,56.801L437.417,56.801z"/>
			</g>
		</g>
	</g>
	<g>
		<g>
			<path fill="#644172" d="M409.127,154.161c1.246,0.512,2.634,0.483,3.962,0.538c1.058,0.044,2.361,0.232,3.156-0.606
				c0.146-0.154,0.146-0.387,0-0.541c-0.795-0.839-2.099-0.65-3.156-0.606c-1.328,0.055-2.716,0.026-3.962,0.538
				C408.795,153.62,408.795,154.024,409.127,154.161L409.127,154.161z"/>
		</g>
	</g>
	<g>
		<g>
			<path fill="#644172" d="M422.606,154.031c1.426,0.684,3.034,0.6,4.585,0.644c1.565,0.044,3.235,0.247,4.652-0.528
				c0.244-0.134,0.244-0.515,0-0.648c-1.417-0.775-3.087-0.572-4.652-0.528c-1.551,0.044-3.159-0.04-4.585,0.644
				C422.448,153.689,422.448,153.955,422.606,154.031L422.606,154.031z"/>
		</g>
	</g>
	<g>
		<g>
			<path fill="#644172" d="M435.642,154.229c1.822,0.575,3.766,0.536,5.661,0.589c1.97,0.055,3.973,0.295,5.787-0.585
				c0.312-0.15,0.312-0.672,0-0.822c-1.604-0.778-3.235-0.628-4.986-0.606c-2.136,0.025-4.408-0.038-6.462,0.61
				C435.239,153.543,435.239,154.102,435.642,154.229L435.642,154.229z"/>
		</g>
	</g>
	<g>
		<g>
			<path fill="#644172" d="M559.894,56.876c2.453,0.553,4.992,0.485,7.498,0.556c2.838,0.08,6.034,0.512,8.736-0.458
				c0.468-0.168,0.468-0.781,0-0.949c-2.395-0.859-5.012-0.502-7.525-0.472c-2.888,0.034-5.882-0.067-8.709,0.57
				C559.52,56.208,559.52,56.792,559.894,56.876L559.894,56.876z"/>
		</g>
	</g>
	<g>
		<g>
			<path fill="#644172" d="M587.441,56.704c3.116,1.001,6.624,0.716,9.868,0.738c3.453,0.024,6.923,0.262,10.316-0.475
				c0.464-0.101,0.464-0.833,0-0.935c-3.394-0.736-6.863-0.499-10.316-0.475c-3.244,0.022-6.752-0.263-9.868,0.738
				C587.24,56.361,587.24,56.639,587.441,56.704L587.441,56.704z"/>
		</g>
	</g>
	<g>
		<g>
			<path fill="#644172" d="M620.885,56.907c5.011,1.148,11.226,1.086,16.256,0.113c0.517-0.1,0.517-0.94,0-1.04
				c-5.03-0.973-11.245-1.035-16.256,0.113C620.481,56.186,620.481,56.814,620.885,56.907L620.885,56.907z"/>
		</g>
	</g>
</g>
<g id="TS">
	<path fill="none" stroke="#1C758A" stroke-width="3" stroke-miterlimit="10" d="M620.997,155.767H474.495
		c0,0-22.538,2.265-23.771-12.751c0,0-31.86-169.009-87.439-30.516c-45.549,113.5-41.717,183.132-75.602,183H142.994"/>
	<g>
		<g>
			<g>
				<path fill="#CF5044" d="M355.366,182.675c-0.199-0.106-0.397-0.212-0.596-0.317c-0.661-0.786-1.635,0.815-0.602,1.034
					c3.844,0.814,9.276-0.507,12.602-2.514c0.867-0.523,0.281-1.784-0.668-1.585c-1.869,0.393-3.676,1.258-5.522,1.781
					c-2.053,0.582-4.125,0.907-6.247,1.102c0.146,0.353,0.292,0.705,0.438,1.057c0.199-0.105,0.397-0.211,0.596-0.317
					C355.486,182.889,355.486,182.701,355.366,182.675L355.366,182.675z"/>
			</g>
		</g>
		<g>
			<g>
				<path fill="#CF5044" d="M354.776,183.905c0.074-0.057,0.148-0.112,0.223-0.169c-0.195-0.257-0.39-0.513-0.585-0.769
					c-0.693,1.927-0.582,4.105-0.786,6.134c-0.25,2.479-0.642,4.925-1.2,7.352c-0.202,0.878,0.608,1.939,1.58,1.58
					c2.946-1.089,6.499,1.169,9.37-0.368c1.299-0.694,0.381-2.986-1.017-2.413c-2.782,1.142-6.155-0.831-9.035,0.305
					c0.526,0.526,1.053,1.053,1.58,1.58c0.873-4.205,2.123-10.028,0.68-14.169c-0.208-0.597-0.949-0.556-1.171,0
					c-0.17,0.426-0.105,0.498,0.118,0.906C354.576,183.956,354.713,183.983,354.776,183.905L354.776,183.905z"/>
			</g>
		</g>
		<g>
			<g>
				<path fill="#CF5044" d="M355.394,190.261c0.664,0.424,1.525,0.458,2.293,0.552c1.083,0.132,2.148,0.294,3.232,0.13
					c1.141-0.174,1.141-2.121,0-2.295c-0.972-0.147-1.915-0.031-2.886,0.088c-0.865,0.105-1.889,0.114-2.639,0.594
					C355.046,189.552,355.046,190.038,355.394,190.261L355.394,190.261z"/>
			</g>
		</g>
		<g>
			<g>
				<path fill="#CF5044" d="M371.267,194.702c0.211,0.045,0.409,0.122,0.618,0.176c0.299,0.077,0.51-0.141,0.547-0.417
					c0.017-0.017,0.035-0.032,0.052-0.049c0.146-0.317,0.042-0.73-0.335-0.824c-1.664-0.412-2.897-0.324-4.158,0.933
					c-0.899,0.897-1.119,2.281-0.597,3.424c0.452,0.986,1.394,1.709,2.501,1.702c1.44-0.009,2.22-1.433,2.585-2.627
					c-0.553-0.075-1.106-0.149-1.66-0.225c-0.154,1.283,0.665,2.414,1.64,3.148c0.908,0.685,2.571,0.584,2.78-0.746
					c0.079-0.508-0.47-1.195-1.012-0.777c-0.383,0.295-0.512,0.43-0.938,0.099c-0.408-0.316-0.884-0.946-0.81-1.499
					c0.142-1.051-1.286-1.517-1.63-0.449c-0.166,0.515-0.44,1.355-1.101,1.362c-0.468,0.004-0.793-0.595-0.902-0.964
					c-0.188-0.634,0.197-1.211,0.632-1.627c0.77-0.734,1.713-0.51,2.668-0.672c-0.211-0.086-0.423-0.172-0.634-0.258
					c0.018,0.017,0.035,0.032,0.052,0.049c0.106-0.139,0.212-0.278,0.318-0.417c-0.209,0.054-0.406,0.131-0.618,0.176
					C371.027,194.271,371.027,194.65,371.267,194.702L371.267,194.702z"/>
			</g>
		</g>
		<g>
			<g>
				<path fill="#CF5044" d="M377.583,194.763c0.048,0.014,0.138,0.224,0.201,0.287c0.196,0.196,0.451,0.298,0.717,0.342
					c0.363,0.062,0.821-0.161,0.784-0.597c-0.108-1.275-0.911-2.474-2.32-1.818c-1.329,0.618-2.046,2.042-2.034,3.46
					c0.012,1.396,0.921,2.831,2.261,3.296c1.323,0.459,3.031-0.229,2.995-1.771c-0.012-0.492-0.503-0.723-0.92-0.528
					c-0.453,0.213-0.934,0.703-1.461,0.567c-0.573-0.147-0.894-0.776-1.038-1.295c-0.21-0.753,0.029-1.42,0.506-2.002
					c0.159-0.193,0.347-0.394,0.594-0.462c-0.121,0.034,0.15,0.521,0.201,0.718c0.198-0.262,0.397-0.522,0.597-0.784
					c-0.338,0.013-0.667-0.037-1-0.027C377.313,194.159,377.241,194.661,377.583,194.763L377.583,194.763z"/>
			</g>
		</g>
		<g>
			<g>
				<path fill="#CF5044" d="M380.555,188.673c-0.464,1.781-0.193,3.859,0.07,5.654c0.24,1.635,0.464,4.225,1.786,5.39
					c0.737,0.648,1.686-0.154,1.306-1.007c-0.121-0.271-0.184-0.399-0.358-0.608c-0.168-0.199-0.551-0.199-0.719,0
					c-0.175,0.209-0.237,0.338-0.358,0.608c0.517,0.14,1.032,0.279,1.549,0.419c-0.187-1.563-0.972-3.144-1.334-4.703
					c-0.438-1.892-0.521-3.892-1.053-5.753C381.319,188.239,380.671,188.225,380.555,188.673L380.555,188.673z"/>
			</g>
		</g>
		<g>
			<g>
				<path fill="#CF5044" d="M378.719,193.273c0.753,0.371,1.569,0.406,2.397,0.428c0.99,0.025,2.202,0.042,3.149-0.255
					c0.925-0.29,1.018-1.719,0-1.962c-0.895-0.214-1.801-0.021-2.699,0.103c-0.963,0.132-1.979,0.272-2.848,0.729
					C378.364,192.502,378.35,193.092,378.719,193.273L378.719,193.273z"/>
			</g>
		</g>
	</g>
	<g>
		<g>
			<g>
				<path fill="#699C52" d="M423.701,167.374c-1.229,18.837-0.441,37.795-0.142,56.666c0.311,19.555,0.441,39.113,0.782,58.667
					c0.925,0,1.851,0,2.775,0c-0.469-5.354-4-9.298-6.252-13.997c-0.738-1.538-2.963-0.195-2.271,1.328
					c2.047,4.504,4.368,8.753,5.195,13.687c0.202,1.205,1.854,1.189,2.414,0.316c3.54-5.534,4.798-10.811,4.868-17.334
					c-0.895,0-1.789,0-2.684,0c0.555,1.918-0.229,3.484-2.351,4.697c0.509,0.207,1.018,0.414,1.525,0.621
					c-0.485-0.907-0.853-1.857-1.103-2.853c-0.215-0.704-1.265-0.743-1.461,0c-0.437,1.648-0.474,2.683,0.231,4.216
					c0.229,0.499,1.011,0.828,1.525,0.621c3.269-1.317,4.779-3.722,4.315-7.303c-0.215-1.663-2.669-1.783-2.684,0
					c-0.051,6.035-1.204,10.875-4.466,16c0.805,0.105,1.609,0.211,2.414,0.316c-0.883-5.186-3.367-9.559-5.471-14.313
					c-0.757,0.442-1.515,0.886-2.271,1.328c1.941,4.151,5.382,7.956,5.748,12.669c0.137,1.765,2.746,1.81,2.775,0
					c0.319-19.547-0.198-39.123-0.551-58.667c-0.34-18.883-0.223-37.826-1.475-56.666
					C425.032,166.479,423.76,166.478,423.701,167.374L423.701,167.374z"/>
			</g>
		</g>
		<g>
			<g>
				<path fill="#699C52" d="M422.698,168.79c0.13-0.58-0.07-0.858-0.461-1.257c-0.406-0.415-1.017-0.171-1.201,0.316
					c-1.529,4.041-4.733,6.81-7.483,10.014c-0.894,1.042,0.21,2.477,1.446,1.874c4.802-2.342,5.85-7.527,8.515-11.71
					c-0.678,0.087-1.354,0.174-2.032,0.262c3.489,3.811,5.049,8.948,8.571,12.762c0.98,1.062,2.773-0.041,2.387-1.39
					c-1.151-4.019-4.87-5.107-8.71-5.042c-1.845,0.031-1.82,2.74,0,2.844c2.435,0.139,5.135,0.179,5.956,2.958
					c0.796-0.464,1.591-0.927,2.387-1.39c-3.523-3.753-5.205-8.818-8.761-12.572c-0.586-0.618-1.606-0.433-2.032,0.262
					c-2.33,3.797-3.215,8.786-7.485,10.956c0.482,0.625,0.964,1.249,1.446,1.874c2.775-3.479,6.77-6.81,7.208-11.51
					c-0.239,0.239-0.479,0.479-0.719,0.719c0.133,0.035,0.265,0.07,0.397,0.105C422.254,169.096,422.639,169.055,422.698,168.79
					L422.698,168.79z"/>
			</g>
		</g>
	</g>
	<g>
		<g>
			<g>
				<path fill="#699C52" d="M446.205,224.279c0.033-0.054,0.066-0.107,0.099-0.161c-0.048-0.378-0.097-0.757-0.146-1.135
					c-3.318,3.511-6.98,6.889-8.646,11.524c-0.415,1.156,1.202,1.997,2.006,1.168c3.97-4.096,6.948-8.916,10.229-13.552
					c-0.718,0-1.437,0-2.154,0c3.477,5.017,6.413,10.38,9.904,15.389c0.511-0.665,1.022-1.33,1.534-1.996
					c-3.428-0.887-6.992-1.115-10.517-1.285c-1.922-0.093-5.615-0.913-7.141,0.633c-0.343,0.348-0.342,0.912,0,1.26
					c1.367,1.389,4.345,0.783,6.099,0.831c3.623,0.098,7.313,0.286,10.836,1.183c1.075,0.273,2.254-0.973,1.534-1.996
					c-3.511-4.996-6.57-10.289-10.096-15.277c-0.563-0.796-1.593-0.802-2.154,0c-3.136,4.482-5.983,9.134-9.771,13.114
					c0.669,0.39,1.337,0.778,2.006,1.168c1.464-4.476,5.354-7.211,7.467-11.287c0.392-0.756-0.51-1.396-1.135-0.876
					c-0.569,0.473-0.504,0.507-0.381,1.24C445.81,224.421,446.121,224.455,446.205,224.279L446.205,224.279z"/>
			</g>
		</g>
		<g>
			<g>
				<path fill="#699C52" d="M463.624,222.446c-1.843,2.199-1.482,5.912-1.402,8.603c0.037,1.246,0.034,6.663,2.451,5.937
					c0.566-0.17,0.848-0.811,0.462-1.288c0.042,0.655,0.104,0.825,0.188,0.511c0.091-0.273,0.014-0.551-0.057-0.815
					c-0.188-0.705-0.378-1.385-0.501-2.107c-0.312-1.836-0.393-3.741-0.436-5.6c-0.031-1.39-0.247-3.377,0.195-4.715
					C464.689,222.473,463.972,222.03,463.624,222.446L463.624,222.446z"/>
			</g>
		</g>
		<g>
			<g>
				<path fill="#699C52" d="M462.297,230.908c0.015-0.025,0.029-0.051,0.045-0.077c-0.143,0.038-0.286,0.075-0.429,0.112
					c0.479,0.348,1.49,0.063,2.056-0.009c1.223-0.153,2.433-0.27,3.629-0.577c0.63-0.162,0.92-0.702,0.989-1.3
					c0.003-0.025,0.006-0.051,0.009-0.076c-0.105,0.256-0.212,0.513-0.318,0.769c0.058-0.053,0.115-0.106,0.173-0.159
					c0.499-0.46,0.297-1.509-0.429-1.623c0.058,0.046,0.114,0.092,0.171,0.138c-0.286-0.359-0.892-0.469-1.311-0.347
					c-1.7,0.497-3.35,1.104-4.829,2.082c-0.26,0.172-0.412,0.476-0.32,0.787c-0.02-0.066-0.014,0.063-0.023,0.118
					C461.643,231.127,462.189,231.293,462.297,230.908L462.297,230.908z"/>
			</g>
		</g>
		<g>
			<g>
				<path fill="#699C52" d="M469.071,220.562c-2.077,2.468-1.589,5.938-1.168,9.009c0.243,1.769,0.632,8.225,3.61,7.636
					c0.468-0.092,0.843-0.611,0.821-1.079c-0.092-2.061-1.48-4.505-1.937-6.586c-0.376-1.713-0.617-3.455-0.777-5.201
					c-0.065-0.713-0.429-2.71,0.04-3.323C469.919,220.678,469.345,220.238,469.071,220.562L469.071,220.562z"/>
			</g>
		</g>
	</g>
	<g>
		<g>
			<path fill="#CF5044" d="M399.087,79.174c-1.774,6.896-0.86,14.855-0.885,21.938c-0.029,8.582-0.065,17.164-0.068,25.746
				c-0.005,16.522-0.022,33.044-0.012,49.566c0.02,33.181-0.317,66.421,1.107,99.576c0.024,0.563,0.851,0.563,0.875,0
				c1.425-33.16,1.036-66.392,1.107-99.576c0.036-16.521-0.007-33.044-0.012-49.566c-0.003-7.922-0.035-15.844-0.062-23.766
				c-0.026-7.69,1.034-16.433-0.892-23.918C400.1,78.599,399.234,78.599,399.087,79.174L399.087,79.174z"/>
		</g>
	</g>
	<g>
		<g>
			<path fill="#CF5044" d="M396.406,82.667c-0.751,6.397-4.22,11.547-7.936,16.634c0.798,0.466,1.595,0.933,2.393,1.398
				c3.844-6.063,7.768-12.189,10.204-18.979c-0.934,0-1.867,0-2.801,0c2.307,6.315,8.711,10.236,10.486,16.716
				c0.803-0.617,1.605-1.234,2.408-1.852c-2.789-1.926-5.803-3.24-9.072-4.114c-1.979-0.529-2.812,2.509-0.844,3.059
				c3.011,0.841,5.711,2.083,8.262,3.886c1.21,0.855,2.778-0.549,2.408-1.852c-1.888-6.634-8.31-10.36-10.848-16.617
				c-0.538-1.327-2.298-1.43-2.801,0c-2.313,6.565-6.161,12.463-9.796,18.354c-0.951,1.54,1.39,2.848,2.393,1.398
				c3.561-5.141,8.221-11.563,6.709-18.19C397.412,81.803,396.479,82.048,396.406,82.667L396.406,82.667z"/>
		</g>
	</g>
</g>
<g id="Text">
	<g>
		<g>
			<path fill="#333333" d="M217.016,392.928c0.107,5.956-0.495,12.356,1.463,18.078c0.646,1.888,3.669,1.055,2.99-0.824
				c-0.286-0.793-0.443-1.176-0.942-1.807c-0.244-0.309-0.863-0.309-1.106,0c-0.499,0.631-0.656,1.014-0.942,1.807
				c0.997,0,1.994,0,2.99,0c-1.889-5.678-1.514-11.729-3.225-17.421C218.044,392.094,217.002,392.207,217.016,392.928
				L217.016,392.928z"/>
		</g>
	</g>
	<g>
		<g>
			<path fill="#333333" d="M213.23,393.261c-0.083-3.737,6.82-3.632,9.238-3.505c3.671,0.191,7.355,3.075,3.159,5.957
				c-1.106,0.76-2.36,1.164-3.653,1.466c-0.576,0.134-1.092-0.118-1.557,0.313c-0.637,0.594-0.162,1.621,0.466,1.989
				c0.99,0.58,2.289,0.331,3.31,0.009c2.598-0.82,5.104-2.645,6.063-5.254c1.045-2.844-1.668-5.663-4.148-6.49
				c-4.117-1.373-14.671-0.766-14.057,5.515C212.124,394.002,213.248,394.033,213.23,393.261L213.23,393.261z"/>
		</g>
	</g>
	<g>
		<g>
			<path fill="#333333" d="M234.809,390.457c-0.636,3.122,1.664,5.527,2.042,8.471c0.905-0.246,1.81-0.49,2.715-0.736
				c-1.094-1.568-1.599-3.483-1.134-5.367c0.571-2.314,2.326-0.824,3.876-0.979c0.9-0.09,1.616-1.007,1.081-1.883
				c-1.725-2.822-6.078-1.63-7.419,0.873c-1.457,2.719-0.649,6.439,1.081,8.826c1.108,1.529,3.292,0.246,2.517-1.471
				c-1.195-2.643-2.935-4.929-3.759-7.734C235.669,389.99,234.915,389.936,234.809,390.457L234.809,390.457z"/>
		</g>
	</g>
	<g>
		<g>
			<path fill="#333333" d="M250.806,391.636c-0.735-1.651-2.551-1.035-3.547,0.003c-1.278,1.332-1.83,3.69-1.6,5.473
				c0.458,3.555,4.549,4.932,7.452,3.303c2.3-1.293,3.976-4.184,4.002-6.811c0.034-3.324-3.637-4.518-6.128-2.741
				c-0.867,0.618-0.633,2.124,0.571,2.107c0.505-0.007,1.005-0.041,1.51-0.064c0.231-0.011,0.461,0.015,0.691,0.028
				c-0.313-0.02,0.435,0.161,0.073,0.004c0.064,0.028,0.369,0.253,0.105,0.035c0.295,0.244,0.02-0.028,0.127,0.156
				c0.052,0.087,0.063,0.209,0.067,0.475c0.007,0.509-0.228,1.259-0.498,1.805c-0.393,0.797-0.806,1.319-1.431,1.906
				c-0.25,0.233-0.407,0.334-0.775,0.541c-0.271,0.152-0.189,0.098-0.372,0.158c-0.064,0.021-0.618,0.118-0.365,0.094
				c-0.656,0.064-1.173-0.162-1.808-0.765c-0.827-0.782-0.124-5.298,1.273-4.858C250.685,392.65,250.997,392.063,250.806,391.636
				L250.806,391.636z"/>
		</g>
	</g>
	<g>
		<g>
			<path fill="#333333" d="M265.38,391.148c-0.028-0.139-0.056-0.279-0.083-0.418c-0.05-0.253-0.299-0.491-0.546-0.547
				c-4.918-1.102-7.567,9.299-2.236,9.995c5.14,0.672,8.482-9.285,2.982-8.171c-4.818,0.975,3.62,7.367,5.151,8.135
				c2.259,1.133,10.916,5.936,4.862,7.574c-3.298,0.894-6.039-0.492-8.188-2.803c-0.471-0.506-1.47-0.283-1.609,0.424
				c-1.241,6.33,13.906,7.563,14.696,1.076c0.63-5.175-6.267-6.86-9.371-9.254c-1.471-1.135-3.004-2.199-4.283-3.557
				c0.246,0.261-2.722,3.607-3.086,3.848c-2.04,1.348-1.163-3.135-1.15-3.189c0.245-1.068,1.266-2.475,2.455-2.58
				C265.259,391.656,265.437,391.434,265.38,391.148L265.38,391.148z"/>
		</g>
	</g>
	<g>
		<g>
			<path fill="#333333" d="M278.368,391.793c-1.025,0.732,0.065,2.363,0.478,3.168c0.881,1.715,2.128,3.244,2.942,4.993
				c0.719-0.555,1.439-1.11,2.158-1.665c-1.375-1.609-2.566-3.893-1.352-5.924c0.221-0.37,0.635-0.738,1.035-0.904
				c0.471-0.195,0.686,0.303,1.121,0.422c0.688,0.189,1.181-0.061,1.551-0.631c0.246-0.377,0.27-1.013,0-1.387
				c-1.941-2.693-5.085-0.844-6.423,1.449c-1.67,2.862-0.049,6.821,2.125,8.918c1.112,1.072,2.983-0.308,2.158-1.665
				c-0.8-1.317-1.872-2.489-2.837-3.685c-0.515-0.637-1.035-1.276-1.529-1.93c-0.177-0.234-0.322-0.488-0.491-0.727
				c-0.068-0.096-0.404-0.621-0.195-0.239C278.976,391.746,278.604,391.625,278.368,391.793L278.368,391.793z"/>
		</g>
	</g>
	<g>
		<g>
			<path fill="#333333" d="M290.832,393.463c-0.266,1.236,1.22,1.408,2.068,1.071c1.379-0.548,2.398-1.729,2.009-3.28
				c-0.324-1.293-1.832-1.967-3.053-1.832c-1.515,0.169-2.778,1.432-3.294,2.82c-0.886,2.385,0.285,5.182,2.217,6.69
				c0.996,0.778,2.196,1.266,3.478,1.171c1.38-0.102,3.274-1.027,3.51-2.533c0.125-0.797-0.508-1.762-1.436-1.436
				c-1.072,0.379-1.682,1.515-2.94,1.229c-1.117-0.255-1.905-1.278-2.378-2.253c-0.445-0.917-0.381-2.063,0.296-2.837
				c0.324-0.369,0.934-0.829,1.414-0.427c0.471,0.396-1.208,1.071-0.988,1.499C291.542,392.973,290.92,393.052,290.832,393.463
				L290.832,393.463z"/>
		</g>
	</g>
	<g>
		<g>
			<path fill="#333333" d="M302.508,390.113c-1.009-2.497-4.893-1.021-5.072,1.279c-0.169,2.156,3.46,3.135,4.974,3.541
				c1.119,0.301,2.252,0.491,3.279,1.057c0.242,0.135,0.455,0.291,0.592,0.529c-0.065-0.113,0-0.053-0.094,0.113
				c-0.526,0.929-2.229,1.429-3.286,1.45c-0.438,0.009-0.823-0.134-0.907-0.253c-0.353-0.503-0.467-1.251-1.249-1.1
				c-0.741,0.145-0.927,1.371-0.787,1.957c0.17,0.714,0.73,1.336,1.399,1.625c2.444,1.059,7.421-0.84,7.344-3.912
				c-0.057-2.264-2.922-3.117-4.682-3.533c-1.133-0.268-2.26-0.502-3.327-0.988c-0.245-0.111-0.475-0.248-0.703-0.39
				c-0.442-0.272-0.097-0.283-0.311-0.007c0.599-0.773,1.409-0.76,2.295-0.668C302.309,390.849,302.636,390.43,302.508,390.113
				L302.508,390.113z"/>
		</g>
	</g>
	<g>
		<g>
			<path fill="#333333" d="M313.927,389.772c-0.872-0.604-2.271-1.192-3.351-0.9c-0.973,0.263-2.093,1.051-2.012,2.181
				c0.148,2.084,3.388,2.594,4.96,2.984c0.977,0.242,2.371,0.782,2.957,1.668c0.235,0.354,0.001,0.635-0.464,0.945
				c-1.546,1.033-3.483,0.563-4.67-0.75c-0.248-0.273-0.736-0.417-1.089-0.288c-0.195,0.071-0.339,0.147-0.494,0.288
				c-0.382,0.348-0.401,0.924-0.175,1.355c1.826,3.498,9.234,3.292,9.439-1.277c0.109-2.428-3.129-3.825-5.028-4.264
				c-0.983-0.227-2.013-0.43-2.922-0.881c-0.129-0.064-0.253-0.141-0.355-0.236c0.454,0.426-0.203,0.688,0.442,0.224
				c0.496-0.356,1.783-0.14,2.327-0.015C314.134,390.953,314.451,390.135,313.927,389.772L313.927,389.772z"/>
		</g>
	</g>
	<g>
		<g>
			<path fill="#333333" d="M351.235,392.814c-3.132-1.699-6.607,0.701-7.113,4.027c-0.602,3.957,3.123,5.437,6.407,4.972
				c2.895-0.409,6.084-3.132,4.916-6.302c-0.52-1.408-1.866-2.109-3.223-2.516c-1.053-0.315-3.464-0.979-4.418-0.264
				c-0.344,0.258-0.619,0.674-0.459,1.127c0.513,1.457,2.528,1.406,3.805,1.717c0.589,0.143,1.509,0.313,1.752,0.963
				c0.341,0.912-0.699,1.677-1.35,2.066c-1.291,0.773-3.428,1.023-4.579-0.104c-0.802-0.786-0.1-2.313,0.329-3.07
				c0.667-1.182,2.218-1.954,3.535-1.671C351.392,393.879,351.771,393.104,351.235,392.814L351.235,392.814z"/>
		</g>
	</g>
	<g>
		<g>
			<path fill="#333333" d="M362.533,389.799c5.936-2.398-0.985-10.936-5.818-7.887c-5.319,3.355,2.439,15.834,4.742,18.898
				c1.474,1.961,3.658-1.173,1.474-1.918c-0.131-0.045-0.262-0.089-0.393-0.134c-0.465-0.158-0.923,0.179-1.066,0.604
				c-0.049,0.147-0.098,0.295-0.147,0.441c0.795-0.104,1.59-0.208,2.385-0.313c-1.672-2.694-3.318-5.371-4.653-8.259
				c-0.883-1.909-1.803-4.263-1.501-6.399c0.472-3.346,7.565,0.96,4.263,3.272C361.018,388.667,361.497,390.219,362.533,389.799
				L362.533,389.799z"/>
		</g>
	</g>
	<g>
		<g>
			<path fill="#333333" d="M357.753,395.061c2.024,0.329,4.721-0.758,5.905-2.416c0.574-0.802-0.366-1.796-1.211-1.575
				c-0.867,0.226-1.555,0.678-2.33,1.112c-0.837,0.47-1.768,0.822-2.562,1.362C357.026,393.903,356.98,394.936,357.753,395.061
				L357.753,395.061z"/>
		</g>
	</g>
	<g>
		<g>
			<path fill="#333333" d="M379.704,391.094c0.71,2.562,1.775,5.149,1.85,7.834c0.883-0.24,1.766-0.479,2.647-0.718
				c-0.756-1.394-1.052-3.091-1.104-4.659c-0.022-0.705-0.087-2.089,0.835-2.125c0.934-0.038,1.847,0.844,2.735,1.065
				c1.24,0.31,2.511-1.411,1.352-2.321c-2.286-1.795-6.339-2.775-7.529,0.748c-0.921,2.724-0.15,6.281,1.258,8.727
				c0.805,1.398,3.038,0.461,2.597-1.096c-0.799-2.819-2.197-5.328-3.497-7.938C380.526,389.965,379.519,390.422,379.704,391.094
				L379.704,391.094z"/>
		</g>
	</g>
	<g>
		<g>
			<path fill="#333333" d="M391.471,395.209c2.307,0.677,4.566-1.016,4.235-3.474c-0.324-2.41-2.873-2.822-4.445-1.271
				c-2.113,2.086-2.841,5.633-0.503,7.801c1.065,0.988,2.532,1.395,3.956,1.403c1.371,0.009,3.552-0.51,4.154-1.886
				c0.284-0.65-0.028-1.621-0.894-1.557c-0.903,0.065-1.626,0.598-2.496,0.816c-0.745,0.186-1.51,0.066-2.227-0.168
				c-1.74-0.568-1.714-2.346-0.974-3.703c0.242-0.445,0.648-1.208,1.186-1.348c-0.314,0.082-0.184-0.066-0.09,0.252
				c0.318,1.072-1.077,1.612-1.903,1.903C390.888,394.185,390.84,395.023,391.471,395.209L391.471,395.209z"/>
		</g>
	</g>
	<g>
		<g>
			<path fill="#333333" d="M406.171,390.951c-1.327-2.408-4.415-1.386-5.716,0.617c-1.248,1.922-1.688,4.346-0.426,6.381
				c0.946,1.525,2.882,2.363,4.614,1.794c2.287-0.751,2.861-3.36,2.801-5.482c-0.979,0-1.96,0-2.939,0
				c0.107,1.721,0.745,3.437,2.193,4.478c1.322,0.951,3.05,1.017,4.111-0.309c0.316-0.396,0.251-1.045-0.313-1.188
				c-1.649-0.412-2.956-1.081-3.052-2.981c-0.094-1.882-2.971-1.905-2.939,0c0.013,0.833-0.255,3.677-1.722,2.431
				c-1.82-1.546,1.097-6.303,2.424-4.996C405.71,392.189,406.507,391.561,406.171,390.951L406.171,390.951z"/>
		</g>
	</g>
	<g>
		<g>
			<path fill="#333333" d="M415.498,392.07c0.265,0.179,0.457,0.417,0.578,0.716c0.361,0.774,1.777,0.632,1.902-0.249
				c0.181-1.277-0.117-2.828-1.648-3.046c-1.457-0.208-2.651,0.8-3.414,1.938c-2.365,3.537,1.163,7.768,4.934,7.508
				c1.515-0.105,4.111-0.98,4.624-2.619c0.602-1.921-1.594-1.148-2.508-0.753c-1.841,0.796-4.18,1.328-5.017-1.058
				c-0.267-0.762-0.135-1.633,0.378-2.26c0.166-0.201,0.378-0.387,0.627-0.475c0.131-0.015,0.097-0.051-0.104-0.109
				c0.077,0.061,0.082,0.544,0.084,0.597c0.439-0.335,0.879-0.669,1.317-1.003c-0.353-0.051-0.626-0.054-0.937-0.245
				C415.67,390.614,414.919,391.561,415.498,392.07L415.498,392.07z"/>
		</g>
	</g>
	<g>
		<g>
			<path fill="#333333" d="M421.468,383.301c-2.033,0.484-0.436,4.595-0.119,5.728c0.842,3.011,1.455,8.887,4.69,10.261
				c1.381,0.588,2.611-1.391,1.203-2.057c-0.056-0.024-0.112-0.049-0.168-0.072c-0.28-0.229-0.587-0.229-0.867,0
				c-0.056,0.023-0.112,0.048-0.168,0.072c0.584,0.236,1.167,0.475,1.751,0.711c-0.196-1.27-0.96-2.195-1.528-3.336
				c-0.738-1.482-1.156-3.125-1.81-4.646c-0.424-0.986-0.795-1.991-1.241-2.969c-0.271-0.596-0.853-2.733-1.242-2.504
				C422.615,384.107,422.18,383.131,421.468,383.301L421.468,383.301z"/>
		</g>
	</g>
	<g>
		<g>
			<path fill="#333333" d="M421.29,392.801c-0.396,0.236-0.159,0.119,0.137,0.063c0.242-0.046,0.507-0.054,0.744-0.115
				c0.743-0.194,1.487-0.388,2.233-0.573c1.164-0.291,3.178-0.574,3.822-1.721c0.3-0.534,0.011-1.125-0.537-1.32
				c-1.208-0.43-3.061,0.608-4.167,1.051c-1.122,0.448-2.138,0.816-2.99,1.633C420.016,392.313,420.681,393.164,421.29,392.801
				L421.29,392.801z"/>
		</g>
	</g>
	<g>
		<g>
			<path fill="#333333" d="M429.623,391.115c0.539,2.045,0.649,6.027,3.087,6.773c1.018,0.313,1.584-0.951,0.97-1.666
				c-0.103-0.119-0.199-0.246-0.322-0.345c-0.25-0.201-0.516-0.201-0.766,0c-0.123,0.099-0.22,0.226-0.322,0.345
				c0.556,0.146,1.111,0.293,1.667,0.439c-0.232-1.031-1.101-1.895-1.494-2.9c-0.429-1.096-0.836-2.229-1.521-3.193
				C430.468,389.934,429.408,390.3,429.623,391.115L429.623,391.115z"/>
		</g>
	</g>
	<g>
		<g>
			<path fill="#333333" d="M429.864,385.836c-0.063,0.027-0.126,0.055-0.189,0.082c-0.453,0.197-0.611,0.805-0.505,1.241
				c0.183,0.749,0.768,1.305,1.487,1.534c0.629,0.2,1.107-0.326,1.175-0.895c0.045-0.381-0.095-0.688-0.245-1.028
				c-0.059-0.134-0.23-0.303-0.348-0.407c-0.05-0.045-0.098-0.092-0.144-0.142c0.122,0.143,0.112,0.119-0.029-0.071
				C430.769,385.721,430.331,385.633,429.864,385.836L429.864,385.836z"/>
		</g>
	</g>
	<g>
		<g>
			<path fill="#333333" d="M439.682,391.479c0.295-0.39,0.29-0.967-0.205-1.2c-0.692-0.328-1.584,0.264-2.106,0.68
				c-1.354,1.075-1.908,3.279-1.26,4.875c0.878,2.16,3.099,3.777,5.359,2.418c1.548-0.931,2.574-3.012,2.391-4.806
				c-0.116-1.132-0.619-2.07-1.597-2.687c-1.144-0.721-2.428-0.559-3.595-0.031c-0.773,0.35-0.547,1.607,0.232,1.781
				c0.358,0.08,0.699,0.21,1.056,0.288c0.133,0.028,0.263,0.072,0.393,0.108c0.081,0.023,0.161,0.05,0.24,0.08
				c-0.142-0.062-0.145-0.059-0.008,0.008c0.062,0.033,0.342,0.245,0.069,0.023c0.077,0.063,0.336,0.397,0.107,0.08
				c0.056,0.076,0.1,0.164,0.146,0.246c0.12,0.211-0.083-0.287,0.029,0.102c0.026,0.088,0.068,0.417,0.019,0.001
				c0.016,0.134,0.015,0.27,0.012,0.403c-0.002,0.085-0.051,0.434,0.01,0.026c-0.021,0.141-0.057,0.278-0.093,0.416
				c-0.027,0.104-0.063,0.206-0.1,0.309c-0.082,0.235,0.116-0.227-0.069,0.146c-0.063,0.13-0.14,0.254-0.216,0.375
				c-0.221,0.352,0.07-0.061-0.085,0.127c-0.095,0.115-0.631,0.564-0.291,0.316c-0.077,0.057-0.16,0.104-0.243,0.152
				c-0.229,0.131,0.326-0.098-0.068,0.025c-0.11,0.035-0.406,0.055,0.046,0.01c-0.133,0.014-0.507-0.063-0.051,0.022
				c-0.4-0.074,0.14,0.101-0.092-0.017c-0.361-0.182,0.058,0.088-0.141-0.084c-0.331-0.289-0.187-0.152-0.461-0.553
				c-0.196-0.285-0.349-0.51-0.376-0.858c-0.036-0.476,0.049-0.968,0.176-1.425c0.068-0.248,0.197-0.48,0.322-0.703
				c0.1-0.148,0.185-0.305,0.254-0.47c0.223-0.304,0.061-0.337-0.486-0.099C439.217,391.781,439.516,391.698,439.682,391.479
				L439.682,391.479z"/>
		</g>
	</g>
	<g>
		<g>
			<path fill="#333333" d="M445.751,390.441c-0.617,2.771,0.405,5.248,1.516,7.762c0.447,1.01,1.931,0.62,2.203-0.289
				c0.678-2.262,0.587-5.034,2.384-6.775c-0.65-0.083-1.302-0.167-1.952-0.251c1.36,2.009,2.223,4.39,4.096,6.011
				c1.498,1.297,4.004,1.382,4.934-0.607c0.227-0.483-0.038-1.083-0.623-1.086c-1.949-0.008-2.728,0.008-3.943-1.719
				c-0.863-1.228-1.479-2.609-2.316-3.853c-0.45-0.668-1.349-0.833-1.952-0.251c-2.17,2.092-2.343,5.1-2.95,7.891
				c0.734-0.096,1.469-0.191,2.203-0.287c-1.112-2-2.295-4.061-2.464-6.393C446.84,389.975,445.899,389.771,445.751,390.441
				L445.751,390.441z"/>
		</g>
	</g>
	<g>
		<g>
			<path fill="#333333" d="M479.481,379.1c-2.498,2.957-3.357,6.186-4.961,9.643c-1.603,3.456-3.113,6.986-3.14,10.852
				c-0.007,1.092,1.384,1.68,2.152,0.891c0.24-0.246,0.313-0.475,0.357-0.807c0.29-2.203,0.648-4.104,1.367-6.199
				c0.726-2.117,1.684-4.164,2.52-6.238c1.011-2.504,1.274-4.932,2.8-7.295C481.004,379.285,479.995,378.492,479.481,379.1
				L479.481,379.1z"/>
		</g>
	</g>
	<g>
		<g>
			<path fill="#333333" d="M486.314,384.713c-0.157,2.014,0.22,4.201,0.321,6.232c0.102,2.054-0.045,5.422,1.496,7.01
				c0.482,0.498,1.19,0.522,1.78,0.23c0.964-0.478,0.717-1.602,0.441-2.412c-0.474-1.396-0.637-2.969-0.823-4.424
				c-0.28-2.184-0.087-5.616-1.815-7.217C487.166,383.625,486.369,384.002,486.314,384.713L486.314,384.713z"/>
		</g>
	</g>
	<g>
		<g>
			<path fill="#333333" d="M485.505,392.903c-0.203,0.29-0.131,0.155,0.127,0.056c0.296-0.114,0.614-0.18,0.922-0.254
				c0.88-0.209,1.762-0.406,2.633-0.648c1.29-0.36,3.32-0.674,4.2-1.809c0.353-0.455,0.308-1.236-0.367-1.388
				c-1.666-0.372-3.932,0.638-5.42,1.302c-0.866,0.387-3.306,1.148-3.238,2.432C484.394,393.225,485.154,393.403,485.505,392.903
				L485.505,392.903z"/>
		</g>
	</g>
	<g>
		<g>
			<path fill="#333333" d="M494.932,390.928c-0.076,1.1,0.111,2.313,0.361,3.381c0.281,1.2,0.765,2.746,2.223,2.83
				c0.463,0.027,0.909-0.271,1.142-0.654c0.314-0.52,0.269-1.271-0.287-1.607c-0.271-0.164,0.833,1.205,0.287,0.273
				c-0.136-0.231-0.319-0.38-0.536-0.529c0.195,0.135-0.026-0.102-0.134-0.279c-0.718-1.187-1.006-2.599-1.732-3.773
				C495.868,389.945,494.979,390.232,494.932,390.928L494.932,390.928z"/>
		</g>
	</g>
	<g>
		<g>
			<path fill="#333333" d="M495.215,385.391c-0.115-0.036-0.23-0.072-0.346-0.107c-2.012-0.628-1.211,3.243,0.447,1.695
				c0.064-0.061,0.13-0.121,0.194-0.182c0.294-0.275,0.294-0.797,0-1.072c-0.064-0.061-0.13-0.121-0.194-0.182
				c-1.658-1.548-2.459,2.323-0.447,1.695c0.115-0.035,0.23-0.071,0.346-0.107C496.075,386.862,496.075,385.659,495.215,385.391
				L495.215,385.391z"/>
		</g>
	</g>
	<g>
		<g>
			<path fill="#333333" d="M502.1,391.049c0.991,1.875,1.332,3.435,1.692,5.538c0.238,1.396,2.405,1.021,2.409-0.326
				c0.002-0.684-0.049-1.359-0.09-2.042c-0.046-0.653-0.014-1.305,0.096-1.951c-0.359-0.688-0.319-0.752,0.118-0.195
				c0.744,0.795,0.535,2.074,1.513,2.646c2.875,1.684,5.209-4.215,6.345-5.582c-0.689-0.183-1.379-0.365-2.068-0.547
				c0.672,3.195,0.498,7.711,3.368,9.846c0.674,0.5,1.722-0.331,1.432-1.102c-0.52-1.381-1.172-2.647-1.521-4.097
				c-0.419-1.741-0.55-3.548-0.892-5.306c-0.172-0.885-1.482-1.23-2.068-0.547c-0.557,0.65-0.993,1.29-1.409,2.041
				c-0.224,0.439-0.459,0.872-0.705,1.299c-0.328,0.369-0.656,0.737-0.984,1.105c-1.053,0.319-0.99,0.677,0.188,1.072
				c-0.156-1.418-1.14-2.703-2.295-3.516c-3.695-2.601-3.611,5.301-3.479,6.874c0.803-0.108,1.606-0.218,2.409-0.326
				c-0.283-1.047-1.777-7.368-4.02-5.177C502.058,390.835,502.05,390.953,502.1,391.049L502.1,391.049z"/>
		</g>
	</g>
	<g>
		<g>
			<path fill="#333333" d="M518.976,391.926c1.07,1.014,2.502,1.229,3.794,0.458c1.086-0.648,2.184-2.281,1.414-3.551
				c-1.85-3.05-5.772-0.802-6.705,1.787c-1.025,2.846,0.782,5.384,3.312,6.603c2.409,1.16,6.683,1.353,8.119-1.416
				c0.504-0.971-0.505-1.998-1.481-1.48c-1.162,0.615-2.013,1.18-3.38,1.174c-1.329-0.004-2.672-0.598-3.627-1.502
				c-0.907-0.858-1.047-2.05-0.518-3.148c0.412-0.854,1.284-1.692,2.304-1.251c0.814,0.353-1.449,2.292-2.663,1.59
				C519.087,390.924,518.584,391.555,518.976,391.926L518.976,391.926z"/>
		</g>
	</g>
	<g>
		<g>
			<path fill="#333333" d="M10.229,140.021c-1.526,0.338-0.598,3.145-0.422,3.993c0.906,4.356,1.51,8.816,2.643,13.117
				c0.615,2.335,4.246,0.924,3.086-1.301c-0.302-0.581-0.501-0.864-0.931-1.342c-0.261-0.291-0.793-0.291-1.055,0
				c-0.429,0.478-0.628,0.761-0.931,1.342c1.029,0.135,2.058,0.269,3.086,0.403c-1.228-5.017-1.505-11.669-4.749-15.882
				c-0.083,0.316-0.166,0.632-0.249,0.948c0.016-0.008,0.032-0.017,0.048-0.025C11.472,140.898,10.963,139.858,10.229,140.021
				L10.229,140.021z"/>
		</g>
	</g>
	<g>
		<g>
			<path fill="#333333" d="M6.571,139.436c0.052,0.637,0.38,0.655,0.982,0.053c0.389-0.148,0.786-0.273,1.189-0.376
				c1.137-0.325,2.364-0.463,3.54-0.52c1.675-0.08,4.421,0.231,5.529,1.701c1.015,1.348-2.573,3.517-3.75,2.747
				c-0.863-0.564-1.706,0.36-1.567,1.205c0.373,2.269,3.182,2.17,4.777,1.382c1.955-0.967,3.755-2.804,3.688-5.119
				c-0.084-2.891-3.675-4.352-6.073-4.644c-3.381-0.413-7.338,0.272-9.757,2.869c-0.272,0.292-0.333,0.704-0.136,1.057
				c0.34,0.609,0.696,0.922,1.419,0.828C7.051,140.534,7.27,139.64,6.571,139.436L6.571,139.436z"/>
		</g>
	</g>
	<g>
		<g>
			<path fill="#333333" d="M26.271,137.192c0.323,0.074,0.589-0.003,0.872-0.163c0.415-0.234,0.55-0.91,0.16-1.237
				c-1.049-0.88-2.378,0.008-3.242,0.744c-1.204,1.024-2.022,2.608-2.234,4.159c-0.442,3.238,2.121,5.856,5.382,5.084
				c2.373-0.562,4.224-3.044,4.394-5.405c0.179-2.485-3.688-4.929-5.313-2.486c-0.162,0.244-0.183,0.682,0,0.923
				c0.511,0.672,1.172,0.88,1.974,1.078c0.38,0.094,0.353,0.196,0.341,0.485c-0.037,0.965-1.213,1.832-1.973,2.224
				c-1.191,0.616-1.832-0.708-1.683-1.721c0.132-0.894,0.503-1.728,0.996-2.475c0.447-0.678,1.338-1.036,1.56-1.844
				c-0.506,0-1.013,0-1.52,0c0.023,0.064,0.046,0.127,0.069,0.191c0.054-0.203,0.107-0.406,0.161-0.609
				c-0.024,0.028-0.047,0.056-0.071,0.084C25.753,136.443,25.822,137.09,26.271,137.192L26.271,137.192z"/>
		</g>
	</g>
	<g>
		<g>
			<path fill="#333333" d="M35.453,128.975c-0.056-0.056-0.111-0.112-0.167-0.168c-0.456-0.458-1.089-0.176-1.307,0.345
				c-0.549,1.312,0.479,3.55,0.643,4.852c0.263,2.089,0.948,4.072,1.23,6.152c0.315,2.324,0.971,6.828,4.177,6.391
				c0.777-0.106,1.171-1.23,0.749-1.84c-1.257-1.812-1.638-3.775-2.09-5.902c-0.371-1.745-1.107-3.431-1.665-5.126
				c0.039,0.118-1.384-4.165-1.569-3.955C35.644,129.507,35.666,129.189,35.453,128.975L35.453,128.975z"/>
		</g>
	</g>
	<g>
		<g>
			<path fill="#333333" d="M32.981,138.541c1.624-0.245,3.257-0.658,4.832-1.12c1.326-0.389,2.868-0.73,3.565-2.035
				c0.241-0.452,0.008-0.901-0.438-1.078c-1.42-0.563-3.038,0.213-4.408,0.64c-1.46,0.455-2.999,1.059-4.237,1.966
				C31.457,137.527,31.973,138.693,32.981,138.541L32.981,138.541z"/>
		</g>
	</g>
	<g>
		<g>
			<path fill="#333333" d="M46.083,139.91c2.278,1.735,7.023-1.313,4.717-3.789c-0.926-0.994-2.73-0.739-3.826-0.264
				c-1.716,0.744-2.52,2.325-3.154,3.997c-2.601,6.856,7.433,8.222,11.086,4.344c1.273-1.352-0.615-3.15-2.002-2.002
				c-1.483,1.227-5.393,2.584-6.678,0.377c-0.687-1.178,0.49-3.621,1.458-4.291c0.292-0.202,0.665-0.335,1.017-0.375
				c0.892-0.1-0.066,0.256,0.296-0.544c-0.45,0.995-1.567,1.414-2.585,1.336C45.692,138.645,45.627,139.563,46.083,139.91
				L46.083,139.91z"/>
		</g>
	</g>
	<g>
		<g>
			<path fill="#333333" d="M57.165,135.855c-0.516,3.143,0.917,6.31,0.755,9.494c-0.098,1.916,2.973,1.93,2.983,0
				c0.008-1.398,0.149-2.799,0.364-4.18c0.123-0.791,0.307-1.569,0.567-2.325c0.058-0.169,0.145-0.381,0.254-0.522
				c-0.086,0.11-0.431-0.215-0.183,0.158c0.85,1.278,0.634,3.416,1.102,4.87c0.533,1.657,1.823,2.971,3.657,2.582
				c0.684-0.145,0.937-1.125,0.419-1.588c-1.732-1.552-1.781-3.175-2.187-5.375c-0.302-1.638-1.503-3.83-3.519-3.357
				c-3.315,0.777-3.427,7.123-3.458,9.737c0.995,0,1.989,0,2.983,0c-0.334-3.255-1.286-6.654-2.639-9.637
				C58.056,135.253,57.247,135.356,57.165,135.855L57.165,135.855z"/>
		</g>
	</g>
	<g>
		<g>
			<path fill="#333333" d="M68.411,127.711c-3.168-0.188,1.682,15.42,2.56,16.763c1.024,1.565,3.24,0.215,2.473-1.445
				c-1.232-2.666-1.829-5.59-2.777-8.359c-0.323-0.941-0.648-1.881-0.948-2.83c-0.192-0.609-0.355-1.226-0.513-1.844
				c-0.098-0.334-0.179-0.672-0.242-1.015c-0.027-0.496-0.155-0.502-0.383-0.018C69.311,128.791,69.104,127.752,68.411,127.711
				L68.411,127.711z"/>
		</g>
	</g>
	<g>
		<g>
			<path fill="#333333" d="M66.775,138.306c-0.461,0.274-0.25,0.167,0.113,0.072c0.242-0.063,0.486-0.116,0.731-0.167
				c0.76-0.157,1.509-0.331,2.261-0.523c1.201-0.307,3.335-0.782,3.88-2.054c0.239-0.557,0.099-1.338-0.604-1.484
				c-1.365-0.283-3.027,0.71-4.233,1.269c-1.085,0.502-2.18,0.95-3.023,1.753C65.303,137.741,66.073,138.724,66.775,138.306
				L66.775,138.306z"/>
		</g>
	</g>
	<g>
		<g>
			<path fill="#333333" d="M75.773,136.173c-0.605,2.505,0.258,5.132,1.615,7.285c0.254,0.402,0.707,0.714,1.202,0.689
				c0.052-0.002,0.103-0.005,0.155-0.008c0.832-0.043,1.426-0.928,0.971-1.691c-0.59-0.989-1.351-0.989-1.941,0
				c0.647,0.378,1.294,0.756,1.941,1.135c0.72-1.174-0.441-2.379-1.019-3.369c-0.639-1.095-1.613-2.548-1.624-3.865
				C77.066,135.611,75.951,135.436,75.773,136.173L75.773,136.173z"/>
		</g>
	</g>
	<g>
		<g>
			<path fill="#333333" d="M76.138,132.107c0.036-0.061,0.071-0.121,0.106-0.181c-0.347,0.199-0.693,0.397-1.04,0.597
				c-0.498-0.193-0.648-0.226-0.45-0.098c0.099,0.068,0.316,0.146,0.459,0.175c0.449,0.092,0.742,0.044,1.154-0.148
				c0.474-0.222,0.608-0.806,0.516-1.27c-0.21-1.061-1.791-1.592-2.531-0.715c-0.658,0.779-0.262,2.047,0.852,2.056
				C75.582,132.525,75.93,132.461,76.138,132.107L76.138,132.107z"/>
		</g>
	</g>
	<g>
		<g>
			<path fill="#333333" d="M88.503,135.924c-3.87-3.655-8.526,3.238-6.555,6.911c0.834,1.553,2.795,1.982,4.382,1.629
				c1.957-0.436,3.23-2.268,3.732-4.084c0.406-1.47-1.788-2.459-2.498-1.053c-1.733,3.431,1.708,5.41,4.809,4.667
				c0.877-0.21,2.056-1.351,0.872-2.044c-0.683-0.4-4.031-0.014-3.32-1.243c-0.833-0.351-1.666-0.702-2.498-1.053
				c-0.301,0.888-1.685,2.748-2.852,1.783c-0.503-0.416-0.223-1.241-0.07-1.749c0.489-1.629,1.518-3.042,3.413-2.758
				C88.466,137.012,88.984,136.378,88.503,135.924L88.503,135.924z"/>
		</g>
	</g>
	<g>
		<g>
			<path fill="#333333" d="M93.452,126.843c-0.79,3.963,0.494,8.501,1.663,12.292c0.498,1.614,3.767,9.194,6.315,5.477
				c0.232-0.338,0.204-0.849,0-1.19c-0.508-0.851-1.495-1.191-2.063-2.064c-1.12-1.721-1.794-3.733-2.426-5.669
				c-0.821-2.517-2.222-5.998-2.211-8.671C94.73,126.296,93.598,126.111,93.452,126.843L93.452,126.843z"/>
		</g>
	</g>
	<g>
		<g>
			<path fill="#333333" d="M27.2,159.808c1.103,0.249,2.843,0.142,3.436-1.041c0.571-1.14,1.047-2.178,0.104-3.268
				c-0.706-0.814-2.079-0.738-2.998-0.466c-1.43,0.426-2.263,1.716-2.782,3.029c-2.414,6.106,6.293,9.555,9.92,4.842
				c0.881-1.145-1.007-2.535-1.972-1.521c-1.624,1.706-5.021,2.055-6.01-0.615c-0.461-1.244,0.237-3.126,1.363-3.775
				c0.307-0.178,1.267-0.428,1.129,0.164c-0.247,1.063-1.269,1.418-2.191,1.7C26.753,158.993,26.706,159.695,27.2,159.808
				L27.2,159.808z"/>
		</g>
	</g>
	<g>
		<g>
			<path fill="#333333" d="M34.448,156.654c1.161,2.554,2.401,5.018,3.269,7.698c0.463,1.429,2.563,1.167,2.611-0.354
				c0.054-1.728-0.935-4.959,0.251-6.421c-0.676-0.086-1.353-0.174-2.029-0.261c0.844,1.144,3.557,8.877,6.121,6.313
				c1.058-1.058-0.821-1.998-1.35-2.688c-1.133-1.478-1.454-3.422-2.54-4.93c-0.444-0.616-1.453-0.955-2.029-0.262
				c-1.819,2.191-1.255,5.611-1.082,8.247c0.826-0.224,1.651-0.447,2.477-0.671c-1.193-2.665-2.601-5.371-4.697-7.447
				C34.905,155.342,34.16,156.021,34.448,156.654L34.448,156.654z"/>
		</g>
	</g>
	<g>
		<g>
			<path fill="#333333" d="M49.518,159.865c2.48,0.743,4.334-1.498,3.271-3.814c-0.448-0.975-1.631-1.465-2.647-1.236
				c-1.398,0.315-2.423,1.461-2.927,2.751c-0.955,2.445,1.135,5.054,3.093,6.235c0.979,0.591,2.207,0.938,3.346,0.715
				c1.184-0.232,2.517-1.285,2.247-2.607c-0.141-0.688-0.936-0.865-1.488-0.605c-0.52,0.246-0.645,0.842-1.208,1.002
				c-0.455,0.129-1.025-0.063-1.437-0.25c-1.25-0.57-2.316-1.689-2.585-3.058c-0.113-0.577,0.186-1.185,0.55-1.604
				c0.182-0.209,0.837-0.842,1.172-0.572c0.307,0.246,0.328,0.666,0.23,1.016c-0.188,0.677-1.028,0.854-1.615,0.963
				C48.954,158.904,49.025,159.719,49.518,159.865L49.518,159.865z"/>
		</g>
	</g>
	<g>
		<g>
			<path fill="#333333" d="M57.189,156.867c-1.045,2.601,1.93,4.561,2.625,6.791c0.748-0.314,1.496-0.631,2.243-0.945
				c-0.703-0.961-1.498-2.254-1.309-3.51c0.221-1.469,1.864-1.058,2.896-1.4c0.864-0.287,1.293-1.713,0.282-2.155
				c-1.99-0.87-4.644,0.164-5.446,2.216c-0.811,2.073,0.192,4.432,1.458,6.088c0.953,1.246,2.798,0.221,2.119-1.238
				c-0.455-0.979-1.222-1.779-1.946-2.563c-0.77-0.833-2.08-1.909-1.954-3.15C58.219,156.398,57.379,156.396,57.189,156.867
				L57.189,156.867z"/>
		</g>
	</g>
	<g>
		<g>
			<path fill="#333333" d="M29.54,179.943c-4.794,5.718-5.138,19.486,4.237,20.703c1.589,0.205,1.794-1.998,0.74-2.732
				c-2.689-1.871-4.519-2.427-4.816-6.088c-0.289-3.547,0.184-7.716,1.187-11.098C31.107,179.986,30.07,179.311,29.54,179.943
				L29.54,179.943z"/>
		</g>
	</g>
	<g>
		<g>
			<path fill="#333333" d="M35.934,184.879c-1.244,0.861-0.057,3.769,0.222,4.833c0.645,2.464,1.33,5.675,2.848,7.782
				c0.72,1,2.366,0.705,2.389-0.647c0.013-0.804-0.021-1.288-0.45-1.958c-0.207-0.322-0.625-0.374-0.907-0.117
				c-0.561,0.511-0.883,1.033-1.161,1.734c0.781-0.102,1.563-0.204,2.343-0.307c-0.792-1.813-1.691-3.597-2.512-5.4
				c-0.553-1.215-1.097-2.426-1.56-3.68c-0.173-0.467-0.731-1.434-0.687-1.939C36.482,184.924,36.142,184.734,35.934,184.879
				L35.934,184.879z"/>
		</g>
	</g>
	<g>
		<g>
			<path fill="#333333" d="M40.445,188.791c-1.366,2.016-3.531,6.178-0.597,7.99c0.925,0.571,2.084,0.793,3.128,1.031
				c0.991,0.227,2.742,0.857,3.654,0.238c0.809-0.549,0.899-1.504,0.288-2.24c-0.812-0.979-3.547-0.861-4.725-1.118
				c-1.065-0.233-1.226-0.563-1.161-1.729c0.066-1.193,0.596-2.404,0.819-3.578C42.017,188.521,40.945,188.055,40.445,188.791
				L40.445,188.791z"/>
		</g>
	</g>
	<g>
		<g>
			<path fill="#333333" d="M57.889,181.168c1.627,2.496,4.177,4.125,5.95,6.496c1.336,1.787,3.041,7.16,0.255,8.353
				c-1.429,0.611-0.397,2.869,1.038,2.463c3.639-1.029,3.199-5.36,2.474-8.278c-1.141-4.584-5.275-7.26-8.844-9.905
				C58.242,179.91,57.554,180.654,57.889,181.168L57.889,181.168z"/>
		</g>
	</g>
	<g>
		<g>
			<path fill="#333333" d="M70.094,158.783c0.684-1.957-1.402-2.115-2.688-1.464c-1.647,0.833-2.641,2.45-1.891,4.272
				c1.506,3.662,6.506,3.389,6.447-0.926c-0.738,0.305-1.477,0.611-2.215,0.917c2.102,2.278,6.857,4.193,7.21,7.622
				c0.222,2.154-2.718,2.487-4.21,2.422c-1.791-0.078-3.144-1.165-4.248-2.463c-0.439-0.517-1.165-0.055-1.212,0.502
				c-0.46,5.479,8.378,5.363,11.143,2.617c1.872-1.859,1.108-4.84-0.336-6.673c-1.842-2.339-4.521-3.698-6.513-5.862
				c-0.772-0.839-2.229-0.186-2.215,0.918c0.015,1.135-0.285,1.204-1.132,0.473c-0.976-0.843,0.203-2.551,1.205-2.089
				C69.712,159.176,69.993,159.073,70.094,158.783L70.094,158.783z"/>
		</g>
	</g>
	<g>
		<g>
			<path fill="#333333" d="M79.457,158.666c-0.248,2.735,0.273,7.303,4.108,6.511c2.776-0.573,3.425-4.417,2.089-6.423
				c-0.716-1.075-2.407-0.408-2.094,0.883c1.186,4.896,6.88,6.834,10.048,10.205c0.888,0.943,1.847,2.654,1.274,3.968
				c-0.523,1.203-2.62,1.042-3.626,0.906c-2.448-0.331-4.198-1.763-5.851-3.458c-0.313-0.321-0.837-0.152-0.965,0.254
				c-1.631,5.196,9.768,7.926,12.404,3.967c4.852-7.286-9.678-11.193-11.076-16.451c-0.698,0.295-1.396,0.589-2.094,0.883
				c0.838,1.199-0.402,4.5-1.763,2.659c-0.825-1.116-0.87-2.781-1.393-4.048C80.287,157.957,79.514,158.034,79.457,158.666
				L79.457,158.666z"/>
		</g>
	</g>
	<g>
		<g>
			<path fill="#333333" d="M50.096,181.617c-1.061,1.515,0.159,3.649,0.802,5.133c2.102,4.854,4.574,9.5,6.473,14.449
				c1.802,4.696,4.532,11.38-1.951,13.567c-4.164,1.404-7.429-0.668-10.264-3.422c-0.573-0.556-1.588-0.164-1.582,0.655
				c0.068,8.491,13.402,7.725,17.677,3.251c3.879-4.06,1.097-10.678-0.621-14.95c-1.423-3.54-3.129-6.954-4.896-10.333
				c-1.054-2.017-4.203-5.571-4.227-7.968C51.5,181.205,50.514,181.02,50.096,181.617L50.096,181.617z"/>
		</g>
	</g>
	<g>
		<g>
			<g>
				<path fill="#333333" d="M348.557,28.167c-0.531,5.205-1.385,11.117,0.232,16.196c0.293,0.916,1.604,0.537,1.426-0.393
					c0.037-0.205,0.074-0.41,0.111-0.614c0.139-0.323-0.158-0.723-0.514-0.513c-0.611,0.362-0.664,0.343-0.947,0.951
					c0.449,0.059,0.898,0.117,1.35,0.176c-1.393-5.244-0.346-10.49-0.768-15.804C349.402,27.588,348.615,27.598,348.557,28.167
					L348.557,28.167z"/>
			</g>
		</g>
		<g>
			<g>
				<path fill="#333333" d="M344.916,36.781c0.025-0.15-0.416,0.274,0.029-0.037c0.258-0.18,0.533-0.209,0.842-0.234
					c0.811-0.066,1.641,0.013,2.453-0.001c1.066-0.02,3.271,0.064,3.684-1.226c0.055-0.171-0.029-0.417-0.201-0.494
					c-0.654-0.295-1.463-0.058-2.158-0.004c-0.943,0.074-1.895,0.091-2.834,0.218c-1.191,0.162-2.553,0.367-2.658,1.664
					C344.033,37.147,344.838,37.258,344.916,36.781L344.916,36.781z"/>
			</g>
		</g>
		<g>
			<g>
				<path fill="#333333" d="M353.729,36.667c-0.24,2.421,1.045,4.591,1.064,7c0.465-0.063,0.93-0.126,1.393-0.188
					c-0.527-1.522-1.078-2.94-1.119-4.578c-0.018-0.686,0.105-1.35,0.467-1.936c0.498-0.81,1.695-0.552,2.469-0.61
					c0.605-0.045,1.035-0.985,0.348-1.281c-2.016-0.868-4.064,0.132-4.678,2.204c-0.605,2.05,0.1,4.983,1.217,6.748
					c0.354,0.559,1.379,0.384,1.322-0.358c-0.186-2.481-1.498-4.643-1.945-7.073C354.205,36.268,353.758,36.382,353.729,36.667
					L353.729,36.667z"/>
			</g>
		</g>
		<g>
			<g>
				<path fill="#333333" d="M365.803,37.083c-0.617-2.289-3.631-1.119-4.879-0.095c-1.42,1.165-1.813,3.121-1.557,4.848
					c0.203,1.378,1.234,2.918,2.734,3.027c2.121,0.155,3.396-2.127,4.143-3.763c-0.533-0.145-1.068-0.29-1.602-0.434
					c0.063,1.332,0.521,2.702,1.617,3.541c0.963,0.739,2.523,1.153,3.463,0.18c0.139-0.143,0.115-0.391-0.063-0.491
					c-0.629-0.354-1.346-0.396-1.992-0.74c-0.895-0.478-1.268-1.542-1.307-2.49c-0.031-0.788-1.219-1.26-1.602-0.434
					c-0.65,1.409-2.604,4.515-3.621,1.632c-0.311-0.88-0.221-1.885,0.168-2.724c0.576-1.246,2.676-2.773,3.975-1.753
					C365.514,37.57,365.893,37.411,365.803,37.083L365.803,37.083z"/>
			</g>
		</g>
		<g>
			<g>
				<path fill="#333333" d="M370.793,38.376c1.635,1.642,1.939,4.072,1.924,6.29c-0.008,1.016,1.539,1.01,1.57,0
					c0.076-2.336,0.383-4.845,2.289-6.425c-0.424-0.055-0.85-0.11-1.275-0.165c1.053,2.25,1.201,5.635,3.367,7.163
					c0.57,0.403,1.211-0.362,0.908-0.908c-1.262-2.266-1.781-4.745-2.873-7.075c-0.238-0.512-0.908-0.47-1.275-0.165
					c-2.213,1.835-2.732,4.842-2.711,7.575c0.523,0,1.047,0,1.57,0c-0.076-2.305-0.563-6.044-3.205-6.786
					C370.793,37.799,370.584,38.167,370.793,38.376L370.793,38.376z"/>
			</g>
		</g>
		<g>
			<g>
				<path fill="#333333" d="M386.098,38.829c0.727-0.422,1.428-0.838,1.289-1.777c-0.125-0.851-1.266-1.068-1.963-1.107
					c-2.221-0.122-3.428,2.265-2.01,3.916c1.275,1.483,3.537,1.564,4.898,2.892c0.568,0.553-1.178,1.396-1.543,1.481
					c-1.295,0.305-3.053-0.16-3.561-1.497c-0.279-0.731-1.398-0.66-1.408,0.19c-0.055,5,10.018,3.299,8.068-0.868
					c-0.691-1.477-3.15-1.983-4.449-2.708c-0.596-0.332-1.607-1.02-0.709-1.638c0.371-0.255,0.83-0.318,1.268-0.303
					c0.916,0.032,0.295,0.774-0.109,1.123C385.705,38.676,385.916,38.933,386.098,38.829L386.098,38.829z"/>
			</g>
		</g>
		<g>
			<g>
				<path fill="#333333" d="M392.205,39.34c0.846,1.678,0.422,3.78,0.982,5.551c0.18,0.57,0.973,0.873,1.412,0.373
					c0.688-0.78,1.113-1.675,0.697-2.679c-0.096-0.23-0.412-0.323-0.559-0.073c-0.369,0.639-0.791,1.069-1.334,1.556
					c0.471,0.125,0.941,0.249,1.412,0.373c-0.512-1.738-0.49-4.451-2.141-5.572C392.369,38.662,392.063,39.055,392.205,39.34
					L392.205,39.34z"/>
			</g>
		</g>
		<g>
			<g>
				<path fill="#333333" d="M393.002,34.307c-0.205-0.026-0.221-0.198-0.25-0.348c-0.141-0.75-1.352-0.741-1.5,0
					c-0.088,0.435-0.146,0.876,0.199,1.224c0.34,0.338,0.906,0.357,1.301,0.123c0.498-0.296,0.459-0.976,0-1.28
					c-0.072-0.049-0.449-0.244-0.252-0.119c0.127,0.164,0.252,0.329,0.379,0.493c-0.037-0.101-0.072-0.19-0.117-0.293
					c0.092,0.207-0.008-0.143-0.01-0.148c-0.119,0.293-0.238,0.586-0.357,0.879c0.072-0.054,0.143-0.108,0.213-0.162
					c-0.141,0-0.279,0-0.42,0c0.271,0.188,0.475,0.33,0.814,0.35C393.477,35.053,393.447,34.365,393.002,34.307L393.002,34.307z"/>
			</g>
		</g>
		<g>
			<g>
				<path fill="#333333" d="M397.541,30.667c-0.238,1.982,0.006,15.105,3.115,14.558c0.248-0.044,0.428-0.319,0.424-0.558
					c-0.023-1.923-0.947-4.056-1.299-5.981c-0.496-2.707-0.92-5.422-1.334-8.141C398.361,29.985,397.598,30.199,397.541,30.667
					L397.541,30.667z"/>
			</g>
		</g>
		<g>
			<g>
				<path fill="#333333" d="M395.656,38.762c0.172,0.849,1.594,0.686,2.172,0.625c1.291-0.138,3.041-0.241,4.082-1.094
					c0.6-0.491,0.055-1.333-0.572-1.382c-0.959-0.076-2.094,0.464-2.996,0.748c-0.451,0.143-0.908,0.27-1.369,0.381
					c-0.178,0.042-0.352,0.113-0.525,0.167c-0.504,0.156-0.23,0.038-0.098,0.365C396.178,38.147,395.561,38.299,395.656,38.762
					L395.656,38.762z"/>
			</g>
		</g>
		<g>
			<g>
				<path fill="#333333" d="M404.135,37.667c-0.143,2.166,0.375,4.673,0.908,6.765c0.318,1.25,2.338,0.68,1.918-0.529
					c-0.186-0.54-0.252-0.986-0.568-1.464c-0.191-0.292-0.588-0.292-0.781,0c-0.316,0.478-0.381,0.924-0.568,1.464
					c0.639,0,1.279,0,1.918,0c-0.498-2.096-1.008-4.567-2.143-6.421C404.621,37.158,404.158,37.308,404.135,37.667L404.135,37.667z"
					/>
			</g>
		</g>
		<g>
			<g>
				<path fill="#333333" d="M404.85,32.818c-0.07-0.083-0.145-0.163-0.221-0.241c0.051,0.121,0.102,0.243,0.15,0.364
					c0.006-0.064,0.012-0.128,0.018-0.193c0.033-0.377-0.287-0.737-0.633-0.832c-0.408-0.112-0.736,0.083-0.975,0.397
					c-0.229,0.3-0.135,0.732-0.063,1.065c0.141,0.644,0.895,0.872,1.307,0.83c0.268-0.027,0.525-0.166,0.592-0.45
					c-0.051,0.22,0.105-0.425,0.105-0.399c0-0.136-0.031-0.29-0.082-0.418c-0.072-0.186-0.123-0.379-0.281-0.517
					c-0.043-0.034-0.082-0.07-0.117-0.109c0.1,0.121,0.15,0.266,0.146,0.434c-0.143,0.249-0.285,0.497-0.428,0.745
					c0.053-0.036,0.104-0.072,0.156-0.108c-0.207-0.027-0.416-0.054-0.623-0.08c0.086,0.067,0.17,0.137,0.252,0.209
					C404.635,33.924,405.275,33.296,404.85,32.818L404.85,32.818z"/>
			</g>
		</g>
		<g>
			<g>
				<path fill="#333333" d="M410.875,37.207c-1.705,0.41-3.24,2.215-3.551,3.912c-0.389,2.129,1.439,3.554,3.398,3.643
					c1.916,0.087,4.057-1.437,4.322-3.378c0.289-2.125-1.979-2.957-3.574-3.682c-0.701-0.318-1.32,0.457-0.814,1.055
					c0.711,0.843,1.721,1.302,2.607,1.922c0.268,0.186-0.131,0.954-0.295,1.207c-0.406,0.628-1.18,0.952-1.873,1.112
					c-1.521,0.351-2.373-0.854-1.971-2.175c0.354-1.162,1.359-2.02,2.215-2.818C411.701,37.666,411.322,37.1,410.875,37.207
					L410.875,37.207z"/>
			</g>
		</g>
		<g>
			<g>
				<path fill="#333333" d="M416.854,38.815c0.316,0.379,0.303,1.745,0.361,2.165c0.137,0.969,0.307,1.941,0.549,2.89
					c0.193,0.751,1.264,0.711,1.477,0c0.633-2.12,1.033-4.154,2.828-5.638c-0.42-0.054-0.838-0.108-1.258-0.162
					c0.951,1.603,1.023,3.587,2.104,5.153c0.842,1.22,2.66,1.686,3.404,0.129c0.123-0.257-0.025-0.536-0.316-0.553
					c-0.576-0.034-1.207,0.09-1.648-0.337c-0.494-0.478-0.727-1.29-0.949-1.915c-0.387-1.09-0.613-2.281-1.211-3.284
					c-0.281-0.475-0.863-0.489-1.258-0.162c-1.934,1.602-2.699,3.972-3.172,6.362c0.492,0,0.984,0,1.477,0
					c-0.328-0.909-0.871-5.05-2.238-5.007C416.809,38.461,416.736,38.676,416.854,38.815L416.854,38.815z"/>
			</g>
		</g>
		<g>
			<g>
				<path fill="#333333" d="M446.732,37.301c0.07-0.136,0.344-0.113,0.443-0.239c0.211-0.268,0.262-0.402,0.371-0.745
					c0.09-0.281-0.102-0.632-0.395-0.695c-0.898-0.193-1.771-0.511-2.703-0.365c-0.361,0.057-0.893,0.529-1.193,0.708
					c-0.516,0.307-1.037,0.756-1.26,1.325c-0.377,0.964,0.221,1.786,0.965,2.357c1.197,0.919,2.516,1.609,3.666,2.603
					c0.346,0.298,1.555,1.25,1.457,1.811c-0.043,0.241-1.027,0.23-1.234,0.228c-1.059-0.012-2.871-0.442-3.416-1.375
					c-0.238-0.41-0.756-0.259-0.914,0.12c-1.113,2.666,5.65,3.964,6.965,1.956c1.186-1.808-1.533-3.896-2.715-4.791
					c-0.506-0.382-3.613-1.987-3.121-2.545c0.316-0.359,0.836-0.59,1.246-0.814c0.117-0.069,0.211-0.163,0.279-0.279
					c0.141-0.295,0.096-0.254-0.135,0.125c0.65-0.074,1.309,0.105,1.963,0.047c-0.188-0.188-0.377-0.376-0.564-0.565
					c0.051,0.44-0.23,0.602-0.201,1C446.254,37.413,446.6,37.551,446.732,37.301L446.732,37.301z"/>
			</g>
		</g>
		<g>
			<g>
				<path fill="#333333" d="M452.135,30.667c0.041,5.113,1.043,10.228,2.068,15.22c0.234,1.138,2.105,0.476,1.516-0.639
					c-0.137-0.254-0.27-0.51-0.398-0.767c-0.125-0.239-0.512-0.239-0.635,0c-0.131,0.257-0.264,0.513-0.398,0.767
					c0.504,0.066,1.01,0.132,1.516,0.198c-0.963-4.959-1.914-9.933-2.945-14.877C452.77,30.157,452.133,30.258,452.135,30.667
					L452.135,30.667z"/>
			</g>
		</g>
		<g>
			<g>
				<path fill="#333333" d="M450.502,39.042c2.25-0.21,5.125-0.012,7.189-1.221c0.586-0.343,0.354-1.327-0.352-1.3
					c-2.381,0.089-4.693,1.169-6.938,1.784C450.006,38.414,450.072,39.082,450.502,39.042L450.502,39.042z"/>
			</g>
		</g>
		<g>
			<g>
				<path fill="#333333" d="M463.131,38.192c-3.055-0.682-6.51,3.497-4.15,6.12c0.787,0.874,2.182,1.101,3.244,0.694
					c1.58-0.606,2.086-2.291,2.125-3.839c0.027-1.125-1.563-1.05-1.697,0c-0.219,1.696,0.916,3.095,2.59,3.354
					c1.064,0.166,3.338-0.599,2.602-2.056c-0.061-0.121-0.211-0.201-0.344-0.197c-0.543,0.015-0.947,0.431-1.465,0.595
					c-0.93,0.295-1.842-0.554-1.717-1.471c-0.555-0.075-1.111-0.15-1.666-0.226c-0.041,1.24-1.016,3.243-2.461,1.936
					c-1.641-1.482,1.871-3.641,2.939-3.961C463.578,39.007,463.623,38.302,463.131,38.192L463.131,38.192z"/>
			</g>
		</g>
		<g>
			<g>
				<path fill="#333333" d="M469.207,29.997c-1.152,1.501-0.58,3.967-0.336,5.752c0.393,2.87,1.564,5.948,1.594,8.831
					c0.018,1.584,2.537,1.09,2.027-0.274c-0.152-0.407-0.322-0.703-0.664-0.971c-0.219-0.173-0.441-0.173-0.662,0
					c-0.342,0.268-0.512,0.564-0.664,0.971c-0.508,1.364,2.012,1.858,2.027,0.274c0.025-2.406-1.063-5.055-1.566-7.395
					c-0.402-1.868-1.629-5.036-1.141-6.93C469.924,29.861,469.428,29.709,469.207,29.997L469.207,29.997z"/>
			</g>
		</g>
		<g>
			<g>
				<path fill="#333333" d="M467.16,38.072c-0.025-0.069-0.049-0.139-0.072-0.208c-0.09,0.067-0.178,0.135-0.268,0.203
					c0.408,0.135,0.854,0.055,1.281,0.101c0.625,0.067,1.248,0.136,1.871,0.211c0.83,0.101,2.398,0.615,3.07-0.084
					c0.365-0.382,0.305-0.873,0-1.26c-0.523-0.666-2.307-0.527-3.07-0.57c-1.037-0.059-2.16-0.049-3.105,0.437
					c-0.346,0.178-0.395,0.606-0.242,0.923c0.076,0.157,0.111,0.291,0.211,0.436C466.973,38.461,467.266,38.29,467.16,38.072
					L467.16,38.072z"/>
			</g>
		</g>
		<g>
			<g>
				<path fill="#333333" d="M476.896,40.036c0.979,0.321,2.279,0.285,2.982-0.589c0.572-0.714,0.539-1.734-0.037-2.436
					c-1.762-2.141-4.91,0.549-5.605,2.364c-0.924,2.413,0.879,4.633,2.98,5.628c1.008,0.477,2.176,0.747,3.287,0.551
					c0.945-0.167,2.285-0.911,2.162-2.047c-0.059-0.552-0.631-1.025-1.178-0.676c-0.428,0.272-0.639,0.73-1.143,0.895
					c-0.605,0.199-1.283,0.047-1.875-0.13c-1.268-0.379-2.541-1.341-2.84-2.681c-0.287-1.293,1.498-3.474,2.854-3.151
					c0.301,0.072,0.506,0.441,0.379,0.73c-0.301,0.683-1.346,0.712-1.967,0.804C476.492,39.357,476.57,39.929,476.896,40.036
					L476.896,40.036z"/>
			</g>
		</g>
	</g>
	<g>
		<g>
			<g>
				<path fill="#333333" d="M175.637,278.538c2.163,0.969,4.515-0.808,3.046-3.056c-1.635-2.503-5.193-0.511-5.986,1.687
					c-0.924,2.561,0.629,5.494,2.686,7.024c1.887,1.404,5.908,1.65,6.104-1.526c0.029-0.471-0.563-0.801-0.952-0.547
					c-0.621,0.405-1.064,1.1-1.781,1.336c-0.65,0.214-1.356-0.06-1.924-0.369c-1.423-0.779-2.415-2.327-2.721-3.893
					c-0.293-1.506,1.023-3.756,2.773-3.368c0.561,0.124,0.898,0.695,0.889,1.234c-0.016,0.782-1.455,0.657-1.917,0.677
					C175.463,277.755,175.22,278.351,175.637,278.538L175.637,278.538z"/>
			</g>
		</g>
		<g>
			<g>
				<path fill="#333333" d="M189.141,275.88c-2.323-1.936-4.776,0.816-6.101,2.698c-1.104,1.567-1.303,3.651-0.008,5.141
					c0.996,1.145,2.814,1.389,4.188,0.924c1.904-0.645,2.629-2.616,2.533-4.476c-0.061-1.188-1.656-1.125-1.799,0
					c-0.371,2.943,3.308,5.747,5.697,3.299c0.199-0.205,0.143-0.659-0.186-0.705c-1.784-0.252-4.051-0.061-3.713-2.594
					c-0.6,0-1.199,0-1.799,0c0.086,1.945-1.369,3.712-3.361,2.532c-0.808-0.479-0.778-1.444-0.545-2.23
					c0.508-1.702,2.819-4.526,4.697-3.91C189.12,276.682,189.456,276.142,189.141,275.88L189.141,275.88z"/>
			</g>
		</g>
		<g>
			<g>
				<path fill="#333333" d="M198.11,277.41c0.123,0.116,0.646,0.423,0.621,0.585c0.414,0,0.83,0,1.244,0
					c-0.461-1.848-2.275-2.524-3.906-3.111c-0.45-0.162-0.846,0.182-1,0.567c-1.132,2.841-1.873,6.61,0.23,9.174
					c1.902,2.322,6.888,1.404,6.601-1.958c-0.037-0.436-0.589-0.775-0.934-0.387c-0.718,0.811-1.512,1.735-2.653,1.856
					c-1.195,0.125-2.063-1.038-2.38-2.026c-0.63-1.964,0.014-4.363,0.704-6.228c-0.334,0.189-0.667,0.378-1,0.567
					c1.347,0.424,2.353,0.805,3.158,2.043c0.465,0.713,1.441,0.098,1.115-0.652c-0.355-0.818-0.645-0.63-1.385-0.971
					C198.19,276.716,197.809,277.124,198.11,277.41L198.11,277.41z"/>
			</g>
		</g>
		<g>
			<g>
				<path fill="#333333" d="M202.838,271.167c-0.215,2.184,0.479,4.207,0.989,6.31c0.346,1.423,0.385,2.96,0.655,4.404
					c0.168,0.897,0.587,5.002,2.392,4.295c0.326-0.129,0.478-0.338,0.52-0.684c0.021-0.17-0.018-0.293-0.072-0.455
					c-0.098-0.283-0.435-0.467-0.713-0.289c0.361-0.23,0.973,0.963,0.547-0.086c-0.157-0.387-0.273-0.789-0.392-1.188
					c-0.355-1.198-0.595-2.436-0.818-3.664c-0.542-2.974-1.511-5.811-2.095-8.779C203.73,270.418,202.892,270.628,202.838,271.167
					L202.838,271.167z"/>
			</g>
		</g>
		<g>
			<g>
				<path fill="#333333" d="M200.538,276.981c0.801,0.889,2.15,0.958,3.285,1.012c1.672,0.08,3.506-0.335,4.5-1.756
					c0.431-0.615-0.403-1.389-1.01-1.01c-1.045,0.654-2.281,0.886-3.49,0.998c-0.563,0.053-1.132,0.061-1.696,0.057
					c-0.187,0-0.914,0.068-1.049,0C200.624,276.052,200.195,276.601,200.538,276.981L200.538,276.981z"/>
			</g>
		</g>
		<g>
			<g>
				<path fill="#333333" d="M215.163,278.582c-0.945-4.417-9.756,1.136-5.9,5.396c1.209,1.338,3.393,1.76,5.066,1.23
					c2.331-0.74,2.813-3.149,2.414-5.287c-0.146-0.79-1.328-0.895-1.687-0.221c-0.692,1.302-1.149,3.161,0.064,4.344
					c1.038,1.012,2.813,1.338,3.986,0.375c0.171-0.139,0.126-0.471-0.072-0.564c-0.679-0.314-1.409-0.304-2.074-0.675
					c-1.081-0.605-0.835-1.603-0.311-2.548c-0.563-0.073-1.124-0.147-1.687-0.221c0.424,2.523-1.568,3.846-3.799,2.63
					c-3.229-1.762,2.365-6.395,3.412-4.213C214.741,279.172,215.235,278.921,215.163,278.582L215.163,278.582z"/>
			</g>
		</g>
		<g>
			<g>
				<path fill="#333333" d="M220.455,278.667c0.22,2.35,0.765,4.74,1.702,6.905c0.233,0.539,1.152,0.518,1.393,0
					c0.971-2.093,1.038-4.747,2.899-6.31c-0.47-0.124-0.938-0.248-1.407-0.371c0.346,1.521,0.472,3.076,1.253,4.463
					c0.641,1.136,2.242,2.114,3.379,1.132c0.192-0.166,0.157-0.469,0-0.641c-0.782-0.852-1.757-0.837-2.243-2.069
					c-0.416-1.057-0.506-2.232-0.766-3.334c-0.154-0.658-0.951-0.761-1.407-0.371c-2.046,1.746-2.063,4.389-3.101,6.688
					c0.465,0,0.928,0,1.393,0c-1.016-1.994-1.471-4.144-2.313-6.198C221.083,278.183,220.409,278.181,220.455,278.667
					L220.455,278.667z"/>
			</g>
		</g>
		<g>
			<g>
				<path fill="#333333" d="M229.627,270.44c-1.675,1.398-0.687,4.276-0.228,6.068c0.793,3.096,2.074,6.34,3.658,9.122
					c0.513,0.898,2.008,0.297,1.684-0.709c-0.187-0.582-0.311-0.898-0.564-1.444c-0.113-0.245-0.533-0.245-0.646,0
					c-0.254,0.546-0.378,0.862-0.564,1.444c0.561-0.074,1.122-0.146,1.684-0.221c-1.254-2.133-2.232-4.44-3.115-6.747
					c-0.496-1.299-2.557-5.73-1.454-7.061C230.345,270.575,229.946,270.175,229.627,270.44L229.627,270.44z"/>
			</g>
		</g>
		<g>
			<g>
				<path fill="#333333" d="M227.354,276.792c-0.458,0.002-0.913-0.035-1.366-0.109c-0.244-0.051-0.574,0.067-0.619,0.351
					c-0.025,0.16-0.07,0.313-0.093,0.475c-0.044,0.327,0.073,0.638,0.419,0.737c1.941,0.561,4.063,0.416,6.023,0.022
					c1.365-0.274,3.521-1.023,3.683-2.601c0.03-0.295-0.271-0.549-0.547-0.547c-1.224,0.01-2.405,1.117-3.597,1.479
					c-1.789,0.543-3.563,0.486-5.403,0.469c0.192,0.146,0.386,0.293,0.578,0.44c-0.022-0.161-0.067-0.314-0.093-0.475
					c-0.117,0.206-0.234,0.413-0.352,0.618c0.453-0.074,0.908-0.111,1.366-0.109C227.837,277.528,227.837,276.806,227.354,276.792
					L227.354,276.792z"/>
			</g>
		</g>
		<g>
			<g>
				<path fill="#333333" d="M240.738,276.942c-1.463-2.094-6.665,0.463-4.049,2.403c1.992,1.478,4.71,1.53,6.71,2.757
					c0.349,0.215,0.679,0.475,0.867,0.844c0.004,0.008,0.01,0.005-0.004,0.068c-0.016,0.068-0.043,0.108-0.113,0.185
					c-0.451,0.496-1.418,0.732-2.133,0.813c-0.919,0.104-1.926,0.043-2.761-0.385c-0.866-0.444-1.089-1.382-1.585-2.146
					c-0.12-0.184-0.417-0.264-0.577-0.074c-0.819,0.971-0.476,2.184,0.319,3.044c0.764,0.826,1.918,1.141,2.992,1.283
					c1.664,0.219,4.541-0.168,5.338-1.928c1.049-2.319-2.389-3.722-4.043-4.216c-1.271-0.381-2.604-0.688-3.788-1.304
					c-0.195-0.101-0.37-0.212-0.52-0.372c0.198,0.212-0.148,0.436,0.171,0.211c0.613-0.43,1.848-0.982,2.565-0.574
					C240.496,277.761,241.005,277.323,240.738,276.942L240.738,276.942z"/>
			</g>
		</g>
		<g>
			<g>
				<path fill="#333333" d="M164.084,274.76c0.101-0.192,0.116-0.329,0.21-0.545c-0.282-0.076-0.564-0.152-0.846-0.229
					c0.028,3.362,2.102,6.363,2.461,9.666c0.617-0.166,1.232-0.334,1.85-0.5c-0.666-1.509-0.472-3.611-0.25-5.193
					c0.111-0.793,0.283-1.611,0.668-2.318c0.329-0.605,0.903,0.504,1.154,0.874c0.754,1.11,2.57,0.062,1.808-1.057
					c-1.63-2.389-4.001-2.948-5.192,0.089c-0.971,2.469-1.016,6.181,0.099,8.607c0.468,1.018,2.216,0.283,1.813-0.766
					c-1.219-3.18-2.172-6.527-3.564-9.631c-0.241-0.536-1.012-0.071-0.783,0.457c0.092,0.216,0.108,0.353,0.209,0.545
					C163.792,274.896,164.012,274.896,164.084,274.76L164.084,274.76z"/>
			</g>
		</g>
	</g>
	<g>
		<g>
			<g>
				<path fill="#333333" d="M496.874,136.363c-0.489,0.615-0.304,1.314-0.123,2.027c0.353,1.383,0.994,2.744,0.974,4.193
					c-0.014,0.96,1.56,1.218,1.709,0.231c0.278-1.831,0.348-3.654,0.885-5.446c0.199-0.666,0.49-1.553,1.111-1.943
					c0.613-0.386,1.818,1.081,2.243,1.38c0.747,0.526,1.473-0.46,1.144-1.144c-0.578-1.202-1.904-2.253-3.284-2.24
					c-1.16,0.01-1.991,0.979-2.488,1.92c-1.101,2.082-1.609,5.143-1.288,7.474c0.569-0.077,1.14-0.154,1.709-0.231
					c-0.117-1.084-0.497-2.052-0.939-3.04c-0.408-0.909-1.108-1.927-1.118-2.96C497.405,136.334,497.052,136.138,496.874,136.363
					L496.874,136.363z"/>
			</g>
		</g>
		<g>
			<g>
				<path fill="#333333" d="M510.395,135.071c-3.181-1.423-4.924,2.575-4.047,5.11c0.791,2.283,3.372,3.73,5.68,2.882
					c1.675-0.616,3.322-2.375,3.123-4.276c-0.267-2.556-3.9-3.496-5.832-2.176c-0.419,0.287-0.308,0.816,0.131,1
					c0.847,0.355,1.811,0.303,2.694,0.543c0.465,0.125,0.839,0.412,0.925,0.689c0.082,0.262-0.03,0.656-0.242,1.03
					c-0.254,0.449-0.647,0.796-1.085,1.06c-1.188,0.715-2.23,0.166-3.086-0.75c-0.646-0.691-0.724-1.771-0.469-2.631
					c0.294-0.988,1.151-1.24,2.066-1.396C510.742,136.073,510.852,135.275,510.395,135.071L510.395,135.071z"/>
			</g>
		</g>
		<g>
			<g>
				<path fill="#333333" d="M522.311,137.209c0.098-0.191,0.192-0.385,0.284-0.58c0.159-0.337,0.07-0.649-0.228-0.866
					c-1.936-1.412-4.456,0.836-5.153,2.555c-0.898,2.219,0.939,4.41,2.881,5.129c2.504,0.926,4.918-1.393,5.729-3.527
					c1.221-3.207,1.078-6.814,0.204-10.094c-0.283-1.061-1.902-0.835-1.901,0.258c0.003,3.108-0.18,6.512,1.055,9.438
					c0.842,1.996,4.049,5.148,6.223,2.872c0.202-0.212,0.149-0.53-0.089-0.688c-0.856-0.562-1.936-0.437-2.859-0.925
					c-1.165-0.615-1.63-2.13-1.937-3.303c-0.626-2.387-0.474-4.951-0.457-7.395c-0.634,0.086-1.268,0.172-1.901,0.258
					c0.721,2.785,0.813,5.707-0.052,8.47c-0.556,1.775-2.226,3.417-4.131,2.371c-0.837-0.46-1.027-1.501-0.857-2.338
					c0.025-0.124,2.545-3.048,2.732-1.694C521.884,137.365,522.221,137.392,522.311,137.209L522.311,137.209z"/>
			</g>
		</g>
		<g>
			<g>
				<path fill="#333333" d="M532.909,134.767c-2.598,1.43-1.753,5.346,0.165,7.087c3.61,3.276,5.572-3.068,5.916-5.523
					c0.165-1.174-1.364-1.637-1.791-0.494c-0.688,1.843-0.598,3.571,0.625,5.142c1.108,1.422,3.441,1.82,4.952,0.916
					c0.279-0.168,0.202-0.557-0.086-0.657c-1.133-0.395-2.322-0.478-3.296-1.263c-1.141-0.92-0.857-2.457-0.404-3.644
					c-0.597-0.165-1.194-0.329-1.791-0.494c-0.179,1.206-0.998,6.584-3.159,4.422c-1.262-1.263-1.316-3.45-0.628-4.989
					C533.557,134.945,533.254,134.577,532.909,134.767L532.909,134.767z"/>
			</g>
		</g>
		<g>
			<g>
				<path fill="#333333" d="M551.385,128.793c-0.103-0.095-0.035,1.396-0.016,1.666c0.118,1.644,0.389,3.298,0.603,4.932
					c0.342,2.604,0.583,6.319,2.433,8.383c0.657,0.734,1.909-0.034,1.632-0.95c-0.187-0.617-0.292-0.887-0.57-1.457
					c-0.137-0.281-0.605-0.281-0.742,0c-0.278,0.57-0.384,0.84-0.57,1.457c0.544-0.144,1.088-0.287,1.632-0.431
					c-1.772-2.187-1.959-6.366-2.478-9.028c-0.244-1.257-0.231-4.299-1.563-5.037C551.455,128.167,551.131,128.56,551.385,128.793
					L551.385,128.793z"/>
			</g>
		</g>
		<g>
			<g>
				<path fill="#333333" d="M550.595,134.224c0.02,0.003,0.039,0.006,0.06,0.01c-0.032,0.237-0.064,0.475-0.097,0.712
					c0.21,0.014-0.298-0.278-0.042,0.013c0.139,0.156,0.281,0.223,0.486,0.254c0.609,0.09,1.213,0.131,1.83,0.088
					c1.157-0.082,2.838-0.128,3.644-1.096c0.378-0.453,0.185-1.334-0.53-1.28c-1.123,0.085-2.225,0.505-3.344,0.674
					c-0.525,0.079-1.096,0.138-1.6,0.312c-0.235,0.082-0.37,0.125-0.528,0.332c-0.14,0.184,0.301-0.047,0.084-0.021
					c-0.452,0.054-0.478,0.748,0,0.726c0.013-0.001,0.024-0.001,0.037-0.003C551.058,134.901,551.057,134.267,550.595,134.224
					L550.595,134.224z"/>
			</g>
		</g>
		<g>
			<g>
				<path fill="#333333" d="M561.419,134.894c-0.821-1.23-2.527-1.418-3.563-0.32c-1.228,1.304,0.139,3.262,1.311,4.02
					c1.188,0.769,2.941,0.777,3.972,1.763c0.341,0.326-1.675,1.342-1.87,1.387c-1.288,0.299-1.64-0.745-2.375-1.458
					c-0.214-0.206-0.498-0.129-0.663,0.086c-1.289,1.682,1.338,2.975,2.66,3.03c1.481,0.062,3.775-1.272,3.845-2.923
					c0.063-1.466-1.609-2.006-2.73-2.398c-0.763-0.266-1.545-0.486-2.233-0.922c-0.415-0.262-1.198-1.223-0.765-1.752
					c0.436-0.531,1.402-0.236,1.898,0.002C561.218,135.557,561.645,135.233,561.419,134.894L561.419,134.894z"/>
			</g>
		</g>
		<g>
			<g>
				<path fill="#333333" d="M546.769,136.257c0.087,0,0.174,0,0.26,0c0.121,0.213,0.242,0.426,0.363,0.639
					c0.229-0.611-0.354-1.729-0.758-2.184c-0.82-0.921-1.954-0.739-2.917-0.153c-1.96,1.192-2.443,3.524-1.534,5.534
					c0.782,1.73,2.389,3.193,4.206,3.764c1.727,0.541,4.193-0.719,3.553-2.815c-0.243-0.794-1.198-0.835-1.647-0.216
					c-0.548,0.754-0.354,1.266-1.349,1.012c-1.032-0.262-1.961-1.121-2.557-1.97c-0.63-0.897-1-1.985-0.415-2.995
					c0.186-0.32,1.022-1.293,1.431-1.076c0.355,0.188,0.54,0.82,0.732,1.15c0.174,0.298,0.483,0.379,0.803,0.327
					c0.337-0.054,0.493-0.251,0.6-0.567C547.685,136.273,547.073,135.916,546.769,136.257L546.769,136.257z"/>
			</g>
		</g>
		<g>
			<g>
				<path fill="#333333" d="M484.853,135.5c-1.15,0.457-1.034,3.926-1.141,4.929c-0.27,2.536-0.636,5.851,0.613,8.196
					c0.565,1.064,2.412,0.32,1.968-0.829c-0.195-0.506-0.357-0.96-0.712-1.373c-0.155-0.181-0.497-0.181-0.652,0
					c-0.354,0.413-0.517,0.867-0.712,1.373c0.692,0,1.384,0,2.076,0c-0.924-2.734-0.745-5.702-0.712-8.553
					C485.584,138.952,485.855,135.103,484.853,135.5L484.853,135.5z"/>
			</g>
		</g>
		<g>
			<g>
				<path fill="#333333" d="M483.29,135.981c-0.216-1.076,2.365-0.819,3.069-0.789c1.417,0.062,3.084,0.118,4.167,1.121
					c1.416,1.312,0.72,2.686-0.738,3.5c-0.658,0.368-1.426,0.502-2.171,0.494c-0.808-0.007-1.385-0.56-2.136-0.713
					c-0.667-0.136-1.168,0.392-1.048,1.048c0.795,4.32,12.848,0.416,7.748-5.457c-1.661-1.913-4.661-1.902-6.975-1.646
					c-1.14,0.126-4.533,1.334-2.479,2.874C483.022,136.634,483.349,136.271,483.29,135.981L483.29,135.981z"/>
			</g>
		</g>
	</g>
	<g>
		<g>
			<g>
				<path fill="#699C52" d="M497.599,259.796c1.457-0.203,2.659-1.614,1.492-2.946c-1.177-1.344-2.948-0.975-3.843,0.45
					c-1.222,1.947-0.832,4.833,1.089,6.135c2.067,1.402,4.834,0.133,6.277-1.535c0.526-0.609-0.371-1.502-0.885-0.885
					c-2.081,2.502-6.235,2.453-6.072-1.521c0.046-1.118,0.782-3.044,2.225-2.423c1.436,0.618,0.519,1.651-0.471,2.048
					C496.986,259.288,497.15,259.858,497.599,259.796L497.599,259.796z"/>
			</g>
		</g>
		<g>
			<g>
				<path fill="#699C52" d="M503.891,257.404c1.393,1.789,1.68,3.781,2.292,5.899c0.215,0.74,1.323,0.589,1.335-0.181
					c0.014-1.004-0.552-5.021,0.622-5.468c1.304-0.495,2.278,2.722,2.575,3.478c0.415,1.06,0.88,2.105,1.965,2.563
					c0.523,0.221,0.881-0.465,0.671-0.872c-0.449-0.87-1.017-1.583-1.386-2.513c-0.36-0.905-0.696-1.795-1.244-2.607
					c-0.635-0.94-1.985-1.821-3.147-1.372c-2.192,0.846-1.474,5.04-1.415,6.792c0.445-0.061,0.89-0.12,1.335-0.181
					c-0.706-2.062-1.125-4.907-3.12-6.163C503.958,256.518,503.632,257.073,503.891,257.404L503.891,257.404z"/>
			</g>
		</g>
		<g>
			<g>
				<path fill="#699C52" d="M516.399,259.841c1.489,0.597,2.466-0.822,2.008-2.163c-0.423-1.239-1.954-2.09-2.893-0.825
					c-1.302,1.752-1.004,4.531,0.651,5.923c1.682,1.414,4.375,1.092,5.809-0.516c0.583-0.654-0.277-1.458-0.939-0.939
					c-1.044,0.818-2.095,1.253-3.405,0.806c-1.313-0.449-1.764-1.936-1.584-3.181c0.072-0.507,0.406-2.101,1.06-1.183
					c0.584,0.82,0.047,1.109-0.706,1.311C515.986,259.183,516.055,259.703,516.399,259.841L516.399,259.841z"/>
			</g>
		</g>
		<g>
			<g>
				<path fill="#699C52" d="M523.24,257.389c1.243,1.548,2.176,3.42,2.887,5.265c0.449-0.189,0.898-0.379,1.348-0.568
					c-0.786-1.128-1.432-2.502-1.415-3.899c0.026-2.132,2.219-0.577,3.229-0.974c0.169-0.066,0.342-0.217,0.321-0.422
					c-0.101-0.99-1.208-1.343-2.084-1.398c-1.041-0.066-1.954,0.29-2.528,1.195c-1.224,1.932-0.011,4.606,1.204,6.242
					c0.57,0.767,1.658,0.13,1.273-0.744c-0.86-1.954-2.089-3.818-3.705-5.228C523.399,256.535,522.939,257.015,523.24,257.389
					L523.24,257.389z"/>
			</g>
		</g>
		<g>
			<g>
				<path fill="#699C52" d="M534.726,257.569c-2.051-2.543-5.564,2.431-3.636,4.748c0.776,0.933,2.256,1.098,3.344,0.774
					c1.585-0.472,2.05-2.171,1.93-3.635c-0.075-0.922-1.447-1.222-1.687-0.229c-0.601,2.497,2.584,4.101,4.219,5.319
					c1.243,0.926,2.778,2.162,1.775,3.792c-1.73,2.815-4.937-0.447-5.842-2.072c-0.169-0.302-0.581-0.201-0.686,0.09
					c-1.563,4.34,6.977,6.592,8.502,2.011c0.608-1.829-0.448-3.304-1.774-4.477c-0.929-0.82-4.876-2.763-4.538-4.206
					c-0.563-0.076-1.125-0.152-1.687-0.229c0.114,1.305-0.362,2.426-1.844,2.035c-2.02-0.533,0.268-3.759,1.619-3.4
					C534.746,258.178,534.913,257.802,534.726,257.569L534.726,257.569z"/>
			</g>
		</g>
		<g>
			<g>
				<path fill="#699C52" d="M542.87,257.374c-0.314,1.838,0.272,5.604,2.912,5.298c2.399-0.279,2.406-3.78,1.864-5.438
					c-0.278-0.854-1.771-0.758-1.647,0.223c0.465,3.676,4.055,5.663,6.369,8.173c1.541,1.673,1.901,4.311-0.976,4.462
					c-2.091,0.109-3.769-1.199-4.742-2.915c-0.278-0.491-1.02-0.261-1.033,0.28c-0.11,4.29,7.24,5.94,9.401,2.512
					c3.052-4.844-6.786-8.626-7.372-12.734c-0.539,0.148-1.078,0.297-1.617,0.445c0.344,0.997,0.637,2.636-0.385,3.391
					c-0.734,0.542-1.847-3.295-2.203-3.771C543.3,257.109,542.922,257.075,542.87,257.374L542.87,257.374z"/>
			</g>
		</g>
		<g>
			<g>
				<path fill="#699C52" d="M558.963,258.48c0.011,0.005,0.021,0.01,0.031,0.015c-0.05-0.19-0.1-0.38-0.149-0.57
					c-0.427,0.582-0.147,1.695-0.092,2.366c0.075,0.907,0.094,1.916,0.432,2.771c0.489,1.234,2.175,0.763,1.975-0.545
					c-0.062-0.4,0.072-0.641-0.195-0.996c-0.178-0.234-0.451-0.343-0.728-0.19c-0.401,0.223-0.704,0.559-0.948,0.942
					c0.624,0.082,1.247,0.163,1.871,0.244c-0.199-0.894-0.374-1.793-0.585-2.685c-0.206-0.865-0.368-1.866-1.292-2.109
					C558.841,257.608,558.526,258.278,558.963,258.48L558.963,258.48z"/>
			</g>
		</g>
		<g>
			<g>
				<path fill="#699C52" d="M558.741,252.386c-0.075-0.039-0.151-0.077-0.228-0.115c-0.199-0.101-0.479-0.144-0.674,0
					c-0.702,0.517-0.372,1.472,0.428,1.666c0.449,0.109,0.808-0.28,0.717-0.718c-0.024-0.118-0.064-0.246-0.124-0.352
					c-0.213-0.373,0.104,0.12-0.024,0.254C559.033,252.913,559.02,252.525,558.741,252.386L558.741,252.386z"/>
			</g>
		</g>
		<g>
			<g>
				<path fill="#699C52" d="M564.838,257.423c-1.213,0.123-2.94,0.687-1.936,2.189c0.826,1.238,2.455,1.858,3.616,2.725
					c-0.076-0.289-0.152-0.578-0.228-0.866c-0.639,1.082-1.722,1.005-2.787,0.814c-0.539-0.096-1.154,0.618-0.607,1.043
					c1.409,1.095,3.686,0.224,4.488-1.219c0.18-0.321,0.059-0.664-0.228-0.866c-0.777-0.552-1.629-0.993-2.419-1.527
					c-0.357-0.242-0.774-0.528-1.04-0.878c-0.305-0.401,1.005-0.637,1.237-0.693C565.331,258.048,565.255,257.381,564.838,257.423
					L564.838,257.423z"/>
			</g>
		</g>
		<g>
			<g>
				<path fill="#699C52" d="M582.745,257.379c-3.324-1.465-6.526,4.232-3.782,6.51c0.89,0.737,2.254,0.9,3.286,0.369
					c1.438-0.74,1.863-2.283,1.71-3.801c-0.1-0.996-1.661-1.018-1.574,0c0.185,2.186,3.436,4.602,5.174,2.387
					c0.335-0.426,0.035-1.031-0.532-0.914c-1.221,0.252-2.937,0.125-3.067-1.473c-0.524,0-1.05,0-1.574,0
					c0.123,1.261-0.463,3.119-2.112,2.394c-0.628-0.276-0.807-0.887-0.79-1.521c0.042-1.622,1.527-2.865,3.022-3.063
					C582.907,258.213,583.237,257.596,582.745,257.379L582.745,257.379z"/>
			</g>
		</g>
		<g>
			<g>
				<path fill="#699C52" d="M586.629,252.335c-0.646,0.951,0.453,3.263,0.711,4.219c0.586,2.175,1.169,4.365,1.959,6.478
					c0.403,1.078,2.027,0.67,1.746-0.482c-0.366-1.503-0.061-4.689,2.318-3.623c1.173,0.525,1.572,2.136,0.476,2.935
					c-0.865,0.631-1.944,0.547-2.903,0.242c-0.219-0.068-0.48,0.12-0.465,0.354c0.218,3.363,8.805,0.474,4.973-4.133
					c-1.179-1.417-2.994-1.769-4.621-0.925c-2.041,1.059-2.033,3.736-1.523,5.632c0.582-0.161,1.164-0.321,1.746-0.482
					c-0.84-2.094-1.514-4.265-2.279-6.388c-0.356-0.988-0.746-3.488-1.863-3.938C586.798,252.182,586.685,252.252,586.629,252.335
					L586.629,252.335z"/>
			</g>
		</g>
		<g>
			<g>
				<path fill="#699C52" d="M600.512,258.105c-0.561-1.378-2.583-1.086-3.445-0.17c-0.509,0.541-0.705,1.631-0.146,2.2
					c0.393,0.4,0.939,0.599,1.451,0.795c1.093,0.418,2.622,0.611,3.513,1.41c0.167,0.15-0.063-0.058,0.006-0.181
					c-0.149,0.268-0.495,0.326-0.762,0.381c-0.613,0.124-1.624-0.052-1.996-0.615c-0.401-0.606-1.274-0.351-1.325,0.358
					c-0.146,2.013,2.771,2.28,4.159,1.913c1.435-0.381,2.36-2.094,1.127-3.219c-1.04-0.948-2.67-1.235-3.966-1.67
					c-0.264-0.089-0.524-0.181-0.773-0.306c-0.002-0.001-0.268-0.179-0.13-0.065c-0.133-0.109,0.009,0.323,0.18,0.137
					c0.175-0.189,0.575-0.167,0.804-0.16c0.308,0.009,0.61-0.061,0.912-0.12C600.395,258.74,600.62,258.374,600.512,258.105
					L600.512,258.105z"/>
			</g>
		</g>
		<g>
			<g>
				<path fill="#699C52" d="M607.455,258.957c-0.049-0.09-0.101-0.292-0.124-0.076c0.027-0.256-0.192-0.457-0.407-0.535
					c-0.878-0.32-1.67,0.304-2.153,0.986c-0.64,0.905-0.868,1.938-0.693,3.027c0.345,2.144,3.001,2.562,4.656,1.858
					c1.427-0.606,2.542-2.214,2.608-3.756c0.083-1.919-2.12-2.727-3.621-1.876c-0.172,0.098-0.301,0.306-0.291,0.506
					c0.003,0.053,0.007,0.105,0.021,0.156c0.055,0.191,0.211,0.362,0.409,0.409c0.454,0.108,1.021,0.119,1.413,0.324
					c0.22,0.115,0.227,0.238,0.229,0.48c0.009,0.644-0.593,1.515-1.267,1.963c-0.657,0.438-1.846,0.585-2.35-0.193
					c-0.369-0.569-0.007-2.833,0.89-2.796c0.196,0.008,0.38-0.112,0.479-0.275c0.004-0.006,0.008-0.012,0.011-0.017
					c-0.129,0.074-0.259,0.148-0.389,0.223c0.072,0.018,0.141,0.042,0.208,0.073C607.371,259.556,607.578,259.186,607.455,258.957
					L607.455,258.957z"/>
			</g>
		</g>
		<g>
			<g>
				<path fill="#699C52" d="M611.891,259.404c1.143,1.048,2.313,2.1,2.838,3.6c0.448-0.261,0.897-0.522,1.346-0.783
					c-0.837-0.813-1.394-1.945-0.826-3.077c0.62-1.234,1.851-0.374,2.776-0.151c0.503,0.12,0.827-0.379,0.626-0.815
					c-0.846-1.834-3.469-1.744-4.583-0.253c-1.314,1.759-0.606,4.037,0.868,5.436c0.671,0.636,1.699-0.167,1.265-0.976
					c-0.882-1.64-2.271-2.656-3.827-3.604C611.988,258.545,611.554,259.097,611.891,259.404L611.891,259.404z"/>
			</g>
		</g>
		<g>
			<g>
				<path fill="#699C52" d="M619.083,252.457c-0.188,3.696,2.494,7.168,3.548,10.574c0.298,0.961,1.8,0.806,1.78-0.241
					c-0.016-0.863-0.114-1.72-0.108-2.584c0.017-2.576,2.469-0.445,3.017,0.063c1.681,1.565-1.297,2.38-2.538,1.715
					c-0.424-0.227-0.924,0.144-0.804,0.618c0.858,3.398,7.539,0.494,5.355-2.821c-0.821-1.245-3.088-3.168-4.744-2.652
					c-2.554,0.795-2.092,3.578-1.99,5.661c0.594-0.08,1.187-0.161,1.78-0.241c-1.212-3.53-3.268-6.665-4.467-10.204
					C619.758,251.891,619.107,251.975,619.083,252.457L619.083,252.457z"/>
			</g>
		</g>
		<g>
			<g>
				<path fill="#699C52" d="M630.912,260.235c1.398,0.996,3.945,0.229,2.992-1.778c-0.769-1.621-2.789-1.755-4.02-0.62
					c-1.756,1.617-1.259,3.79,0.547,5.095c0.838,0.606,1.933,0.872,2.952,0.883c1.024,0.012,2.517-0.391,2.821-1.498
					c0.119-0.433-0.224-0.952-0.7-0.92c-0.569,0.038-1.007,0.371-1.544,0.529c-0.58,0.17-1.197,0.07-1.763-0.098
					c-0.797-0.236-2.057-1.093-1.613-2.08c0.286-0.635,1.022-1.279,1.646-0.703c0.298,0.276-0.021,0.24,0.273,0.02
					c-0.356,0.268-1.046,0.157-1.469,0.229C630.549,259.375,630.59,260.006,630.912,260.235L630.912,260.235z"/>
			</g>
		</g>
		<g>
			<g>
				<path fill="#699C52" d="M642.057,259.396c-0.459-2.221-3.137-0.257-3.803,0.705c-1.225,1.768-0.433,4.584,1.688,5.135
					c2,0.52,4.133-1.402,4.944-3.028c1.235-2.477,0.602-6.366-0.979-8.515c-0.511-0.693-1.509-0.444-1.587,0.43
					c-0.218,2.435,1.124,5.211,2.442,7.17c0.938,1.394,3.605,3.671,5.003,1.511c0.282-0.437-0.087-1.046-0.594-1.034
					c-0.808,0.019-1.27,0.228-1.979-0.336c-0.707-0.563-1.188-1.386-1.632-2.156c-0.838-1.455-1.681-3.434-1.537-5.154
					c-0.529,0.144-1.058,0.286-1.587,0.43c1.519,2.037,2.073,5.938,0.244,7.973c-0.612,0.681-1.803,1.439-2.741,1.004
					c-0.968-0.447-0.661-1.982-0.344-2.643c0.475-0.986,1.277-1.111,2.242-1.203C641.99,259.669,642.088,259.551,642.057,259.396
					L642.057,259.396z"/>
			</g>
		</g>
		<g>
			<g>
				<path fill="#699C52" d="M493.22,282.392c-0.502,1.684,0.132,3.713,0.188,5.45c0.035,1.082,1.388,1.137,1.767,0.239
					c0.222-0.525,0.158-1.104-0.263-1.51c-0.156-0.151-0.384-0.141-0.541,0c-0.186,0.165-0.313,0.337-0.518,0.494
					c0.451,0.259,0.902,0.518,1.354,0.776c-0.003-1.862-0.49-3.739-1.144-5.45C493.914,281.999,493.351,281.952,493.22,282.392
					L493.22,282.392z"/>
			</g>
		</g>
		<g>
			<g>
				<path fill="#699C52" d="M493.49,277.508c0.002-0.039,0.005-0.078,0.007-0.117c-0.051,0.123-0.102,0.246-0.153,0.369
					c0.039-0.032,0.078-0.065,0.117-0.099c0.471-0.401,0.078-1.174-0.486-1.174s-0.957,0.772-0.486,1.174
					c0.039,0.033,0.078,0.066,0.117,0.099c-0.052-0.123-0.103-0.246-0.153-0.369c0.002,0.039,0.005,0.078,0.007,0.117
					C492.499,278.172,493.45,278.172,493.49,277.508L493.49,277.508z"/>
			</g>
		</g>
		<g>
			<g>
				<path fill="#699C52" d="M498.162,282.258c-0.743,0.51-0.65,1.481-0.63,2.284c0.032,1.327,0.306,2.636,0.292,3.966
					c-0.009,0.901,1.448,1.143,1.605,0.217c0.266-1.563,0.274-4.099,1.431-5.307c0.402-0.421,1.276,1.956,1.361,2.318
					c0.272,1.157,0.542,2.767,1.92,3.041c0.431,0.086,0.938-0.286,0.769-0.769c-0.255-0.729-0.637-1.37-0.836-2.124
					c-0.234-0.889-0.409-1.756-0.846-2.574c-0.548-1.027-1.886-2.052-3.073-1.485c-2.047,0.978-2.116,4.776-2.331,6.683
					c0.545,0,1.09,0,1.635,0c-0.056-0.993-0.286-1.974-0.479-2.946c-0.161-0.806-0.668-2.167-0.394-2.977
					C498.666,282.351,498.369,282.116,498.162,282.258L498.162,282.258z"/>
			</g>
		</g>
		<g>
			<g>
				<path fill="#699C52" d="M520.419,283.204c-1.987-1.2-4.324-1.469-5.877,0.529c-1.005,1.292-0.937,3.167,0.034,4.441
					c0.919,1.209,2.369,1.728,3.846,1.52c1.78-0.25,2.472-2.157,2.619-3.69c-0.586,0.079-1.171,0.158-1.757,0.237
					c0.53,1.806,3.242,3.509,4.751,1.649c0.13-0.159,0.119-0.374-0.063-0.49c-1.023-0.656-2.542-0.181-2.964-1.634
					c-0.296-1.021-1.66-0.733-1.757,0.237c-0.182,1.837-1.71,2.608-3.129,1.295c-0.619-0.572-0.668-1.366-0.436-2.126
					c0.616-2.011,2.877-1.278,4.315-0.983C520.593,284.311,520.958,283.531,520.419,283.204L520.419,283.204z"/>
			</g>
		</g>
		<g>
			<g>
				<path fill="#699C52" d="M524.416,283.004c-0.176,1.526,0.607,3.086,0.924,4.557c0.158,0.737,1.168,0.783,1.529,0.2
					c0.935-1.51,1.031-3.456,2.239-4.795c-0.465-0.06-0.93-0.119-1.396-0.18c1.185,1.619,1.773,5.489,4.434,5.302
					c0.61-0.043,1.047-0.808,0.53-1.28c-0.83-0.76-1.514-1.136-2.03-2.203c-0.449-0.929-0.776-1.88-1.398-2.715
					c-0.32-0.43-0.981-0.647-1.396-0.18c-1.331,1.5-1.581,3.446-2.429,5.205c0.51,0.067,1.02,0.134,1.529,0.2
					c-0.473-1.444-1.306-2.779-1.755-4.217C525.058,282.444,524.466,282.571,524.416,283.004L524.416,283.004z"/>
			</g>
		</g>
		<g>
			<g>
				<path fill="#699C52" d="M543.171,284.647c0.497,0.555,1.174,0.731,1.772,0.22c0.537-0.459,0.493-1.401,0.375-2.017
					c-0.138-0.719-0.571-1.459-1.271-1.738c-0.957-0.381-1.753,0.407-2.282,1.1c-1.66,2.175-0.4,4.901,1.597,6.3
					c0.875,0.612,1.95,0.883,3.001,0.704c0.896-0.152,2.31-1.382,1.633-2.35c-0.183-0.262-0.438-0.371-0.755-0.308
					c-0.583,0.119-0.636,0.684-1.089,0.961c-0.414,0.254-1.058,0.05-1.456-0.127c-1.227-0.547-2.206-1.768-2.159-3.143
					c0.016-0.47,0.754-2.385,1.268-1.436c0.168,0.311,0.216,0.718,0.205,1.066c-0.004,0.125-0.145,0.251-0.009,0.157
					c0.052-0.035-0.281-0.08-0.403-0.122C543.156,283.765,542.898,284.343,543.171,284.647L543.171,284.647z"/>
			</g>
		</g>
		<g>
			<g>
				<path fill="#699C52" d="M549.362,282.463c0.342,1.771,0.959,3.368,0.928,5.207c-0.018,1.036,1.342,1.072,1.683,0.228
					c0.454-1.126,0.386-2.467,0.569-3.653c0.05-0.322,0.11-1.123,0.398-1.342c0.468-0.355,1.021,1.222,1.078,1.428
					c0.294,1.046,0.521,2.834,1.786,3.203c0.973,0.284,1.955-0.387,1.01-1.249c-1.528-1.394-1.143-5.894-4.415-5.07
					c-2.19,0.551-1.594,4.633-2.079,6.229c0.561,0.076,1.122,0.151,1.683,0.228c-0.141-1.962-0.719-3.902-1.784-5.568
					C549.925,281.64,549.263,281.945,549.362,282.463L549.362,282.463z"/>
			</g>
		</g>
		<g>
			<g>
				<path fill="#699C52" d="M561.188,281.904c0.001,0.02,0.002,0.039,0.002,0.058c0.01,0.271,0.174,0.477,0.428,0.562
					c0.039,0.014,0.079,0.026,0.118,0.04c0.398,0.133,0.786-0.217,0.796-0.606c0.002-0.096,0.004-0.191,0.007-0.287
					c0.01-0.416-0.338-0.695-0.724-0.724c-2.399-0.176-3.963,2.336-4.061,4.472c-0.1,2.178,2.405,3.362,4.213,2.481
					c3.271-1.593,4.453-8.196,2.298-11.02c-0.405-0.531-1.533-0.667-1.66,0.217c-0.266,1.853,0.072,3.5,0.811,5.217
					c0.435,1.009,0.919,1.995,1.342,3.009c0.347,0.83,0.376,1.309,1.105,1.833c0.234,0.168,0.647,0.058,0.77-0.201
					c0.562-1.191-0.166-2.273-0.67-3.399c-0.857-1.911-1.919-3.804-1.605-5.976c-0.554,0.072-1.106,0.145-1.66,0.217
					c1.368,1.798,0.725,5.005-0.147,6.881c-0.487,1.049-1.277,1.923-2.506,1.576c-0.953-0.269-0.305-1.839-0.042-2.343
					c0.411-0.79,1.166-1.319,2.006-1.543c-0.272-0.11-0.545-0.222-0.817-0.332c0.057,0.079,0.113,0.159,0.17,0.239
					c0.075-0.287,0.15-0.573,0.226-0.86C561.396,281.494,561.18,281.675,561.188,281.904L561.188,281.904z"/>
			</g>
		</g>
		<g>
			<g>
				<path fill="#699C52" d="M571.771,282.168c-0.012,0.041-0.024,0.082-0.036,0.123c0.024-0.093,0.024-0.186,0-0.277
					c-0.032-0.116-0.112-0.255-0.197-0.339c-0.209-0.21-0.507-0.275-0.791-0.242c-0.726,0.083-1.189,0.643-1.537,1.236
					c-0.76,1.3-0.991,3.291,0.086,4.473c2.475,2.718,8.182-0.41,6.509-4.005c-0.423-0.909-1.201-1.469-2.144-1.76
					c-0.655-0.201-2.022-0.132-2.251,0.698c-0.232,0.846,0.795,0.802,1.32,0.885c0.945,0.149,1.713,0.898,1.471,1.902
					c-0.327,1.36-2.993,2.038-3.768,0.796c-0.338-0.541,0.062-1.627,0.227-2.163c0.214-0.692,0.499-0.623,0.967-0.995
					c-0.154,0.02-0.31,0.04-0.464,0.06c0.05,0.022,0.1,0.046,0.148,0.068C571.594,282.758,571.968,282.478,571.771,282.168
					L571.771,282.168z"/>
			</g>
		</g>
		<g>
			<g>
				<path fill="#699C52" d="M579.777,278.67c0.079-0.229,0.158-0.459,0.236-0.688c-0.376-0.158-0.753-0.317-1.129-0.476
					c-0.502,2.111-0.201,4.338,0.107,6.462c0.142,0.97,0.244,2.993,1.603,2.998c0.515,0.002,0.913-0.423,0.927-0.927
					c0.022-0.892-0.492-1.958-0.649-2.85c-0.331-1.879-0.352-3.836-0.796-5.684c-0.22-0.914-1.65-0.235-1.129,0.476
					c0.078,0.229,0.157,0.459,0.236,0.688C579.201,279.053,579.76,279.053,579.777,278.67L579.777,278.67z"/>
			</g>
		</g>
		<g>
			<g>
				<path fill="#699C52" d="M577.539,281.043c-0.007-0.001-0.014-0.002-0.02-0.002c0.098,0.236,0.195,0.473,0.294,0.709
					c-0.173,0.172-0.477,0.029-0.271,0.149c0.131,0.077,0.321,0.125,0.467,0.153c0.447,0.087,0.932,0.09,1.386,0.08
					c0.827-0.018,2.294,0.205,2.918-0.466c0.282-0.304,0.307-0.785,0-1.086c-0.767-0.749-2.406-0.241-3.333-0.107
					c-0.427,0.062-0.99,0.157-1.346,0.417c-0.078,0.027-0.146,0.07-0.205,0.13c-0.291,0.29,0.167-0.009,0.006,0.025
					c-0.125,0.027-0.201,0.103-0.274,0.2c-0.192,0.257,0.069,0.632,0.359,0.625c0.006,0,0.013,0,0.02,0
					C578.087,281.858,578.056,281.104,577.539,281.043L577.539,281.043z"/>
			</g>
		</g>
		<g>
			<g>
				<path fill="#699C52" d="M582.949,277.67c0.126,3.258,1.205,6.384,1.25,9.668c0.014,1.043,1.643,1.326,1.861,0.252
					c0.377-1.853,0.684-3.75,1.578-5.438c-0.5,0.064-1,0.129-1.5,0.193c1.959,1.697,2.147,3.77,3.143,5.97
					c0.239,0.529,0.972,0.305,1.128-0.147c0.856-2.466-1.146-5.585-2.919-7.174c-0.446-0.398-1.189-0.369-1.5,0.193
					c-1.02,1.849-1.377,3.846-1.758,5.898c0.621,0.084,1.241,0.168,1.861,0.252c-0.104-3.314-0.9-6.724-2.101-9.81
					C583.788,277.004,582.925,277.029,582.949,277.67L582.949,277.67z"/>
			</g>
		</g>
		<g>
			<g>
				<path fill="#699C52" d="M594.48,284.115c1.437,0.191,2.753-1.189,2.156-2.585c-0.568-1.328-2.17-1.137-2.961-0.155
					c-1.191,1.479-1.085,3.645,0.245,4.985c1.268,1.276,3.639,1.318,4.828-0.088c0.582-0.688-0.202-1.947-1.032-1.338
					c-0.688,0.506-1.351,0.917-2.211,0.52c-0.916-0.424-1.205-1.419-1.005-2.348c0.025-0.117,0.54-1.382,0.802-1.03
					c0.416,0.559-0.748,1.011-1.047,1.209C593.86,283.549,594.051,284.058,594.48,284.115L594.48,284.115z"/>
			</g>
		</g>
		<g>
			<g>
				<path fill="#699C52" d="M601.622,281.761c-0.911-0.658-0.999,0.94-0.888,1.511c0.267,1.365,0.789,2.652,1.212,3.972
					c0.308,0.957,1.763,0.799,1.768-0.239c0.005-1.008-0.175-2.012-0.212-3.02c-0.01-0.259-0.008-0.94,0.068-1.035
					c-0.08,0.1-0.208,0.039,0.062,0.125c0.335,0.106,0.608,0.321,0.958,0.409c0.656,0.165,1.418-0.607,0.953-1.239
					c-1.031-1.401-3.247-1.605-3.809,0.285c-0.43,1.446,0.126,3.017,0.181,4.475c0.589-0.08,1.178-0.159,1.768-0.239
					c-0.327-0.89-0.739-1.749-1.101-2.624c-0.266-0.643-0.569-2.032-1.191-2.417c0.037,0.142,0.074,0.283,0.111,0.425
					c-0.055,0.033-0.109,0.065-0.163,0.099C601.67,282.394,601.919,281.975,601.622,281.761L601.622,281.761z"/>
			</g>
		</g>
		<g>
			<g>
				<path fill="#699C52" d="M606.437,282.559c0.678,1.467,1.222,2.804,1.221,4.445c0,1.063,1.625,1.061,1.646,0
					c0.021-1.056-0.436-3.253,0.608-3.928c-0.346-0.045-0.69-0.09-1.036-0.134c0.671,0.816,0.98,1.851,1.657,2.675
					c0.33,0.401,1.151,0.313,1.362-0.176c0.567-1.317,0.719-2.865,1.823-3.865c-0.424-0.055-0.848-0.109-1.271-0.163
					c1.096,1.531,1.303,3.304,2.14,4.918c0.314,0.607,1.174,0.278,1.208-0.327c0.102-1.804-0.957-3.945-1.949-5.409
					c-0.308-0.453-0.859-0.519-1.271-0.163c-1.306,1.122-1.489,2.644-2.177,4.135c0.454-0.059,0.908-0.117,1.362-0.176
					c-0.677-0.81-0.993-1.84-1.675-2.657c-0.234-0.28-0.738-0.329-1.036-0.134c-1.778,1.172-1.478,3.541-1.392,5.404
					c0.549,0,1.098,0,1.646,0c-0.165-1.883-0.813-3.631-2.18-4.976C606.751,281.661,606.235,282.123,606.437,282.559
					L606.437,282.559z"/>
			</g>
		</g>
		<g>
			<g>
				<path fill="#699C52" d="M616.755,282.112c0.281,1.014,0.33,2.093,0.513,3.128c0.076,0.426,0.221,0.848,0.463,1.208
					c0.141,0.208,0.307,0.283,0.531,0.375c0.106,0.044,0.778-0.002,0.449-0.002c0.393,0,0.708-0.567,0.35-0.845
					c0.171,0.133,0.121,0.393,0.037,0.011c-0.042-0.194-0.145-0.34-0.237-0.51c-0.194-0.354-0.294-0.796-0.409-1.182
					c-0.257-0.862-0.441-1.742-0.954-2.497C617.245,281.428,616.627,281.65,616.755,282.112L616.755,282.112z"/>
			</g>
		</g>
		<g>
			<g>
				<path fill="#699C52" d="M616.095,277.833c0.002,0.878,0.373,2.061,1.252,2.104c-0.187-0.107-0.373-0.214-0.56-0.321
					c0.035,0.05,0.071,0.1,0.106,0.15c0.345,0.486,1.038,0.297,1.091-0.296c0.005-0.061,0.008-0.121,0.011-0.182
					c-0.063,0.153-0.127,0.306-0.19,0.459c0.204-0.163,0.246-0.435,0.251-0.678c-0.035,0.131-0.07,0.263-0.106,0.394
					c0.368-0.707-0.115-1.39-0.4-2.024C617.219,276.703,616.093,277.104,616.095,277.833L616.095,277.833z"/>
			</g>
		</g>
		<g>
			<g>
				<path fill="#699C52" d="M622.438,282.234c-0.104,0.305-0.203,0.61-0.312,0.914c-0.139,0.387,0.155,0.755,0.499,0.878
					c0.172,0.062,0.34,0.088,0.521,0.106c0.446,0.047,0.776-0.397,0.795-0.795c0.068-1.422-0.712-2.82-2.295-2.527
					c-1.438,0.267-2.234,1.978-2.339,3.269c-0.142,1.74,1.167,3.336,2.808,3.715c1.468,0.339,3.572,0.083,4.449-1.285
					c0.18-0.28,0.183-0.706,0-0.986c-0.013-0.02-0.025-0.039-0.038-0.059c-0.237-0.363-0.575-0.458-0.986-0.401
					c-0.402,0.056-0.526,0.394-0.827,0.587c-0.355,0.229-0.759,0.324-1.169,0.402c-1.033,0.194-1.854-0.167-2.346-1.065
					c-0.413-0.754-0.115-1.716,0.444-2.296c0.614-0.636,0.65,0.056,0.709,0.647c0.265-0.265,0.53-0.53,0.795-0.795
					c-0.182,0.019-0.35,0.045-0.521,0.106c0.292,0.166,0.585,0.332,0.878,0.499c-0.108-0.304-0.208-0.609-0.312-0.914
					C623.064,281.862,622.564,281.862,622.438,282.234L622.438,282.234z"/>
			</g>
		</g>
		<g>
			<g>
				<path fill="#699C52" d="M635.546,282.588c0.947,1.407,1.435,3.055,1.961,4.651c0.274,0.834,1.495,0.684,1.525-0.206
					c0.049-1.414-0.597-2.731-0.761-4.12c-0.094-0.792,0.192-2.269,1.2-2.342c0.653-0.048,1.235,0.762,1.795,1.015
					c0.51,0.231,1.071-0.141,0.941-0.723c-0.474-2.116-3.306-2.525-4.672-1.097c-1.981,2.069-0.353,4.93-0.057,7.267
					c0.482-0.131,0.965-0.262,1.447-0.392c-0.944-1.46-1.311-3.441-2.693-4.584C635.875,281.762,635.249,282.147,635.546,282.588
					L635.546,282.588z"/>
			</g>
		</g>
		<g>
			<g>
				<path fill="#699C52" d="M644.239,284.238c2.344,3.45,6.376-3.74,2.212-4.133c-1.043-0.098-2.261,0.634-2.896,1.395
					c-0.868,1.039-0.898,2.48-0.521,3.722c0.377,1.24,1.312,2.303,2.469,2.866c1.346,0.656,3.536-0.398,4.591-1.218
					c0.543-0.422,0.034-1.169-0.503-1.214c-0.926-0.078-1.695,0.517-2.537,0.826c-1.087,0.4-1.862-0.545-2.324-1.391
					c-0.761-1.395-0.13-3.218,1.573-3.389c0.642-0.065,0.318,0.981,0.176,1.293c-0.41,0.894-0.923,1-1.779,0.646
					C644.367,283.505,644.05,283.96,644.239,284.238L644.239,284.238z"/>
			</g>
		</g>
		<g>
			<g>
				<path fill="#699C52" d="M654.532,282.195c0.254-0.389,0.3-0.514,0.452-0.961c0.103-0.3-0.059-0.714-0.347-0.854
					c-3.771-1.819-6.51,4.337-4.217,7.022c0.977,1.145,2.42,1.233,3.728,0.653c1.517-0.673,2.13-2.493,2.054-4.023
					c-0.631,0-1.262,0-1.893,0c0.136,1.725,2.325,4.989,4.228,2.949c0.182-0.194,0.139-0.482-0.08-0.626
					c-1.065-0.698-2.17-0.763-2.255-2.323c-0.066-1.211-1.94-1.224-1.893,0c0.044,1.104-0.763,3.128-2.214,2.294
					c-0.677-0.39-0.602-1.728-0.501-2.353c0.222-1.364,1.321-2.225,2.661-2.186c-0.243-0.186-0.486-0.37-0.729-0.555
					c0.152,0.447,0.198,0.572,0.452,0.961C654.114,282.401,654.397,282.401,654.532,282.195L654.532,282.195z"/>
			</g>
		</g>
		<g>
			<g>
				<path fill="#699C52" d="M662.238,282.033c-0.006,0.166-0.221,0.311-0.263,0.498c-0.071,0.324,0.094,0.705,0.445,0.783
					c0.104,0.022,0.209,0.047,0.313,0.071c0.4,0.092,0.74-0.12,0.875-0.496c0.416-1.166,0.155-2.954-1.507-2.586
					c-1.5,0.331-2.351,1.874-2.509,3.286c-0.425,3.795,6.473,5.728,6.947,1.683c0.081-0.685-0.81-0.867-1.227-0.508
					c-0.707,0.606-1.138,1.154-2.162,0.975c-0.824-0.146-1.563-0.682-1.804-1.496c-0.226-0.766,0.148-1.548,0.68-2.083
					c0.14-0.141,0.542-0.279,0.401-0.299c-0.112-0.016-0.148-0.207-0.137-0.014c0.016,0.23-0.012,0.438-0.055,0.663
					c0.166-0.165,0.331-0.331,0.496-0.496c-0.104,0.024-0.209,0.049-0.313,0.071c0.261,0.148,0.521,0.297,0.783,0.445
					c-0.042-0.188-0.257-0.332-0.263-0.498C662.925,281.58,662.255,281.58,662.238,282.033L662.238,282.033z"/>
			</g>
		</g>
		<g>
			<g>
				<path fill="#699C52" d="M667.024,276.855c0.704,2.167,1.005,4.558,1.351,6.804c0.174,1.134,0.326,3.003,1.247,3.806
					c0.428,0.373,1.132,0.359,1.429-0.184c0.477-0.872-0.521-2.653-0.723-3.546c-0.561-2.491-0.909-5.103-2.232-7.331
					C667.763,275.843,666.815,276.212,667.024,276.855L667.024,276.855z"/>
			</g>
		</g>
		<g>
			<g>
				<path fill="#699C52" d="M667.223,283.331c0.035-0.038,0.072-0.077,0.108-0.116c-0.142,0.038-0.284,0.075-0.426,0.113
					c0.533,0.223,1.68-0.325,2.229-0.446c0.923-0.203,1.856-0.273,2.686-0.767c0.741-0.441,0.364-1.448-0.412-1.521
					c-1.102-0.102-2.211,0.26-3.223,0.665c-0.465,0.187-0.904,0.441-1.251,0.809c-0.116,0.123-0.215,0.276-0.307,0.419
					c-0.054,0.093-0.081,0.192-0.081,0.3c0.023,0.199,0.027,0.211,0.013,0.033C666.303,283.226,666.896,283.682,667.223,283.331
					L667.223,283.331z"/>
			</g>
		</g>
		<g>
			<g>
				<path fill="#699C52" d="M673.767,281.898c-0.377,1.249-0.097,3.445,0.938,4.354c0.879,0.771,2.165-0.489,1.293-1.293
					c-0.771-0.709-0.93-2.12-1.253-3.061C674.584,281.428,673.916,281.4,673.767,281.898L673.767,281.898z"/>
			</g>
		</g>
		<g>
			<g>
				<path fill="#699C52" d="M673.81,277.316c-0.454,0.271-0.718,0.916-0.404,1.398c0.292,0.449,0.623,0.604,1.102,0.649
					c0.389,0.037,0.771-0.368,0.747-0.747c-0.004-0.101-0.016-0.201-0.034-0.301c-0.02,0.144-0.034,0.083-0.044-0.181
					c-0.105-0.242-0.125-0.29-0.057-0.144c-0.039-0.092-0.078-0.184-0.117-0.275c0.043,0.155,0.085,0.311,0.127,0.466
					c0-0.017,0.001-0.033,0.002-0.051c-0.042,0.153-0.083,0.307-0.125,0.46c0.011-0.016,0.021-0.032,0.03-0.049
					C675.515,277.773,674.572,276.86,673.81,277.316L673.81,277.316z"/>
			</g>
		</g>
		<g>
			<g>
				<path fill="#699C52" d="M678.235,281.426c-1.582,0.839-2.181,2.565-1.045,4.061c1.129,1.485,3.155,2.104,4.939,1.648
					c1.91-0.486,3.363-2.715,2.442-4.595c-0.764-1.558-3.211-2.284-4.347-0.72c-0.204,0.281,0.078,0.612,0.364,0.635
					c0.924,0.073,1.871-0.098,2.406,0.834c0.581,1.013-0.623,2.027-1.491,2.26c-1.624,0.437-4.615-1.364-2.561-2.908
					C679.654,282.107,679.056,280.99,678.235,281.426L678.235,281.426z"/>
			</g>
		</g>
		<g>
			<g>
				<path fill="#699C52" d="M685.191,282.033c-0.021,1.537,0.343,3.137,0.891,4.566c0.315,0.822,1.372,0.834,1.684,0
					c0.607-1.626,0.821-3.719,2.592-4.49c-0.392-0.103-0.784-0.205-1.176-0.309c0.799,1.739,1.155,3.729,2.543,5.134
					c1.233,1.249,3.502,1.134,4.642-0.125c0.371-0.412,0.112-1.041-0.442-1.067c-1.614-0.078-2.643,0.607-3.638-1.065
					c-0.691-1.161-1.029-2.527-1.62-3.743c-0.222-0.458-0.773-0.483-1.176-0.309c-2.24,0.968-2.648,3.444-3.408,5.51
					c0.532-0.069,1.063-0.139,1.596-0.208c-0.695-1.325-1.042-2.786-1.744-4.095C685.742,281.474,685.196,281.648,685.191,282.033
					L685.191,282.033z"/>
			</g>
		</g>
	</g>
	<g>
		<g>
			<path fill="#699C52" d="M485.459,262.203c0.73-0.536,0.58-0.699-0.452-0.487c-0.514,0.065-1.023,0.157-1.529,0.275
				c-3.326,0.618-6.412,1.285-9.847,1.311c-5.174,0.039-10.29-0.344-15.396-1.173c-9.9-1.606-19.722-5.374-27.271-12.098
				c-0.535-0.476-1.594-0.201-1.529,0.634c0.159,2.073,0.619,3.883,1.454,5.786c0.371,0.845,1.683,0.387,1.671-0.452
				c-0.034-2.476-0.328-4.261-1.454-6.453c-0.338,0.439-0.676,0.879-1.014,1.318c2.086,0.536,4.079,0.684,6.238,0.699
				c1.159,0.008,1.158-1.789,0-1.797c-2.034-0.014-3.743-0.115-5.762-0.633c-0.789-0.203-1.37,0.623-1.014,1.318
				c0.915,1.771,1.319,3.62,1.212,5.547c0.557-0.15,1.113-0.302,1.671-0.452c-0.757-1.537-1.16-3.164-1.212-4.882
				c-0.51,0.211-1.02,0.422-1.529,0.634c7.886,7.017,17.798,10.671,28.064,12.549c8.758,1.602,20.342,2.553,28.702-1.097
				c0.537-0.234,0.197-0.952-0.269-0.993c-0.177-0.017-0.354-0.032-0.531-0.048C485.38,261.685,485.324,262.029,485.459,262.203
				L485.459,262.203z"/>
		</g>
	</g>
	<rect x="832.245" y="-41.373" fill="#1C758A" width="62.667" height="15.334"/>
	<rect x="831.66" y="-13.721" fill="#699C52" width="59.999" height="18.666"/>
	<rect x="912.993" y="-13.721" fill="#CF5044" width="64.666" height="18.666"/>
	<rect x="909.993" y="-43.054" fill="#644172" width="70.667" height="18.666"/>
	<rect x="831.117" y="12.932" fill="#9CDCEB" width="67.333" height="15.333"/>
	<rect x="915.326" y="13.198" fill="#FF8080" width="60" height="15.334"/>
</g>
</svg>
