<?xml version="1.0" encoding="utf-8"?>
<!-- Generator: Adobe Illustrator 16.0.0, SVG Export Plug-In . SVG Version: 6.00 Build 0)  -->
<!DOCTYPE svg PUBLIC "-//W3C//DTD SVG 1.1//EN" "http://www.w3.org/Graphics/SVG/1.1/DTD/svg11.dtd">
<svg version="1.1" xmlns="http://www.w3.org/2000/svg" xmlns:xlink="http://www.w3.org/1999/xlink" x="0px" y="0px" width="654px"
	 height="417px" viewBox="0 0 654 417" enable-background="new 0 0 654 417" xml:space="preserve">
<g id="Graph">
	<g>
		<g>
			<path fill="#333333" d="M110.704,8.998c-1.059,14.394-0.557,29-0.569,43.428c-0.012,15.138-0.024,30.276-0.037,45.414
				c-0.024,29.646-0.024,59.291-0.021,88.937c0.007,60.124-1.337,120.434,0.727,180.527c0.026,0.771,1.169,0.771,1.195,0
				c2.041-59.436,0.72-119.083,0.726-178.549c0.003-29.646,0.005-59.293-0.019-88.94c-0.012-15.138-0.025-30.277-0.037-45.415
				c-0.012-15.082,0.537-30.356-0.57-45.402C112.033,8.1,110.77,8.1,110.704,8.998L110.704,8.998z"/>
		</g>
	</g>
	<g>
		<g>
			<path fill="#333333" d="M108.321,369.005c66.28,1.153,132.614,0.58,198.902,0.621c66.243,0.041,132.486,0.037,198.729,0.022
				c47.11-0.01,94.276,0.652,141.367-0.884c0.559-0.019,0.559-0.849,0-0.867c-65.613-2.14-131.405-0.886-197.047-0.88
				c-66.229,0.008-132.457,0.014-198.686,0.046c-47.749,0.024-95.524-0.236-143.267,0.594
				C107.452,367.672,107.452,368.99,108.321,369.005L108.321,369.005z"/>
		</g>
	</g>
	<g>
		<g>
			<g>
				<path fill="#644172" d="M310.826,296.794c4.21,0.816,9.309,0.94,13.511,0.045c0.337-0.071,0.337-0.606,0-0.678
					c-4.202-0.896-9.301-0.771-13.511,0.045C310.534,296.263,310.534,296.737,310.826,296.794L310.826,296.794z"/>
			</g>
		</g>
		<g>
			<g>
				<path fill="#644172" d="M332.035,296.771c3,0.721,6.149,0.587,9.222,0.605c3.587,0.021,7.295,0.343,10.826-0.372
					c0.501-0.102,0.501-0.908,0-1.01c-3.049-0.617-6.188-0.398-9.287-0.381c-3.562,0.021-7.281-0.222-10.761,0.614
					C331.766,296.294,331.766,296.706,332.035,296.771L332.035,296.771z"/>
			</g>
		</g>
		<g>
			<g>
				<path fill="#644172" d="M361.448,296.756c2.719,0.568,5.503,0.529,8.271,0.554c3.087,0.027,6.778,0.688,9.687-0.426
					c0.379-0.145,0.379-0.623,0-0.768c-2.557-0.979-5.595-0.462-8.306-0.438c-3.216,0.028-6.491-0.096-9.652,0.565
					C361.193,296.297,361.193,296.703,361.448,296.756L361.448,296.756z"/>
			</g>
		</g>
		<g>
			<g>
				<path fill="#644172" d="M387.079,296.816c4.506,0.633,9.395,0.876,13.898,0.166c0.479-0.076,0.479-0.889,0-0.965
					c-4.504-0.71-9.393-0.467-13.898,0.166C386.764,296.228,386.764,296.772,387.079,296.816L387.079,296.816z"/>
			</g>
		</g>
		<g>
			<g>
				<path fill="#644172" d="M412.749,296.733c3.083,1.037,7.271,0.791,10.417,0.105c0.336-0.073,0.336-0.604,0-0.678
					c-3.146-0.686-7.334-0.932-10.417,0.105C412.519,296.344,412.519,296.656,412.749,296.733L412.749,296.733z"/>
			</g>
		</g>
		<g>
			<g>
				<path fill="#644172" d="M432.192,296.824c3.788,0.912,8.705,0.955,12.486-0.008c0.314-0.08,0.314-0.553,0-0.633
					c-3.781-0.963-8.698-0.92-12.486-0.008C431.87,296.254,431.87,296.746,432.192,296.824L432.192,296.824z"/>
			</g>
		</g>
	</g>
	<g>
		<g>
			<g>
				<path fill="#644172" d="M470.225,57.847c6.52,1.14,13.551,0.556,20.096-0.058c0.372-0.035,0.372-0.543,0-0.578
					c-6.545-0.614-13.576-1.197-20.096-0.058C469.88,57.214,469.88,57.786,470.225,57.847L470.225,57.847z"/>
			</g>
		</g>
		<g>
			<g>
				<path fill="#644172" d="M504.32,57.836c5.815,0.568,12.33,1.102,18.102,0.033c0.367-0.068,0.367-0.67,0-0.738
					c-5.771-1.069-12.286-0.535-18.102,0.033C503.888,57.206,503.888,57.794,504.32,57.836L504.32,57.836z"/>
			</g>
		</g>
		<g>
			<g>
				<path fill="#644172" d="M531.225,57.847c5.594,1.184,11.932,0.688,17.596,0.185c0.684-0.061,0.684-1.002,0-1.063
					c-5.664-0.503-12.002-1-17.596,0.185C530.881,57.227,530.881,57.773,531.225,57.847L531.225,57.847z"/>
			</g>
		</g>
		<g>
			<g>
				<path fill="#644172" d="M124.495,57.883c5.8,0.027,11.719,0.485,17.5,0.211c0.765-0.036,0.765-1.151,0-1.188
					c-5.781-0.274-11.7,0.184-17.5,0.211C124.001,57.12,124.001,57.88,124.495,57.883L124.495,57.883z"/>
			</g>
		</g>
		<g>
			<g>
				<path fill="#644172" d="M152.457,57.658c2.886,0.72,5.864,0.559,8.822,0.583c3.365,0.028,7.058,0.504,10.321-0.379
					c0.358-0.097,0.358-0.626,0-0.724c-2.847-0.77-5.943-0.403-8.878-0.391c-3.408,0.014-6.938-0.235-10.265,0.595
					C152.299,57.381,152.299,57.619,152.457,57.658L152.457,57.658z"/>
			</g>
		</g>
		<g>
			<g>
				<path fill="#644172" d="M186.413,57.816c5.166,1.578,11.812,0.694,17.087,0.027c0.442-0.056,0.442-0.632,0-0.688
					c-5.275-0.667-11.921-1.55-17.087,0.027C186.1,57.279,186.1,57.721,186.413,57.816L186.413,57.816z"/>
			</g>
		</g>
		<g>
			<g>
				<path fill="#644172" d="M215.093,57.161c-0.31-0.088-0.623-0.16-0.94-0.217c-0.823-0.167-0.99,1.073-0.153,1.132
					c3.76,0.263,7.54,0.258,11.308,0.282c3.249,0.021,6.66,0.441,9.811-0.429c0.426-0.117,0.426-0.741,0-0.858
					c-3.15-0.87-6.562-0.45-9.811-0.429c-3.768,0.024-7.547,0.02-11.308,0.282c-0.837,0.059-0.67,1.299,0.153,1.132
					c0.317-0.057,0.63-0.129,0.94-0.217C215.43,57.753,215.43,57.247,215.093,57.161L215.093,57.161z"/>
			</g>
		</g>
		<g>
			<g>
				<path fill="#644172" d="M248.5,57.945c4.214,0.522,9.464,0.995,13.612-0.039c0.403-0.101,0.403-0.713,0-0.813
					c-4.148-1.033-9.398-0.561-13.612-0.039C247.927,57.125,247.927,57.875,248.5,57.945L248.5,57.945z"/>
			</g>
		</g>
		<g>
			<g>
				<path fill="#644172" d="M277.444,57.704c2.592,0.948,5.637,0.655,8.369,0.691c2.946,0.039,5.932,0.223,8.829-0.382
					c0.509-0.106,0.509-0.918,0-1.024c-2.903-0.606-5.877-0.401-8.829-0.382c-2.724,0.017-5.785-0.254-8.369,0.691
					C277.244,57.37,277.244,57.63,277.444,57.704L277.444,57.704z"/>
			</g>
		</g>
		<g>
			<g>
				<path fill="#644172" d="M310,57.109c-0.163-0.037-0.315-0.013-0.456,0.073c-0.632-1.083-1.927,0.817-0.544,0.948
					c3.224,0.305,6.457,0.305,9.692,0.361c2.767,0.048,6.003,0.665,8.493-0.674c0.239-0.128,0.239-0.505,0-0.634
					c-2.19-1.178-4.664-0.695-7.108-0.686c-3.69,0.013-7.402,0.025-11.077,0.373c-1.383,0.131-0.088,2.031,0.544,0.948
					c0.141,0.085,0.293,0.11,0.456,0.073C310.504,57.88,310.504,57.12,310,57.109L310,57.109z"/>
			</g>
		</g>
		<g>
			<g>
				<path fill="#644172" d="M341.017,57.44c-0.271-0.042-0.529-0.442-0.846-0.559c-0.793-0.29-1.151,1.123-0.341,1.237
					c5.054,0.717,11.316,1.07,16.308-0.122c0.493-0.118,0.493-0.876,0-0.994c-4.992-1.192-11.253-0.839-16.308-0.122
					c-0.81,0.115-0.452,1.527,0.341,1.237c0.317-0.116,0.575-0.517,0.846-0.559C341.077,57.551,341.077,57.449,341.017,57.44
					L341.017,57.44z"/>
			</g>
		</g>
		<g>
			<g>
				<path fill="#644172" d="M368,57.938c3.496,0.269,6.995,0.347,10.5,0.402c2.982,0.047,6.281,0.593,9.104-0.463
					c0.371-0.139,0.371-0.614,0-0.753c-2.822-1.056-6.121-0.51-9.104-0.463c-3.505,0.055-7.004,0.133-10.5,0.402
					C367.437,57.106,367.437,57.894,368,57.938L368,57.938z"/>
			</g>
		</g>
		<g>
			<g>
				<path fill="#644172" d="M401.5,57.898c7.096,0.927,14.4,0.586,21.5-0.016c0.493-0.042,0.493-0.724,0-0.766
					c-7.1-0.602-14.404-0.943-21.5-0.016C400.988,57.168,400.988,57.832,401.5,57.898L401.5,57.898z"/>
			</g>
		</g>
		<g>
			<g>
				<path fill="#644172" d="M436.417,57.801c3.477,0.476,6.963,0.478,10.468,0.527c4.061,0.058,8.245,0.442,12.244-0.361
					c0.464-0.093,0.464-0.841,0-0.935c-3.457-0.695-7.002-0.436-10.514-0.386c-4.075,0.058-8.154-0.001-12.198,0.552
					C436.117,57.24,436.117,57.76,436.417,57.801L436.417,57.801z"/>
			</g>
		</g>
	</g>
	<g>
		<g>
			<path fill="#644172" d="M558.894,57.876c2.453,0.553,4.992,0.485,7.498,0.556c2.838,0.08,6.034,0.512,8.736-0.458
				c0.468-0.168,0.468-0.781,0-0.949c-2.395-0.859-5.012-0.502-7.525-0.472c-2.888,0.034-5.882-0.067-8.709,0.57
				C558.52,57.208,558.52,57.792,558.894,57.876L558.894,57.876z"/>
		</g>
	</g>
	<g>
		<g>
			<path fill="#644172" d="M586.441,57.704c3.116,1.001,6.624,0.716,9.868,0.738c3.453,0.024,6.923,0.262,10.316-0.475
				c0.464-0.101,0.464-0.833,0-0.935c-3.394-0.736-6.863-0.499-10.316-0.475c-3.244,0.022-6.752-0.263-9.868,0.738
				C586.24,57.361,586.24,57.639,586.441,57.704L586.441,57.704z"/>
		</g>
	</g>
	<g>
		<g>
			<path fill="#644172" d="M619.885,57.907c5.011,1.148,11.226,1.086,16.256,0.113c0.517-0.1,0.517-0.94,0-1.04
				c-5.03-0.973-11.245-1.035-16.256,0.113C619.481,57.186,619.481,57.814,619.885,57.907L619.885,57.907z"/>
		</g>
	</g>
	<g>
		<g>
			<path fill="#644172" d="M312.384,157.061c4.21,0.816,9.309,0.94,13.511,0.045c0.337-0.071,0.337-0.606,0-0.678
				c-4.202-0.896-9.301-0.771-13.511,0.045C312.092,156.529,312.092,157.004,312.384,157.061L312.384,157.061z"/>
		</g>
	</g>
	<g>
		<g>
			<path fill="#644172" d="M333.592,157.038c3,0.721,6.149,0.587,9.222,0.605c3.587,0.021,7.295,0.343,10.826-0.372
				c0.501-0.102,0.501-0.908,0-1.01c-3.049-0.617-6.188-0.398-9.287-0.381c-3.562,0.021-7.281-0.222-10.761,0.614
				C333.323,156.561,333.323,156.973,333.592,157.038L333.592,157.038z"/>
		</g>
	</g>
	<g>
		<g>
			<path fill="#644172" d="M363.005,157.022c2.719,0.568,5.503,0.529,8.271,0.554c3.087,0.027,6.778,0.688,9.687-0.426
				c0.379-0.145,0.379-0.623,0-0.768c-2.557-0.979-5.595-0.462-8.306-0.438c-3.216,0.028-6.491-0.096-9.652,0.565
				C362.751,156.563,362.751,156.97,363.005,157.022L363.005,157.022z"/>
		</g>
	</g>
	<g>
		<g>
			<path fill="#644172" d="M388.637,157.083c4.506,0.633,9.395,0.876,13.898,0.166c0.479-0.076,0.479-0.889,0-0.965
				c-4.504-0.71-9.393-0.467-13.898,0.166C388.321,156.494,388.321,157.039,388.637,157.083L388.637,157.083z"/>
		</g>
	</g>
</g>
<g id="TS">
	<path fill="none" stroke="#1C758A" stroke-width="3" stroke-miterlimit="10" d="M141.995,156.767h146.502
		c0,0,22.538,2.265,23.771-12.751c0,0,31.86-169.009,87.439-30.516c45.549,113.5,41.717,183.132,75.602,183h144.689"/>
	<g>
		<g>
			<g>
				<path fill="#CF5044" d="M322.002,130.176c-0.199-0.105-0.397-0.211-0.596-0.317c-0.661-0.786-1.635,0.815-0.602,1.034
					c3.844,0.814,9.276-0.507,12.602-2.514c0.867-0.523,0.281-1.785-0.668-1.585c-1.869,0.393-3.676,1.258-5.523,1.782
					c-2.053,0.583-4.124,0.907-6.247,1.102c0.146,0.352,0.292,0.704,0.438,1.056c0.199-0.105,0.397-0.211,0.596-0.317
					C322.122,130.391,322.122,130.203,322.002,130.176L322.002,130.176z"/>
			</g>
		</g>
		<g>
			<g>
				<path fill="#CF5044" d="M321.413,131.407c0.074-0.056,0.148-0.113,0.223-0.169c-0.195-0.256-0.39-0.513-0.585-0.769
					c-0.693,1.927-0.582,4.106-0.786,6.135c-0.25,2.478-0.642,4.925-1.2,7.352c-0.202,0.877,0.608,1.939,1.58,1.58
					c2.946-1.089,6.499,1.169,9.37-0.368c1.299-0.695,0.381-2.987-1.017-2.413c-2.782,1.141-6.155-0.832-9.035,0.304
					c0.526,0.526,1.053,1.053,1.58,1.58c0.873-4.204,2.123-10.028,0.68-14.169c-0.208-0.597-0.949-0.556-1.171,0
					c-0.17,0.426-0.105,0.499,0.118,0.907C321.212,131.458,321.35,131.486,321.413,131.407L321.413,131.407z"/>
			</g>
		</g>
		<g>
			<g>
				<path fill="#CF5044" d="M322.03,137.762c0.664,0.424,1.525,0.458,2.293,0.552c1.083,0.132,2.148,0.294,3.232,0.129
					c1.141-0.173,1.141-2.121,0-2.294c-0.972-0.148-1.915-0.032-2.886,0.087c-0.865,0.105-1.889,0.115-2.639,0.594
					C321.683,137.054,321.683,137.54,322.03,137.762L322.03,137.762z"/>
			</g>
		</g>
		<g>
			<g>
				<path fill="#CF5044" d="M337.903,142.204c0.211,0.045,0.409,0.122,0.618,0.176c0.299,0.078,0.51-0.141,0.547-0.417
					c0.017-0.016,0.035-0.032,0.052-0.049c0.146-0.317,0.042-0.731-0.335-0.825c-1.664-0.412-2.897-0.324-4.158,0.933
					c-0.899,0.897-1.119,2.282-0.597,3.424c0.452,0.987,1.394,1.709,2.502,1.702c1.439-0.009,2.22-1.432,2.585-2.627
					c-0.553-0.075-1.106-0.15-1.66-0.225c-0.154,1.283,0.665,2.415,1.64,3.149c0.909,0.685,2.572,0.584,2.78-0.747
					c0.08-0.507-0.469-1.196-1.012-0.777c-0.383,0.295-0.512,0.43-0.938,0.099c-0.408-0.317-0.884-0.947-0.81-1.5
					c0.142-1.051-1.286-1.517-1.63-0.449c-0.166,0.515-0.44,1.355-1.101,1.362c-0.468,0.004-0.793-0.594-0.902-0.964
					c-0.188-0.633,0.197-1.21,0.632-1.626c0.77-0.734,1.713-0.51,2.668-0.671c-0.211-0.086-0.423-0.172-0.634-0.258
					c0.018,0.017,0.035,0.033,0.052,0.049c0.106-0.139,0.212-0.278,0.318-0.417c-0.209,0.054-0.406,0.131-0.618,0.176
					C337.664,141.773,337.664,142.153,337.903,142.204L337.903,142.204z"/>
			</g>
		</g>
		<g>
			<g>
				<path fill="#CF5044" d="M344.219,142.264c0.048,0.014,0.138,0.224,0.201,0.287c0.196,0.197,0.451,0.298,0.717,0.343
					c0.363,0.061,0.821-0.161,0.784-0.597c-0.108-1.275-0.911-2.473-2.32-1.818c-1.329,0.618-2.046,2.042-2.034,3.46
					c0.012,1.395,0.921,2.831,2.261,3.295c1.324,0.459,3.031-0.229,2.996-1.771c-0.011-0.492-0.503-0.723-0.919-0.528
					c-0.454,0.212-0.934,0.703-1.462,0.566c-0.573-0.147-0.894-0.776-1.038-1.294c-0.21-0.753,0.03-1.419,0.507-2.002
					c0.159-0.193,0.347-0.394,0.594-0.461c-0.122,0.033,0.149,0.52,0.2,0.717c0.199-0.261,0.398-0.522,0.597-0.784
					c-0.338,0.012-0.667-0.037-1-0.027C343.949,141.661,343.877,142.164,344.219,142.264L344.219,142.264z"/>
			</g>
		</g>
		<g>
			<g>
				<path fill="#CF5044" d="M347.191,136.174c-0.464,1.782-0.193,3.86,0.07,5.655c0.24,1.635,0.464,4.225,1.787,5.389
					c0.737,0.649,1.685-0.153,1.305-1.007c-0.121-0.271-0.183-0.399-0.358-0.607c-0.167-0.199-0.55-0.199-0.718,0
					c-0.176,0.208-0.238,0.337-0.358,0.607c0.516,0.14,1.032,0.28,1.548,0.419c-0.186-1.563-0.971-3.144-1.333-4.703
					c-0.439-1.892-0.521-3.892-1.053-5.753C347.956,135.741,347.307,135.727,347.191,136.174L347.191,136.174z"/>
			</g>
		</g>
		<g>
			<g>
				<path fill="#CF5044" d="M345.355,140.776c0.752,0.371,1.569,0.406,2.397,0.427c0.99,0.026,2.202,0.043,3.149-0.254
					c0.924-0.291,1.018-1.718,0-1.962c-0.894-0.214-1.8-0.021-2.699,0.102c-0.963,0.132-1.979,0.273-2.848,0.729
					C345.001,140.004,344.986,140.594,345.355,140.776L345.355,140.776z"/>
			</g>
		</g>
	</g>
	<g>
		<g>
			<path fill="#699C52" d="M380.337,165.827c-1.229,18.837-0.441,37.795-0.142,56.666c0.311,19.555,0.441,39.113,0.782,58.667
				c0.925,0,1.851,0,2.775,0c-0.469-5.354-4-9.298-6.252-13.997c-0.738-1.538-2.963-0.195-2.271,1.328
				c2.047,4.504,4.368,8.753,5.195,13.687c0.202,1.205,1.854,1.189,2.414,0.316c3.54-5.534,4.798-10.811,4.868-17.334
				c-0.895,0-1.789,0-2.684,0c0.555,1.918-0.229,3.484-2.351,4.697c0.509,0.207,1.018,0.414,1.525,0.621
				c-0.485-0.907-0.853-1.857-1.103-2.853c-0.215-0.704-1.265-0.743-1.461,0c-0.437,1.648-0.474,2.683,0.231,4.216
				c0.229,0.499,1.011,0.828,1.525,0.621c3.269-1.317,4.779-3.722,4.315-7.303c-0.215-1.663-2.669-1.783-2.684,0
				c-0.051,6.035-1.204,10.875-4.466,16c0.805,0.105,1.609,0.211,2.414,0.316c-0.883-5.186-3.367-9.559-5.471-14.313
				c-0.757,0.442-1.515,0.886-2.271,1.328c1.941,4.151,5.382,7.956,5.748,12.669c0.137,1.765,2.746,1.81,2.775,0
				c0.319-19.547-0.198-39.123-0.551-58.667c-0.34-18.883-0.224-37.826-1.475-56.666
				C381.668,164.932,380.396,164.931,380.337,165.827L380.337,165.827z"/>
		</g>
	</g>
	<g>
		<g>
			<g>
				<path fill="#699C52" d="M402.841,222.732c0.033-0.054,0.066-0.107,0.099-0.161c-0.049-0.378-0.097-0.757-0.146-1.135
					c-3.318,3.511-6.98,6.889-8.646,11.524c-0.415,1.156,1.202,1.997,2.006,1.168c3.97-4.096,6.948-8.916,10.229-13.552
					c-0.718,0-1.437,0-2.154,0c3.477,5.017,6.413,10.38,9.903,15.389c0.512-0.665,1.023-1.33,1.535-1.996
					c-3.428-0.887-6.992-1.115-10.517-1.285c-1.922-0.093-5.615-0.913-7.141,0.633c-0.343,0.348-0.342,0.912,0,1.26
					c1.367,1.389,4.345,0.783,6.099,0.831c3.623,0.098,7.313,0.286,10.836,1.183c1.075,0.273,2.254-0.973,1.535-1.996
					c-3.512-4.996-6.571-10.289-10.097-15.277c-0.563-0.796-1.593-0.802-2.154,0c-3.136,4.482-5.983,9.134-9.771,13.114
					c0.669,0.39,1.337,0.778,2.006,1.168c1.464-4.476,5.354-7.211,7.467-11.287c0.392-0.756-0.51-1.396-1.135-0.876
					c-0.569,0.473-0.504,0.507-0.381,1.24C402.445,222.874,402.757,222.908,402.841,222.732L402.841,222.732z"/>
			</g>
		</g>
		<g>
			<g>
				<path fill="#699C52" d="M420.26,220.899c-1.843,2.199-1.482,5.912-1.402,8.603c0.037,1.246,0.034,6.663,2.451,5.937
					c0.566-0.17,0.848-0.811,0.462-1.288c0.042,0.655,0.104,0.825,0.188,0.511c0.091-0.273,0.014-0.551-0.057-0.815
					c-0.188-0.705-0.378-1.385-0.501-2.107c-0.312-1.836-0.393-3.741-0.436-5.6c-0.031-1.39-0.247-3.377,0.195-4.715
					C421.325,220.926,420.607,220.483,420.26,220.899L420.26,220.899z"/>
			</g>
		</g>
		<g>
			<g>
				<path fill="#699C52" d="M418.933,229.361c0.015-0.025,0.029-0.051,0.045-0.077c-0.144,0.038-0.286,0.075-0.429,0.112
					c0.479,0.348,1.49,0.063,2.057-0.009c1.221-0.153,2.432-0.27,3.628-0.577c0.63-0.162,0.92-0.702,0.989-1.3
					c0.003-0.025,0.006-0.051,0.009-0.076c-0.105,0.256-0.212,0.513-0.318,0.769c0.058-0.053,0.115-0.106,0.173-0.159
					c0.499-0.46,0.297-1.509-0.429-1.623c0.058,0.046,0.114,0.092,0.171,0.138c-0.286-0.359-0.891-0.469-1.311-0.347
					c-1.7,0.497-3.35,1.104-4.83,2.082c-0.259,0.172-0.411,0.476-0.32,0.787c-0.019-0.066-0.013,0.063-0.022,0.118
					C418.278,229.58,418.825,229.746,418.933,229.361L418.933,229.361z"/>
			</g>
		</g>
		<g>
			<g>
				<path fill="#699C52" d="M425.707,219.015c-2.077,2.468-1.589,5.938-1.168,9.009c0.243,1.769,0.632,8.225,3.61,7.636
					c0.468-0.092,0.843-0.611,0.821-1.079c-0.092-2.061-1.48-4.505-1.937-6.586c-0.376-1.713-0.617-3.455-0.777-5.201
					c-0.065-0.713-0.429-2.71,0.04-3.323C426.555,219.131,425.98,218.691,425.707,219.015L425.707,219.015z"/>
			</g>
		</g>
	</g>
	<g>
		<g>
			<path fill="#CF5044" d="M357.047,80.174c-1.19,5.137-0.847,10.616-0.864,15.863c-0.021,6.544-0.044,13.088-0.067,19.633
				c-0.042,12.441-0.03,24.883-0.036,37.325c-0.001,1.995,3.095,1.995,3.094,0c-0.006-12.442,0.006-24.884-0.036-37.325
				c-0.02-5.89-0.04-11.78-0.06-17.67c-0.02-5.869,0.46-12.08-0.871-17.826C358.074,79.598,357.18,79.598,357.047,80.174
				L357.047,80.174z"/>
		</g>
	</g>
	<g>
		<g>
			<path fill="#CF5044" d="M354.366,83.667c-0.751,6.397-4.22,11.547-7.936,16.634c0.798,0.466,1.596,0.933,2.394,1.398
				c3.843-6.063,7.767-12.189,10.204-18.979c-0.934,0-1.868,0-2.802,0c2.307,6.315,8.711,10.236,10.487,16.716
				c0.803-0.617,1.606-1.234,2.409-1.852c-2.79-1.926-5.803-3.24-9.073-4.114c-1.979-0.529-2.811,2.509-0.843,3.059
				c3.01,0.841,5.711,2.083,8.261,3.886c1.21,0.855,2.779-0.549,2.409-1.852c-1.887-6.634-8.31-10.36-10.847-16.617
				c-0.539-1.327-2.298-1.43-2.802,0c-2.312,6.565-6.161,12.463-9.796,18.354c-0.95,1.54,1.39,2.848,2.394,1.398
				c3.561-5.141,8.22-11.563,6.709-18.19C355.372,82.803,354.439,83.048,354.366,83.667L354.366,83.667z"/>
		</g>
	</g>
</g>
<g id="Text">
	<g>
		<g>
			<path fill="#333333" d="M216.016,393.928c0.107,5.956-0.495,12.356,1.463,18.078c0.646,1.888,3.669,1.055,2.99-0.824
				c-0.286-0.793-0.443-1.176-0.942-1.807c-0.244-0.309-0.863-0.309-1.106,0c-0.499,0.631-0.656,1.014-0.942,1.807
				c0.997,0,1.994,0,2.99,0c-1.889-5.678-1.514-11.729-3.225-17.421C217.044,393.094,216.002,393.207,216.016,393.928
				L216.016,393.928z"/>
		</g>
	</g>
	<g>
		<g>
			<path fill="#333333" d="M212.23,394.261c-0.083-3.737,6.82-3.632,9.238-3.505c3.671,0.191,7.355,3.075,3.159,5.957
				c-1.106,0.76-2.36,1.164-3.653,1.466c-0.576,0.134-1.092-0.118-1.557,0.313c-0.637,0.594-0.162,1.621,0.466,1.989
				c0.99,0.58,2.289,0.331,3.31,0.009c2.598-0.82,5.104-2.645,6.063-5.254c1.045-2.844-1.668-5.663-4.148-6.49
				c-4.117-1.373-14.671-0.766-14.057,5.515C211.124,395.002,212.248,395.033,212.23,394.261L212.23,394.261z"/>
		</g>
	</g>
	<g>
		<g>
			<path fill="#333333" d="M233.809,391.457c-0.636,3.122,1.664,5.527,2.042,8.471c0.905-0.246,1.81-0.49,2.715-0.736
				c-1.094-1.568-1.599-3.483-1.134-5.367c0.571-2.314,2.326-0.824,3.876-0.979c0.9-0.09,1.616-1.007,1.081-1.883
				c-1.725-2.822-6.078-1.63-7.419,0.873c-1.457,2.719-0.649,6.439,1.081,8.826c1.108,1.529,3.292,0.246,2.517-1.471
				c-1.195-2.643-2.935-4.929-3.759-7.734C234.669,390.99,233.915,390.936,233.809,391.457L233.809,391.457z"/>
		</g>
	</g>
	<g>
		<g>
			<path fill="#333333" d="M249.806,392.636c-0.735-1.651-2.551-1.035-3.547,0.003c-1.278,1.332-1.83,3.69-1.6,5.473
				c0.458,3.555,4.549,4.932,7.452,3.303c2.3-1.293,3.976-4.184,4.002-6.811c0.034-3.324-3.637-4.518-6.128-2.741
				c-0.867,0.618-0.633,2.124,0.571,2.107c0.505-0.007,1.005-0.041,1.51-0.064c0.231-0.011,0.461,0.015,0.691,0.028
				c-0.313-0.02,0.435,0.161,0.073,0.004c0.064,0.028,0.369,0.253,0.105,0.035c0.295,0.244,0.02-0.028,0.127,0.156
				c0.052,0.087,0.063,0.209,0.067,0.475c0.007,0.509-0.228,1.259-0.498,1.805c-0.393,0.797-0.806,1.319-1.431,1.906
				c-0.25,0.233-0.407,0.334-0.775,0.541c-0.271,0.152-0.189,0.098-0.372,0.158c-0.064,0.021-0.618,0.118-0.365,0.094
				c-0.656,0.064-1.173-0.162-1.808-0.765c-0.827-0.782-0.124-5.298,1.273-4.858C249.685,393.65,249.997,393.063,249.806,392.636
				L249.806,392.636z"/>
		</g>
	</g>
	<g>
		<g>
			<path fill="#333333" d="M264.38,392.148c-0.028-0.139-0.056-0.279-0.083-0.418c-0.05-0.253-0.299-0.491-0.546-0.547
				c-4.918-1.102-7.567,9.299-2.236,9.995c5.14,0.672,8.482-9.285,2.982-8.171c-4.818,0.975,3.62,7.367,5.151,8.135
				c2.259,1.133,10.916,5.936,4.862,7.574c-3.298,0.894-6.039-0.492-8.188-2.803c-0.471-0.506-1.47-0.283-1.609,0.424
				c-1.241,6.33,13.906,7.563,14.696,1.076c0.63-5.175-6.267-6.86-9.371-9.254c-1.471-1.135-3.004-2.199-4.283-3.557
				c0.246,0.261-2.722,3.607-3.086,3.848c-2.04,1.348-1.163-3.135-1.15-3.189c0.245-1.068,1.266-2.475,2.455-2.58
				C264.259,392.656,264.437,392.434,264.38,392.148L264.38,392.148z"/>
		</g>
	</g>
	<g>
		<g>
			<path fill="#333333" d="M277.368,392.793c-1.025,0.732,0.065,2.363,0.478,3.168c0.881,1.715,2.128,3.244,2.942,4.993
				c0.719-0.555,1.439-1.11,2.158-1.665c-1.375-1.609-2.566-3.893-1.352-5.924c0.221-0.37,0.635-0.738,1.035-0.904
				c0.471-0.195,0.686,0.303,1.121,0.422c0.688,0.189,1.181-0.061,1.551-0.631c0.246-0.377,0.27-1.013,0-1.387
				c-1.941-2.693-5.085-0.844-6.423,1.449c-1.67,2.862-0.049,6.821,2.125,8.918c1.112,1.072,2.983-0.308,2.158-1.665
				c-0.8-1.317-1.872-2.489-2.837-3.685c-0.515-0.637-1.035-1.276-1.529-1.93c-0.177-0.234-0.322-0.488-0.491-0.727
				c-0.068-0.096-0.404-0.621-0.195-0.239C277.976,392.746,277.604,392.625,277.368,392.793L277.368,392.793z"/>
		</g>
	</g>
	<g>
		<g>
			<path fill="#333333" d="M289.832,394.463c-0.266,1.236,1.22,1.408,2.068,1.071c1.379-0.548,2.398-1.729,2.009-3.28
				c-0.324-1.293-1.832-1.967-3.053-1.832c-1.515,0.169-2.778,1.432-3.294,2.82c-0.886,2.385,0.285,5.182,2.217,6.69
				c0.996,0.778,2.196,1.266,3.478,1.171c1.38-0.102,3.274-1.027,3.51-2.533c0.125-0.797-0.508-1.762-1.436-1.436
				c-1.072,0.379-1.682,1.515-2.94,1.229c-1.117-0.255-1.905-1.278-2.378-2.253c-0.445-0.917-0.381-2.063,0.296-2.837
				c0.324-0.369,0.934-0.829,1.414-0.427c0.471,0.396-1.208,1.071-0.988,1.499C290.542,393.973,289.92,394.052,289.832,394.463
				L289.832,394.463z"/>
		</g>
	</g>
	<g>
		<g>
			<path fill="#333333" d="M301.508,391.113c-1.009-2.497-4.893-1.021-5.072,1.279c-0.169,2.156,3.46,3.135,4.974,3.541
				c1.119,0.301,2.252,0.491,3.279,1.057c0.242,0.135,0.455,0.291,0.592,0.529c-0.065-0.113,0-0.053-0.094,0.113
				c-0.526,0.929-2.229,1.429-3.286,1.45c-0.438,0.009-0.823-0.134-0.907-0.253c-0.353-0.503-0.467-1.251-1.249-1.1
				c-0.741,0.145-0.927,1.371-0.787,1.957c0.17,0.714,0.73,1.336,1.399,1.625c2.444,1.059,7.421-0.84,7.344-3.912
				c-0.057-2.264-2.922-3.117-4.682-3.533c-1.133-0.268-2.26-0.502-3.327-0.988c-0.245-0.111-0.475-0.248-0.703-0.39
				c-0.442-0.272-0.097-0.283-0.311-0.007c0.599-0.773,1.409-0.76,2.295-0.668C301.309,391.849,301.636,391.43,301.508,391.113
				L301.508,391.113z"/>
		</g>
	</g>
	<g>
		<g>
			<path fill="#333333" d="M312.927,390.772c-0.872-0.604-2.271-1.192-3.351-0.9c-0.973,0.263-2.093,1.051-2.012,2.181
				c0.148,2.084,3.388,2.594,4.96,2.984c0.977,0.242,2.371,0.782,2.957,1.668c0.235,0.354,0.001,0.635-0.464,0.945
				c-1.546,1.033-3.483,0.563-4.67-0.75c-0.248-0.273-0.736-0.417-1.089-0.288c-0.195,0.071-0.339,0.147-0.494,0.288
				c-0.382,0.348-0.401,0.924-0.175,1.355c1.826,3.498,9.234,3.292,9.439-1.277c0.109-2.428-3.129-3.825-5.028-4.264
				c-0.983-0.227-2.013-0.43-2.922-0.881c-0.129-0.064-0.253-0.141-0.355-0.236c0.454,0.426-0.203,0.688,0.442,0.224
				c0.496-0.356,1.783-0.14,2.327-0.015C313.134,391.953,313.451,391.135,312.927,390.772L312.927,390.772z"/>
		</g>
	</g>
	<g>
		<g>
			<path fill="#333333" d="M350.235,393.814c-3.132-1.699-6.607,0.701-7.113,4.027c-0.602,3.957,3.123,5.437,6.407,4.972
				c2.895-0.409,6.084-3.132,4.916-6.302c-0.52-1.408-1.866-2.109-3.223-2.516c-1.053-0.315-3.464-0.979-4.418-0.264
				c-0.344,0.258-0.619,0.674-0.459,1.127c0.513,1.457,2.528,1.406,3.805,1.717c0.589,0.143,1.509,0.313,1.752,0.963
				c0.341,0.912-0.699,1.677-1.35,2.066c-1.291,0.773-3.428,1.023-4.579-0.104c-0.802-0.786-0.1-2.313,0.329-3.07
				c0.667-1.182,2.218-1.954,3.535-1.671C350.392,394.879,350.771,394.104,350.235,393.814L350.235,393.814z"/>
		</g>
	</g>
	<g>
		<g>
			<path fill="#333333" d="M361.533,390.799c5.936-2.398-0.985-10.936-5.818-7.887c-5.319,3.355,2.439,15.834,4.742,18.898
				c1.474,1.961,3.658-1.173,1.474-1.918c-0.131-0.045-0.262-0.089-0.393-0.134c-0.465-0.158-0.923,0.179-1.066,0.604
				c-0.049,0.147-0.098,0.295-0.147,0.441c0.795-0.104,1.59-0.208,2.385-0.313c-1.672-2.694-3.318-5.371-4.653-8.259
				c-0.883-1.909-1.803-4.263-1.501-6.399c0.472-3.346,7.565,0.96,4.263,3.272C360.018,389.667,360.497,391.219,361.533,390.799
				L361.533,390.799z"/>
		</g>
	</g>
	<g>
		<g>
			<path fill="#333333" d="M356.753,396.061c2.024,0.329,4.721-0.758,5.905-2.416c0.574-0.802-0.366-1.796-1.211-1.575
				c-0.867,0.226-1.555,0.678-2.33,1.112c-0.837,0.47-1.768,0.822-2.562,1.362C356.026,394.903,355.98,395.936,356.753,396.061
				L356.753,396.061z"/>
		</g>
	</g>
	<g>
		<g>
			<path fill="#333333" d="M378.704,392.094c0.71,2.562,1.775,5.149,1.85,7.834c0.883-0.24,1.766-0.479,2.647-0.718
				c-0.756-1.394-1.052-3.091-1.104-4.659c-0.022-0.705-0.087-2.089,0.835-2.125c0.934-0.038,1.847,0.844,2.735,1.065
				c1.24,0.31,2.511-1.411,1.352-2.321c-2.286-1.795-6.339-2.775-7.529,0.748c-0.921,2.724-0.15,6.281,1.258,8.727
				c0.805,1.398,3.038,0.461,2.597-1.096c-0.799-2.819-2.197-5.328-3.497-7.938C379.526,390.965,378.519,391.422,378.704,392.094
				L378.704,392.094z"/>
		</g>
	</g>
	<g>
		<g>
			<path fill="#333333" d="M390.471,396.209c2.307,0.677,4.566-1.016,4.235-3.474c-0.324-2.41-2.873-2.822-4.445-1.271
				c-2.113,2.086-2.841,5.633-0.503,7.801c1.065,0.988,2.532,1.395,3.956,1.403c1.371,0.009,3.552-0.51,4.154-1.886
				c0.284-0.65-0.028-1.621-0.894-1.557c-0.903,0.065-1.626,0.598-2.496,0.816c-0.745,0.186-1.51,0.066-2.227-0.168
				c-1.74-0.568-1.714-2.346-0.974-3.703c0.242-0.445,0.648-1.208,1.186-1.348c-0.314,0.082-0.184-0.066-0.09,0.252
				c0.318,1.072-1.077,1.612-1.903,1.903C389.888,395.185,389.84,396.023,390.471,396.209L390.471,396.209z"/>
		</g>
	</g>
	<g>
		<g>
			<path fill="#333333" d="M405.171,391.951c-1.327-2.408-4.415-1.386-5.716,0.617c-1.248,1.922-1.688,4.346-0.426,6.381
				c0.946,1.525,2.882,2.363,4.614,1.794c2.287-0.751,2.861-3.36,2.801-5.482c-0.979,0-1.96,0-2.939,0
				c0.107,1.721,0.745,3.437,2.193,4.478c1.322,0.951,3.05,1.017,4.111-0.309c0.316-0.396,0.251-1.045-0.313-1.188
				c-1.649-0.412-2.956-1.081-3.052-2.981c-0.094-1.882-2.971-1.905-2.939,0c0.013,0.833-0.255,3.677-1.722,2.431
				c-1.82-1.546,1.097-6.303,2.424-4.996C404.71,393.189,405.507,392.561,405.171,391.951L405.171,391.951z"/>
		</g>
	</g>
	<g>
		<g>
			<path fill="#333333" d="M414.498,393.07c0.265,0.179,0.457,0.417,0.578,0.716c0.361,0.774,1.777,0.632,1.902-0.249
				c0.181-1.277-0.117-2.828-1.648-3.046c-1.457-0.208-2.651,0.8-3.414,1.938c-2.365,3.537,1.163,7.768,4.934,7.508
				c1.515-0.105,4.111-0.98,4.624-2.619c0.602-1.921-1.594-1.148-2.508-0.753c-1.841,0.796-4.18,1.328-5.017-1.058
				c-0.267-0.762-0.135-1.633,0.378-2.26c0.166-0.201,0.378-0.387,0.627-0.475c0.131-0.015,0.097-0.051-0.104-0.109
				c0.077,0.061,0.082,0.544,0.084,0.597c0.439-0.335,0.879-0.669,1.317-1.003c-0.353-0.051-0.626-0.054-0.937-0.245
				C414.67,391.614,413.919,392.561,414.498,393.07L414.498,393.07z"/>
		</g>
	</g>
	<g>
		<g>
			<path fill="#333333" d="M420.468,384.301c-2.033,0.484-0.436,4.595-0.119,5.728c0.842,3.011,1.455,8.887,4.69,10.261
				c1.381,0.588,2.611-1.391,1.203-2.057c-0.056-0.024-0.112-0.049-0.168-0.072c-0.28-0.229-0.587-0.229-0.867,0
				c-0.056,0.023-0.112,0.048-0.168,0.072c0.584,0.236,1.167,0.475,1.751,0.711c-0.196-1.27-0.96-2.195-1.528-3.336
				c-0.738-1.482-1.156-3.125-1.81-4.646c-0.424-0.986-0.795-1.991-1.241-2.969c-0.271-0.596-0.853-2.733-1.242-2.504
				C421.615,385.107,421.18,384.131,420.468,384.301L420.468,384.301z"/>
		</g>
	</g>
	<g>
		<g>
			<path fill="#333333" d="M420.29,393.801c-0.396,0.236-0.159,0.119,0.137,0.063c0.242-0.046,0.507-0.054,0.744-0.115
				c0.743-0.194,1.487-0.388,2.233-0.573c1.164-0.291,3.178-0.574,3.822-1.721c0.3-0.534,0.011-1.125-0.537-1.32
				c-1.208-0.43-3.061,0.608-4.167,1.051c-1.122,0.448-2.138,0.816-2.99,1.633C419.016,393.313,419.681,394.164,420.29,393.801
				L420.29,393.801z"/>
		</g>
	</g>
	<g>
		<g>
			<path fill="#333333" d="M428.623,392.115c0.539,2.045,0.649,6.027,3.087,6.773c1.018,0.313,1.584-0.951,0.97-1.666
				c-0.103-0.119-0.199-0.246-0.322-0.345c-0.25-0.201-0.516-0.201-0.766,0c-0.123,0.099-0.22,0.226-0.322,0.345
				c0.556,0.146,1.111,0.293,1.667,0.439c-0.232-1.031-1.101-1.895-1.494-2.9c-0.429-1.096-0.836-2.229-1.521-3.193
				C429.468,390.934,428.408,391.3,428.623,392.115L428.623,392.115z"/>
		</g>
	</g>
	<g>
		<g>
			<path fill="#333333" d="M428.864,386.836c-0.063,0.027-0.126,0.055-0.189,0.082c-0.453,0.197-0.611,0.805-0.505,1.241
				c0.183,0.749,0.768,1.305,1.487,1.534c0.629,0.2,1.107-0.326,1.175-0.895c0.045-0.381-0.095-0.688-0.245-1.028
				c-0.059-0.134-0.23-0.303-0.348-0.407c-0.05-0.045-0.098-0.092-0.144-0.142c0.122,0.143,0.112,0.119-0.029-0.071
				C429.769,386.721,429.331,386.633,428.864,386.836L428.864,386.836z"/>
		</g>
	</g>
	<g>
		<g>
			<path fill="#333333" d="M438.682,392.479c0.295-0.39,0.29-0.967-0.205-1.2c-0.692-0.328-1.584,0.264-2.106,0.68
				c-1.354,1.075-1.908,3.279-1.26,4.875c0.878,2.16,3.099,3.777,5.359,2.418c1.548-0.931,2.574-3.012,2.391-4.806
				c-0.116-1.132-0.619-2.07-1.597-2.687c-1.144-0.721-2.428-0.559-3.595-0.031c-0.773,0.35-0.547,1.607,0.232,1.781
				c0.358,0.08,0.699,0.21,1.056,0.288c0.133,0.028,0.263,0.072,0.393,0.108c0.081,0.023,0.161,0.05,0.24,0.08
				c-0.142-0.062-0.145-0.059-0.008,0.008c0.062,0.033,0.342,0.245,0.069,0.023c0.077,0.063,0.336,0.397,0.107,0.08
				c0.056,0.076,0.1,0.164,0.146,0.246c0.12,0.211-0.083-0.287,0.029,0.102c0.026,0.088,0.068,0.417,0.019,0.001
				c0.016,0.134,0.015,0.27,0.012,0.403c-0.002,0.085-0.051,0.434,0.01,0.026c-0.021,0.141-0.057,0.278-0.093,0.416
				c-0.027,0.104-0.063,0.206-0.1,0.309c-0.082,0.235,0.116-0.227-0.069,0.146c-0.063,0.13-0.14,0.254-0.216,0.375
				c-0.221,0.352,0.07-0.061-0.085,0.127c-0.095,0.115-0.631,0.564-0.291,0.316c-0.077,0.057-0.16,0.104-0.243,0.152
				c-0.229,0.131,0.326-0.098-0.068,0.025c-0.11,0.035-0.406,0.055,0.046,0.01c-0.133,0.014-0.507-0.063-0.051,0.022
				c-0.4-0.074,0.14,0.101-0.092-0.017c-0.361-0.182,0.058,0.088-0.141-0.084c-0.331-0.289-0.187-0.152-0.461-0.553
				c-0.196-0.285-0.349-0.51-0.376-0.858c-0.036-0.476,0.049-0.968,0.176-1.425c0.068-0.248,0.197-0.48,0.322-0.703
				c0.1-0.148,0.185-0.305,0.254-0.47c0.223-0.304,0.061-0.337-0.486-0.099C438.217,392.781,438.516,392.698,438.682,392.479
				L438.682,392.479z"/>
		</g>
	</g>
	<g>
		<g>
			<path fill="#333333" d="M444.751,391.441c-0.617,2.771,0.405,5.248,1.516,7.762c0.447,1.01,1.931,0.62,2.203-0.289
				c0.678-2.262,0.587-5.034,2.384-6.775c-0.65-0.083-1.302-0.167-1.952-0.251c1.36,2.009,2.223,4.39,4.096,6.011
				c1.498,1.297,4.004,1.382,4.934-0.607c0.227-0.483-0.038-1.083-0.623-1.086c-1.949-0.008-2.728,0.008-3.943-1.719
				c-0.863-1.228-1.479-2.609-2.316-3.853c-0.45-0.668-1.349-0.833-1.952-0.251c-2.17,2.092-2.343,5.1-2.95,7.891
				c0.734-0.096,1.469-0.191,2.203-0.287c-1.112-2-2.295-4.061-2.464-6.393C445.84,390.975,444.899,390.771,444.751,391.441
				L444.751,391.441z"/>
		</g>
	</g>
	<g>
		<g>
			<path fill="#333333" d="M478.481,380.1c-2.498,2.957-3.357,6.186-4.961,9.643c-1.603,3.456-3.113,6.986-3.14,10.852
				c-0.007,1.092,1.384,1.68,2.152,0.891c0.24-0.246,0.313-0.475,0.357-0.807c0.29-2.203,0.648-4.104,1.367-6.199
				c0.726-2.117,1.684-4.164,2.52-6.238c1.011-2.504,1.274-4.932,2.8-7.295C480.004,380.285,478.995,379.492,478.481,380.1
				L478.481,380.1z"/>
		</g>
	</g>
	<g>
		<g>
			<path fill="#333333" d="M485.314,385.713c-0.157,2.014,0.22,4.201,0.321,6.232c0.102,2.054-0.045,5.422,1.496,7.01
				c0.482,0.498,1.19,0.522,1.78,0.23c0.964-0.478,0.717-1.602,0.441-2.412c-0.474-1.396-0.637-2.969-0.823-4.424
				c-0.28-2.184-0.087-5.616-1.815-7.217C486.166,384.625,485.369,385.002,485.314,385.713L485.314,385.713z"/>
		</g>
	</g>
	<g>
		<g>
			<path fill="#333333" d="M484.505,393.903c-0.203,0.29-0.131,0.155,0.127,0.056c0.296-0.114,0.614-0.18,0.922-0.254
				c0.88-0.209,1.762-0.406,2.633-0.648c1.29-0.36,3.32-0.674,4.2-1.809c0.353-0.455,0.308-1.236-0.367-1.388
				c-1.666-0.372-3.932,0.638-5.42,1.302c-0.866,0.387-3.306,1.148-3.238,2.432C483.394,394.225,484.154,394.403,484.505,393.903
				L484.505,393.903z"/>
		</g>
	</g>
	<g>
		<g>
			<path fill="#333333" d="M493.932,391.928c-0.076,1.1,0.111,2.313,0.361,3.381c0.281,1.2,0.765,2.746,2.223,2.83
				c0.463,0.027,0.909-0.271,1.142-0.654c0.314-0.52,0.269-1.271-0.287-1.607c-0.271-0.164,0.833,1.205,0.287,0.273
				c-0.136-0.231-0.319-0.38-0.536-0.529c0.195,0.135-0.026-0.102-0.134-0.279c-0.718-1.187-1.006-2.599-1.732-3.773
				C494.868,390.945,493.979,391.232,493.932,391.928L493.932,391.928z"/>
		</g>
	</g>
	<g>
		<g>
			<path fill="#333333" d="M494.215,386.391c-0.115-0.036-0.23-0.072-0.346-0.107c-2.012-0.628-1.211,3.243,0.447,1.695
				c0.064-0.061,0.13-0.121,0.194-0.182c0.294-0.275,0.294-0.797,0-1.072c-0.064-0.061-0.13-0.121-0.194-0.182
				c-1.658-1.548-2.459,2.323-0.447,1.695c0.115-0.035,0.23-0.071,0.346-0.107C495.075,387.862,495.075,386.659,494.215,386.391
				L494.215,386.391z"/>
		</g>
	</g>
	<g>
		<g>
			<path fill="#333333" d="M501.1,392.049c0.991,1.875,1.332,3.435,1.692,5.538c0.238,1.396,2.405,1.021,2.409-0.326
				c0.002-0.684-0.049-1.359-0.09-2.042c-0.046-0.653-0.014-1.305,0.096-1.951c-0.359-0.688-0.319-0.752,0.118-0.195
				c0.744,0.795,0.535,2.074,1.513,2.646c2.875,1.684,5.209-4.215,6.345-5.582c-0.689-0.183-1.379-0.365-2.068-0.547
				c0.672,3.195,0.498,7.711,3.368,9.846c0.674,0.5,1.722-0.331,1.432-1.102c-0.52-1.381-1.172-2.647-1.521-4.097
				c-0.419-1.741-0.55-3.548-0.892-5.306c-0.172-0.885-1.482-1.23-2.068-0.547c-0.557,0.65-0.993,1.29-1.409,2.041
				c-0.224,0.439-0.459,0.872-0.705,1.299c-0.328,0.369-0.656,0.737-0.984,1.105c-1.053,0.319-0.99,0.677,0.188,1.072
				c-0.156-1.418-1.14-2.703-2.295-3.516c-3.695-2.601-3.611,5.301-3.479,6.874c0.803-0.108,1.606-0.218,2.409-0.326
				c-0.283-1.047-1.777-7.368-4.02-5.177C501.058,391.835,501.05,391.953,501.1,392.049L501.1,392.049z"/>
		</g>
	</g>
	<g>
		<g>
			<path fill="#333333" d="M517.976,392.926c1.07,1.014,2.502,1.229,3.794,0.458c1.086-0.648,2.184-2.281,1.414-3.551
				c-1.85-3.05-5.772-0.802-6.705,1.787c-1.025,2.846,0.782,5.384,3.312,6.603c2.409,1.16,6.683,1.353,8.119-1.416
				c0.504-0.971-0.505-1.998-1.481-1.48c-1.162,0.615-2.013,1.18-3.38,1.174c-1.329-0.004-2.672-0.598-3.627-1.502
				c-0.907-0.858-1.047-2.05-0.518-3.148c0.412-0.854,1.284-1.692,2.304-1.251c0.814,0.353-1.449,2.292-2.663,1.59
				C518.087,391.924,517.584,392.555,517.976,392.926L517.976,392.926z"/>
		</g>
	</g>
	<g>
		<g>
			<path fill="#333333" d="M9.229,141.021c-1.526,0.338-0.598,3.145-0.422,3.993c0.906,4.356,1.51,8.816,2.643,13.117
				c0.615,2.335,4.246,0.924,3.086-1.301c-0.302-0.581-0.501-0.864-0.931-1.342c-0.261-0.291-0.793-0.291-1.055,0
				c-0.429,0.478-0.628,0.761-0.931,1.342c1.029,0.135,2.058,0.269,3.086,0.403c-1.228-5.017-1.505-11.669-4.749-15.882
				c-0.083,0.316-0.166,0.632-0.249,0.948c0.016-0.008,0.032-0.017,0.048-0.025C10.472,141.898,9.963,140.858,9.229,141.021
				L9.229,141.021z"/>
		</g>
	</g>
	<g>
		<g>
			<path fill="#333333" d="M5.571,140.436c0.052,0.637,0.38,0.655,0.982,0.053c0.389-0.148,0.786-0.273,1.189-0.376
				c1.137-0.325,2.364-0.463,3.54-0.52c1.675-0.08,4.421,0.231,5.529,1.701c1.015,1.348-2.573,3.517-3.75,2.747
				c-0.863-0.564-1.706,0.36-1.567,1.205c0.373,2.269,3.182,2.17,4.777,1.382c1.955-0.967,3.755-2.804,3.688-5.119
				c-0.084-2.891-3.675-4.352-6.073-4.644c-3.381-0.413-7.338,0.272-9.757,2.869c-0.272,0.292-0.333,0.704-0.136,1.057
				c0.34,0.609,0.696,0.922,1.419,0.828C6.051,141.534,6.27,140.64,5.571,140.436L5.571,140.436z"/>
		</g>
	</g>
	<g>
		<g>
			<path fill="#333333" d="M25.271,138.192c0.323,0.074,0.589-0.003,0.872-0.163c0.415-0.234,0.55-0.91,0.16-1.237
				c-1.049-0.88-2.378,0.008-3.242,0.744c-1.204,1.024-2.022,2.608-2.234,4.159c-0.442,3.238,2.121,5.856,5.382,5.084
				c2.373-0.562,4.224-3.044,4.394-5.405c0.179-2.485-3.688-4.929-5.313-2.486c-0.162,0.244-0.183,0.682,0,0.923
				c0.511,0.672,1.172,0.88,1.974,1.078c0.38,0.094,0.353,0.196,0.341,0.485c-0.037,0.965-1.213,1.832-1.973,2.224
				c-1.191,0.616-1.832-0.708-1.683-1.721c0.132-0.894,0.503-1.728,0.996-2.475c0.447-0.678,1.338-1.036,1.56-1.844
				c-0.506,0-1.013,0-1.52,0c0.023,0.064,0.046,0.127,0.069,0.191c0.054-0.203,0.107-0.406,0.161-0.609
				c-0.024,0.028-0.047,0.056-0.071,0.084C24.753,137.443,24.822,138.09,25.271,138.192L25.271,138.192z"/>
		</g>
	</g>
	<g>
		<g>
			<path fill="#333333" d="M34.453,129.975c-0.056-0.056-0.111-0.112-0.167-0.168c-0.456-0.458-1.089-0.176-1.307,0.345
				c-0.549,1.312,0.479,3.55,0.643,4.852c0.263,2.089,0.948,4.072,1.23,6.152c0.315,2.324,0.971,6.828,4.177,6.391
				c0.777-0.106,1.171-1.23,0.749-1.84c-1.257-1.812-1.638-3.775-2.09-5.902c-0.371-1.745-1.107-3.431-1.665-5.126
				c0.039,0.118-1.384-4.165-1.569-3.955C34.644,130.507,34.666,130.189,34.453,129.975L34.453,129.975z"/>
		</g>
	</g>
	<g>
		<g>
			<path fill="#333333" d="M31.981,139.541c1.624-0.245,3.257-0.658,4.832-1.12c1.326-0.389,2.868-0.73,3.565-2.035
				c0.241-0.452,0.008-0.901-0.438-1.078c-1.42-0.563-3.038,0.213-4.408,0.64c-1.46,0.455-2.999,1.059-4.237,1.966
				C30.457,138.527,30.973,139.693,31.981,139.541L31.981,139.541z"/>
		</g>
	</g>
	<g>
		<g>
			<path fill="#333333" d="M45.083,140.91c2.278,1.735,7.023-1.313,4.717-3.789c-0.926-0.994-2.73-0.739-3.826-0.264
				c-1.716,0.744-2.52,2.325-3.154,3.997c-2.601,6.856,7.433,8.222,11.086,4.344c1.273-1.352-0.615-3.15-2.002-2.002
				c-1.483,1.227-5.393,2.584-6.678,0.377c-0.687-1.178,0.49-3.621,1.458-4.291c0.292-0.202,0.665-0.335,1.017-0.375
				c0.892-0.1-0.066,0.256,0.296-0.544c-0.45,0.995-1.567,1.414-2.585,1.336C44.692,139.645,44.627,140.563,45.083,140.91
				L45.083,140.91z"/>
		</g>
	</g>
	<g>
		<g>
			<path fill="#333333" d="M56.165,136.855c-0.516,3.143,0.917,6.31,0.755,9.494c-0.098,1.916,2.973,1.93,2.983,0
				c0.008-1.398,0.149-2.799,0.364-4.18c0.123-0.791,0.307-1.569,0.567-2.325c0.058-0.169,0.145-0.381,0.254-0.522
				c-0.086,0.11-0.431-0.215-0.183,0.158c0.85,1.278,0.634,3.416,1.102,4.87c0.533,1.657,1.823,2.971,3.657,2.582
				c0.684-0.145,0.937-1.125,0.419-1.588c-1.732-1.552-1.781-3.175-2.187-5.375c-0.302-1.638-1.503-3.83-3.519-3.357
				c-3.315,0.777-3.427,7.123-3.458,9.737c0.995,0,1.989,0,2.983,0c-0.334-3.255-1.286-6.654-2.639-9.637
				C57.056,136.253,56.247,136.356,56.165,136.855L56.165,136.855z"/>
		</g>
	</g>
	<g>
		<g>
			<path fill="#333333" d="M67.411,128.711c-3.168-0.188,1.682,15.42,2.56,16.763c1.024,1.565,3.24,0.215,2.473-1.445
				c-1.232-2.666-1.829-5.59-2.777-8.359c-0.323-0.941-0.648-1.881-0.948-2.83c-0.192-0.609-0.355-1.226-0.513-1.844
				c-0.098-0.334-0.179-0.672-0.242-1.015c-0.027-0.496-0.155-0.502-0.383-0.018C68.311,129.791,68.104,128.752,67.411,128.711
				L67.411,128.711z"/>
		</g>
	</g>
	<g>
		<g>
			<path fill="#333333" d="M65.775,139.306c-0.461,0.274-0.25,0.167,0.113,0.072c0.242-0.063,0.486-0.116,0.731-0.167
				c0.76-0.157,1.509-0.331,2.261-0.523c1.201-0.307,3.335-0.782,3.88-2.054c0.239-0.557,0.099-1.338-0.604-1.484
				c-1.365-0.283-3.027,0.71-4.233,1.269c-1.085,0.502-2.18,0.95-3.023,1.753C64.303,138.741,65.073,139.724,65.775,139.306
				L65.775,139.306z"/>
		</g>
	</g>
	<g>
		<g>
			<path fill="#333333" d="M74.773,137.173c-0.605,2.505,0.258,5.132,1.615,7.285c0.254,0.402,0.707,0.714,1.202,0.689
				c0.052-0.002,0.103-0.005,0.155-0.008c0.832-0.043,1.426-0.928,0.971-1.691c-0.59-0.989-1.351-0.989-1.941,0
				c0.647,0.378,1.294,0.756,1.941,1.135c0.72-1.174-0.441-2.379-1.019-3.369c-0.639-1.095-1.613-2.548-1.624-3.865
				C76.066,136.611,74.951,136.436,74.773,137.173L74.773,137.173z"/>
		</g>
	</g>
	<g>
		<g>
			<path fill="#333333" d="M75.138,133.107c0.036-0.061,0.071-0.121,0.106-0.181c-0.347,0.199-0.693,0.397-1.04,0.597
				c-0.498-0.193-0.648-0.226-0.45-0.098c0.099,0.068,0.316,0.146,0.459,0.175c0.449,0.092,0.742,0.044,1.154-0.148
				c0.474-0.222,0.608-0.806,0.516-1.27c-0.21-1.061-1.791-1.592-2.531-0.715c-0.658,0.779-0.262,2.047,0.852,2.056
				C74.582,133.525,74.93,133.461,75.138,133.107L75.138,133.107z"/>
		</g>
	</g>
	<g>
		<g>
			<path fill="#333333" d="M87.503,136.924c-3.87-3.655-8.526,3.238-6.555,6.911c0.834,1.553,2.795,1.982,4.382,1.629
				c1.957-0.436,3.23-2.268,3.732-4.084c0.406-1.47-1.788-2.459-2.498-1.053c-1.733,3.431,1.708,5.41,4.809,4.667
				c0.877-0.21,2.056-1.351,0.872-2.044c-0.683-0.4-4.031-0.014-3.32-1.243c-0.833-0.351-1.666-0.702-2.498-1.053
				c-0.301,0.888-1.685,2.748-2.852,1.783c-0.503-0.416-0.223-1.241-0.07-1.749c0.489-1.629,1.518-3.042,3.413-2.758
				C87.466,138.012,87.984,137.378,87.503,136.924L87.503,136.924z"/>
		</g>
	</g>
	<g>
		<g>
			<path fill="#333333" d="M92.452,127.843c-0.79,3.963,0.494,8.501,1.663,12.292c0.498,1.614,3.767,9.194,6.315,5.477
				c0.232-0.338,0.204-0.849,0-1.19c-0.508-0.851-1.495-1.191-2.063-2.064c-1.12-1.721-1.794-3.733-2.426-5.669
				c-0.821-2.517-2.222-5.998-2.211-8.671C93.73,127.296,92.598,127.111,92.452,127.843L92.452,127.843z"/>
		</g>
	</g>
	<g>
		<g>
			<path fill="#333333" d="M26.2,160.808c1.103,0.249,2.843,0.142,3.436-1.041c0.571-1.14,1.047-2.178,0.104-3.268
				c-0.706-0.814-2.079-0.738-2.998-0.466c-1.43,0.426-2.263,1.716-2.782,3.029c-2.414,6.106,6.293,9.555,9.92,4.842
				c0.881-1.145-1.007-2.535-1.972-1.521c-1.624,1.706-5.021,2.055-6.01-0.615c-0.461-1.244,0.237-3.126,1.363-3.775
				c0.307-0.178,1.267-0.428,1.129,0.164c-0.247,1.063-1.269,1.418-2.191,1.7C25.753,159.993,25.706,160.695,26.2,160.808
				L26.2,160.808z"/>
		</g>
	</g>
	<g>
		<g>
			<path fill="#333333" d="M33.448,157.654c1.161,2.554,2.401,5.018,3.269,7.698c0.463,1.429,2.563,1.167,2.611-0.354
				c0.054-1.728-0.935-4.959,0.251-6.421c-0.676-0.086-1.353-0.174-2.029-0.261c0.844,1.144,3.557,8.877,6.121,6.313
				c1.058-1.058-0.821-1.998-1.35-2.688c-1.133-1.478-1.454-3.422-2.54-4.93c-0.444-0.616-1.453-0.955-2.029-0.262
				c-1.819,2.191-1.255,5.611-1.082,8.247c0.826-0.224,1.651-0.447,2.477-0.671c-1.193-2.665-2.601-5.371-4.697-7.447
				C33.905,156.342,33.16,157.021,33.448,157.654L33.448,157.654z"/>
		</g>
	</g>
	<g>
		<g>
			<path fill="#333333" d="M48.518,160.865c2.48,0.743,4.334-1.498,3.271-3.814c-0.448-0.975-1.631-1.465-2.647-1.236
				c-1.398,0.315-2.423,1.461-2.927,2.751c-0.955,2.445,1.135,5.054,3.093,6.235c0.979,0.591,2.207,0.938,3.346,0.715
				c1.184-0.232,2.517-1.285,2.247-2.607c-0.141-0.688-0.936-0.865-1.488-0.605c-0.52,0.246-0.645,0.842-1.208,1.002
				c-0.455,0.129-1.025-0.063-1.437-0.25c-1.25-0.57-2.316-1.689-2.585-3.058c-0.113-0.577,0.186-1.185,0.55-1.604
				c0.182-0.209,0.837-0.842,1.172-0.572c0.307,0.246,0.328,0.666,0.23,1.016c-0.188,0.677-1.028,0.854-1.615,0.963
				C47.954,159.904,48.025,160.719,48.518,160.865L48.518,160.865z"/>
		</g>
	</g>
	<g>
		<g>
			<path fill="#333333" d="M56.189,157.867c-1.045,2.601,1.93,4.561,2.625,6.791c0.748-0.314,1.496-0.631,2.243-0.945
				c-0.703-0.961-1.498-2.254-1.309-3.51c0.221-1.469,1.864-1.058,2.896-1.4c0.864-0.287,1.293-1.713,0.282-2.155
				c-1.99-0.87-4.644,0.164-5.446,2.216c-0.811,2.073,0.192,4.432,1.458,6.088c0.953,1.246,2.798,0.221,2.119-1.238
				c-0.455-0.979-1.222-1.779-1.946-2.563c-0.77-0.833-2.08-1.909-1.954-3.15C57.219,157.398,56.379,157.396,56.189,157.867
				L56.189,157.867z"/>
		</g>
	</g>
	<g>
		<g>
			<path fill="#333333" d="M28.54,180.943c-4.794,5.718-5.138,19.486,4.237,20.703c1.589,0.205,1.794-1.998,0.74-2.732
				c-2.689-1.871-4.519-2.427-4.816-6.088c-0.289-3.547,0.184-7.716,1.187-11.098C30.107,180.986,29.07,180.311,28.54,180.943
				L28.54,180.943z"/>
		</g>
	</g>
	<g>
		<g>
			<path fill="#333333" d="M34.934,185.879c-1.244,0.861-0.057,3.769,0.222,4.833c0.645,2.464,1.33,5.675,2.848,7.782
				c0.72,1,2.366,0.705,2.389-0.647c0.013-0.804-0.021-1.288-0.45-1.958c-0.207-0.322-0.625-0.374-0.907-0.117
				c-0.561,0.511-0.883,1.033-1.161,1.734c0.781-0.102,1.563-0.204,2.343-0.307c-0.792-1.813-1.691-3.597-2.512-5.4
				c-0.553-1.215-1.097-2.426-1.56-3.68c-0.173-0.467-0.731-1.434-0.687-1.939C35.482,185.924,35.142,185.734,34.934,185.879
				L34.934,185.879z"/>
		</g>
	</g>
	<g>
		<g>
			<path fill="#333333" d="M39.445,189.791c-1.366,2.016-3.531,6.178-0.597,7.99c0.925,0.571,2.084,0.793,3.128,1.031
				c0.991,0.227,2.742,0.857,3.654,0.238c0.809-0.549,0.899-1.504,0.288-2.24c-0.812-0.979-3.547-0.861-4.725-1.118
				c-1.065-0.233-1.226-0.563-1.161-1.729c0.066-1.193,0.596-2.404,0.819-3.578C41.017,189.521,39.945,189.055,39.445,189.791
				L39.445,189.791z"/>
		</g>
	</g>
	<g>
		<g>
			<path fill="#333333" d="M56.889,182.168c1.627,2.496,4.177,4.125,5.95,6.496c1.336,1.787,3.041,7.16,0.255,8.353
				c-1.429,0.611-0.397,2.869,1.038,2.463c3.639-1.029,3.199-5.36,2.474-8.278c-1.141-4.584-5.275-7.26-8.844-9.905
				C57.242,180.91,56.554,181.654,56.889,182.168L56.889,182.168z"/>
		</g>
	</g>
	<g>
		<g>
			<path fill="#333333" d="M69.094,159.783c0.684-1.957-1.402-2.115-2.688-1.464c-1.647,0.833-2.641,2.45-1.891,4.272
				c1.506,3.662,6.506,3.389,6.447-0.926c-0.738,0.305-1.477,0.611-2.215,0.917c2.102,2.278,6.857,4.193,7.21,7.622
				c0.222,2.154-2.718,2.487-4.21,2.422c-1.791-0.078-3.144-1.165-4.248-2.463c-0.439-0.517-1.165-0.055-1.212,0.502
				c-0.46,5.479,8.378,5.363,11.143,2.617c1.872-1.859,1.108-4.84-0.336-6.673c-1.842-2.339-4.521-3.698-6.513-5.862
				c-0.772-0.839-2.229-0.186-2.215,0.918c0.015,1.135-0.285,1.204-1.132,0.473c-0.976-0.843,0.203-2.551,1.205-2.089
				C68.712,160.176,68.993,160.073,69.094,159.783L69.094,159.783z"/>
		</g>
	</g>
	<g>
		<g>
			<path fill="#333333" d="M78.457,159.666c-0.248,2.735,0.273,7.303,4.108,6.511c2.776-0.573,3.425-4.417,2.089-6.423
				c-0.716-1.075-2.407-0.408-2.094,0.883c1.186,4.896,6.88,6.834,10.048,10.205c0.888,0.943,1.847,2.654,1.274,3.968
				c-0.523,1.203-2.62,1.042-3.626,0.906c-2.448-0.331-4.198-1.763-5.851-3.458c-0.313-0.321-0.837-0.152-0.965,0.254
				c-1.631,5.196,9.768,7.926,12.404,3.967c4.852-7.286-9.678-11.193-11.076-16.451c-0.698,0.295-1.396,0.589-2.094,0.883
				c0.838,1.199-0.402,4.5-1.763,2.659c-0.825-1.116-0.87-2.781-1.393-4.048C79.287,158.957,78.514,159.034,78.457,159.666
				L78.457,159.666z"/>
		</g>
	</g>
	<g>
		<g>
			<path fill="#333333" d="M49.096,182.617c-1.061,1.515,0.159,3.649,0.802,5.133c2.102,4.854,4.574,9.5,6.473,14.449
				c1.802,4.696,4.532,11.38-1.951,13.567c-4.164,1.404-7.429-0.668-10.264-3.422c-0.573-0.556-1.588-0.164-1.582,0.655
				c0.068,8.491,13.402,7.725,17.677,3.251c3.879-4.06,1.097-10.678-0.621-14.95c-1.423-3.54-3.129-6.954-4.896-10.333
				c-1.054-2.017-4.203-5.571-4.227-7.968C50.5,182.205,49.514,182.02,49.096,182.617L49.096,182.617z"/>
		</g>
	</g>
	<g>
		<g>
			<g>
				<path fill="#333333" d="M347.557,29.167c-0.531,5.205-1.385,11.117,0.232,16.196c0.293,0.916,1.604,0.537,1.426-0.393
					c0.037-0.205,0.074-0.41,0.111-0.614c0.139-0.323-0.158-0.723-0.514-0.513c-0.611,0.362-0.664,0.343-0.947,0.951
					c0.449,0.059,0.898,0.117,1.35,0.176c-1.393-5.244-0.346-10.49-0.768-15.804C348.402,28.588,347.615,28.598,347.557,29.167
					L347.557,29.167z"/>
			</g>
		</g>
		<g>
			<g>
				<path fill="#333333" d="M343.916,37.781c0.025-0.15-0.416,0.274,0.029-0.037c0.258-0.18,0.533-0.209,0.842-0.234
					c0.811-0.066,1.641,0.013,2.453-0.001c1.066-0.02,3.271,0.064,3.684-1.226c0.055-0.171-0.029-0.417-0.201-0.494
					c-0.654-0.295-1.463-0.058-2.158-0.004c-0.943,0.074-1.895,0.091-2.834,0.218c-1.191,0.162-2.553,0.367-2.658,1.664
					C343.033,38.147,343.838,38.258,343.916,37.781L343.916,37.781z"/>
			</g>
		</g>
		<g>
			<g>
				<path fill="#333333" d="M352.729,37.667c-0.24,2.421,1.045,4.591,1.064,7c0.465-0.063,0.93-0.126,1.393-0.188
					c-0.527-1.522-1.078-2.94-1.119-4.578c-0.018-0.686,0.105-1.35,0.467-1.936c0.498-0.81,1.695-0.552,2.469-0.61
					c0.605-0.045,1.035-0.985,0.348-1.281c-2.016-0.868-4.064,0.132-4.678,2.204c-0.605,2.05,0.1,4.983,1.217,6.748
					c0.354,0.559,1.379,0.384,1.322-0.358c-0.186-2.481-1.498-4.643-1.945-7.073C353.205,37.268,352.758,37.382,352.729,37.667
					L352.729,37.667z"/>
			</g>
		</g>
		<g>
			<g>
				<path fill="#333333" d="M364.803,38.083c-0.617-2.289-3.631-1.119-4.879-0.095c-1.42,1.165-1.813,3.121-1.557,4.848
					c0.203,1.378,1.234,2.918,2.734,3.027c2.121,0.155,3.396-2.127,4.143-3.763c-0.533-0.145-1.068-0.29-1.602-0.434
					c0.063,1.332,0.521,2.702,1.617,3.541c0.963,0.739,2.523,1.153,3.463,0.18c0.139-0.143,0.115-0.391-0.063-0.491
					c-0.629-0.354-1.346-0.396-1.992-0.74c-0.895-0.478-1.268-1.542-1.307-2.49c-0.031-0.788-1.219-1.26-1.602-0.434
					c-0.65,1.409-2.604,4.515-3.621,1.632c-0.311-0.88-0.221-1.885,0.168-2.724c0.576-1.246,2.676-2.773,3.975-1.753
					C364.514,38.57,364.893,38.411,364.803,38.083L364.803,38.083z"/>
			</g>
		</g>
		<g>
			<g>
				<path fill="#333333" d="M369.793,39.376c1.635,1.642,1.939,4.072,1.924,6.29c-0.008,1.016,1.539,1.01,1.57,0
					c0.076-2.336,0.383-4.845,2.289-6.425c-0.424-0.055-0.85-0.11-1.275-0.165c1.053,2.25,1.201,5.635,3.367,7.163
					c0.57,0.403,1.211-0.362,0.908-0.908c-1.262-2.266-1.781-4.745-2.873-7.075c-0.238-0.512-0.908-0.47-1.275-0.165
					c-2.213,1.835-2.732,4.842-2.711,7.575c0.523,0,1.047,0,1.57,0c-0.076-2.305-0.563-6.044-3.205-6.786
					C369.793,38.799,369.584,39.167,369.793,39.376L369.793,39.376z"/>
			</g>
		</g>
		<g>
			<g>
				<path fill="#333333" d="M385.098,39.829c0.727-0.422,1.428-0.838,1.289-1.777c-0.125-0.851-1.266-1.068-1.963-1.107
					c-2.221-0.122-3.428,2.265-2.01,3.916c1.275,1.483,3.537,1.564,4.898,2.892c0.568,0.553-1.178,1.396-1.543,1.481
					c-1.295,0.305-3.053-0.16-3.561-1.497c-0.279-0.731-1.398-0.66-1.408,0.19c-0.055,5,10.018,3.299,8.068-0.868
					c-0.691-1.477-3.15-1.983-4.449-2.708c-0.596-0.332-1.607-1.02-0.709-1.638c0.371-0.255,0.83-0.318,1.268-0.303
					c0.916,0.032,0.295,0.774-0.109,1.123C384.705,39.676,384.916,39.933,385.098,39.829L385.098,39.829z"/>
			</g>
		</g>
		<g>
			<g>
				<path fill="#333333" d="M391.205,40.34c0.846,1.678,0.422,3.78,0.982,5.551c0.18,0.57,0.973,0.873,1.412,0.373
					c0.688-0.78,1.113-1.675,0.697-2.679c-0.096-0.23-0.412-0.323-0.559-0.073c-0.369,0.639-0.791,1.069-1.334,1.556
					c0.471,0.125,0.941,0.249,1.412,0.373c-0.512-1.738-0.49-4.451-2.141-5.572C391.369,39.662,391.063,40.055,391.205,40.34
					L391.205,40.34z"/>
			</g>
		</g>
		<g>
			<g>
				<path fill="#333333" d="M392.002,35.307c-0.205-0.026-0.221-0.198-0.25-0.348c-0.141-0.75-1.352-0.741-1.5,0
					c-0.088,0.435-0.146,0.876,0.199,1.224c0.34,0.338,0.906,0.357,1.301,0.123c0.498-0.296,0.459-0.976,0-1.28
					c-0.072-0.049-0.449-0.244-0.252-0.119c0.127,0.164,0.252,0.329,0.379,0.493c-0.037-0.101-0.072-0.19-0.117-0.293
					c0.092,0.207-0.008-0.143-0.01-0.148c-0.119,0.293-0.238,0.586-0.357,0.879c0.072-0.054,0.143-0.108,0.213-0.162
					c-0.141,0-0.279,0-0.42,0c0.271,0.188,0.475,0.33,0.814,0.35C392.477,36.053,392.447,35.365,392.002,35.307L392.002,35.307z"/>
			</g>
		</g>
		<g>
			<g>
				<path fill="#333333" d="M396.541,31.667c-0.238,1.982,0.006,15.105,3.115,14.558c0.248-0.044,0.428-0.319,0.424-0.558
					c-0.023-1.923-0.947-4.056-1.299-5.981c-0.496-2.707-0.92-5.422-1.334-8.141C397.361,30.985,396.598,31.199,396.541,31.667
					L396.541,31.667z"/>
			</g>
		</g>
		<g>
			<g>
				<path fill="#333333" d="M394.656,39.762c0.172,0.849,1.594,0.686,2.172,0.625c1.291-0.138,3.041-0.241,4.082-1.094
					c0.6-0.491,0.055-1.333-0.572-1.382c-0.959-0.076-2.094,0.464-2.996,0.748c-0.451,0.143-0.908,0.27-1.369,0.381
					c-0.178,0.042-0.352,0.113-0.525,0.167c-0.504,0.156-0.23,0.038-0.098,0.365C395.178,39.147,394.561,39.299,394.656,39.762
					L394.656,39.762z"/>
			</g>
		</g>
		<g>
			<g>
				<path fill="#333333" d="M403.135,38.667c-0.143,2.166,0.375,4.673,0.908,6.765c0.318,1.25,2.338,0.68,1.918-0.529
					c-0.186-0.54-0.252-0.986-0.568-1.464c-0.191-0.292-0.588-0.292-0.781,0c-0.316,0.478-0.381,0.924-0.568,1.464
					c0.639,0,1.279,0,1.918,0c-0.498-2.096-1.008-4.567-2.143-6.421C403.621,38.158,403.158,38.308,403.135,38.667L403.135,38.667z"
					/>
			</g>
		</g>
		<g>
			<g>
				<path fill="#333333" d="M403.85,33.818c-0.07-0.083-0.145-0.163-0.221-0.241c0.051,0.121,0.102,0.243,0.15,0.364
					c0.006-0.064,0.012-0.128,0.018-0.193c0.033-0.377-0.287-0.737-0.633-0.832c-0.408-0.112-0.736,0.083-0.975,0.397
					c-0.229,0.3-0.135,0.732-0.063,1.065c0.141,0.644,0.895,0.872,1.307,0.83c0.268-0.027,0.525-0.166,0.592-0.45
					c-0.051,0.22,0.105-0.425,0.105-0.399c0-0.136-0.031-0.29-0.082-0.418c-0.072-0.186-0.123-0.379-0.281-0.517
					c-0.043-0.034-0.082-0.07-0.117-0.109c0.1,0.121,0.15,0.266,0.146,0.434c-0.143,0.249-0.285,0.497-0.428,0.745
					c0.053-0.036,0.104-0.072,0.156-0.108c-0.207-0.027-0.416-0.054-0.623-0.08c0.086,0.067,0.17,0.137,0.252,0.209
					C403.635,34.924,404.275,34.296,403.85,33.818L403.85,33.818z"/>
			</g>
		</g>
		<g>
			<g>
				<path fill="#333333" d="M409.875,38.207c-1.705,0.41-3.24,2.215-3.551,3.912c-0.389,2.129,1.439,3.554,3.398,3.643
					c1.916,0.087,4.057-1.437,4.322-3.378c0.289-2.125-1.979-2.957-3.574-3.682c-0.701-0.318-1.32,0.457-0.814,1.055
					c0.711,0.843,1.721,1.302,2.607,1.922c0.268,0.186-0.131,0.954-0.295,1.207c-0.406,0.628-1.18,0.952-1.873,1.112
					c-1.521,0.351-2.373-0.854-1.971-2.175c0.354-1.162,1.359-2.02,2.215-2.818C410.701,38.666,410.322,38.1,409.875,38.207
					L409.875,38.207z"/>
			</g>
		</g>
		<g>
			<g>
				<path fill="#333333" d="M415.854,39.815c0.316,0.379,0.303,1.745,0.361,2.165c0.137,0.969,0.307,1.941,0.549,2.89
					c0.193,0.751,1.264,0.711,1.477,0c0.633-2.12,1.033-4.154,2.828-5.638c-0.42-0.054-0.838-0.108-1.258-0.162
					c0.951,1.603,1.023,3.587,2.104,5.153c0.842,1.22,2.66,1.686,3.404,0.129c0.123-0.257-0.025-0.536-0.316-0.553
					c-0.576-0.034-1.207,0.09-1.648-0.337c-0.494-0.478-0.727-1.29-0.949-1.915c-0.387-1.09-0.613-2.281-1.211-3.284
					c-0.281-0.475-0.863-0.489-1.258-0.162c-1.934,1.602-2.699,3.972-3.172,6.362c0.492,0,0.984,0,1.477,0
					c-0.328-0.909-0.871-5.05-2.238-5.007C415.809,39.461,415.736,39.676,415.854,39.815L415.854,39.815z"/>
			</g>
		</g>
		<g>
			<g>
				<path fill="#333333" d="M445.732,38.301c0.07-0.136,0.344-0.113,0.443-0.239c0.211-0.268,0.262-0.402,0.371-0.745
					c0.09-0.281-0.102-0.632-0.395-0.695c-0.898-0.193-1.771-0.511-2.703-0.365c-0.361,0.057-0.893,0.529-1.193,0.708
					c-0.516,0.307-1.037,0.756-1.26,1.325c-0.377,0.964,0.221,1.786,0.965,2.357c1.197,0.919,2.516,1.609,3.666,2.603
					c0.346,0.298,1.555,1.25,1.457,1.811c-0.043,0.241-1.027,0.23-1.234,0.228c-1.059-0.012-2.871-0.442-3.416-1.375
					c-0.238-0.41-0.756-0.259-0.914,0.12c-1.113,2.666,5.65,3.964,6.965,1.956c1.186-1.808-1.533-3.896-2.715-4.791
					c-0.506-0.382-3.613-1.987-3.121-2.545c0.316-0.359,0.836-0.59,1.246-0.814c0.117-0.069,0.211-0.163,0.279-0.279
					c0.141-0.295,0.096-0.254-0.135,0.125c0.65-0.074,1.309,0.105,1.963,0.047c-0.188-0.188-0.377-0.376-0.564-0.565
					c0.051,0.44-0.23,0.602-0.201,1C445.254,38.413,445.6,38.551,445.732,38.301L445.732,38.301z"/>
			</g>
		</g>
		<g>
			<g>
				<path fill="#333333" d="M451.135,31.667c0.041,5.113,1.043,10.228,2.068,15.22c0.234,1.138,2.105,0.476,1.516-0.639
					c-0.137-0.254-0.27-0.51-0.398-0.767c-0.125-0.239-0.512-0.239-0.635,0c-0.131,0.257-0.264,0.513-0.398,0.767
					c0.504,0.066,1.01,0.132,1.516,0.198c-0.963-4.959-1.914-9.933-2.945-14.877C451.77,31.157,451.133,31.258,451.135,31.667
					L451.135,31.667z"/>
			</g>
		</g>
		<g>
			<g>
				<path fill="#333333" d="M449.502,40.042c2.25-0.21,5.125-0.012,7.189-1.221c0.586-0.343,0.354-1.327-0.352-1.3
					c-2.381,0.089-4.693,1.169-6.938,1.784C449.006,39.414,449.072,40.082,449.502,40.042L449.502,40.042z"/>
			</g>
		</g>
		<g>
			<g>
				<path fill="#333333" d="M462.131,39.192c-3.055-0.682-6.51,3.497-4.15,6.12c0.787,0.874,2.182,1.101,3.244,0.694
					c1.58-0.606,2.086-2.291,2.125-3.839c0.027-1.125-1.563-1.05-1.697,0c-0.219,1.696,0.916,3.095,2.59,3.354
					c1.064,0.166,3.338-0.599,2.602-2.056c-0.061-0.121-0.211-0.201-0.344-0.197c-0.543,0.015-0.947,0.431-1.465,0.595
					c-0.93,0.295-1.842-0.554-1.717-1.471c-0.555-0.075-1.111-0.15-1.666-0.226c-0.041,1.24-1.016,3.243-2.461,1.936
					c-1.641-1.482,1.871-3.641,2.939-3.961C462.578,40.007,462.623,39.302,462.131,39.192L462.131,39.192z"/>
			</g>
		</g>
		<g>
			<g>
				<path fill="#333333" d="M468.207,30.997c-1.152,1.501-0.58,3.967-0.336,5.752c0.393,2.87,1.564,5.948,1.594,8.831
					c0.018,1.584,2.537,1.09,2.027-0.274c-0.152-0.407-0.322-0.703-0.664-0.971c-0.219-0.173-0.441-0.173-0.662,0
					c-0.342,0.268-0.512,0.564-0.664,0.971c-0.508,1.364,2.012,1.858,2.027,0.274c0.025-2.406-1.063-5.055-1.566-7.395
					c-0.402-1.868-1.629-5.036-1.141-6.93C468.924,30.861,468.428,30.709,468.207,30.997L468.207,30.997z"/>
			</g>
		</g>
		<g>
			<g>
				<path fill="#333333" d="M466.16,39.072c-0.025-0.069-0.049-0.139-0.072-0.208c-0.09,0.067-0.178,0.135-0.268,0.203
					c0.408,0.135,0.854,0.055,1.281,0.101c0.625,0.067,1.248,0.136,1.871,0.211c0.83,0.101,2.398,0.615,3.07-0.084
					c0.365-0.382,0.305-0.873,0-1.26c-0.523-0.666-2.307-0.527-3.07-0.57c-1.037-0.059-2.16-0.049-3.105,0.437
					c-0.346,0.178-0.395,0.606-0.242,0.923c0.076,0.157,0.111,0.291,0.211,0.436C465.973,39.461,466.266,39.29,466.16,39.072
					L466.16,39.072z"/>
			</g>
		</g>
		<g>
			<g>
				<path fill="#333333" d="M475.896,41.036c0.979,0.321,2.279,0.285,2.982-0.589c0.572-0.714,0.539-1.734-0.037-2.436
					c-1.762-2.141-4.91,0.549-5.605,2.364c-0.924,2.413,0.879,4.633,2.98,5.628c1.008,0.477,2.176,0.747,3.287,0.551
					c0.945-0.167,2.285-0.911,2.162-2.047c-0.059-0.552-0.631-1.025-1.178-0.676c-0.428,0.272-0.639,0.73-1.143,0.895
					c-0.605,0.199-1.283,0.047-1.875-0.13c-1.268-0.379-2.541-1.341-2.84-2.681c-0.287-1.293,1.498-3.474,2.854-3.151
					c0.301,0.072,0.506,0.441,0.379,0.73c-0.301,0.683-1.346,0.712-1.967,0.804C475.492,40.357,475.57,40.929,475.896,41.036
					L475.896,41.036z"/>
			</g>
		</g>
	</g>
	<g>
		<g>
			<g>
				<path fill="#333333" d="M182.752,144.469c2.163,0.969,4.515-0.808,3.046-3.056c-1.635-2.503-5.193-0.511-5.986,1.687
					c-0.924,2.561,0.629,5.494,2.686,7.024c1.887,1.404,5.908,1.65,6.104-1.526c0.029-0.471-0.563-0.801-0.952-0.547
					c-0.621,0.405-1.064,1.1-1.781,1.336c-0.65,0.214-1.356-0.06-1.924-0.369c-1.423-0.779-2.415-2.327-2.721-3.893
					c-0.293-1.506,1.023-3.756,2.773-3.368c0.561,0.124,0.898,0.695,0.889,1.234c-0.016,0.782-1.455,0.657-1.917,0.677
					C182.578,143.686,182.335,144.281,182.752,144.469L182.752,144.469z"/>
			</g>
		</g>
		<g>
			<g>
				<path fill="#333333" d="M196.256,141.811c-2.323-1.936-4.776,0.816-6.101,2.698c-1.104,1.567-1.303,3.651-0.008,5.141
					c0.996,1.145,2.814,1.389,4.188,0.924c1.904-0.645,2.629-2.616,2.533-4.476c-0.061-1.188-1.656-1.125-1.799,0
					c-0.371,2.943,3.308,5.747,5.697,3.299c0.199-0.205,0.143-0.659-0.186-0.705c-1.784-0.252-4.051-0.061-3.713-2.594
					c-0.6,0-1.199,0-1.799,0c0.086,1.945-1.369,3.712-3.361,2.532c-0.808-0.479-0.778-1.444-0.545-2.23
					c0.508-1.702,2.819-4.526,4.697-3.91C196.235,142.612,196.571,142.072,196.256,141.811L196.256,141.811z"/>
			</g>
		</g>
		<g>
			<g>
				<path fill="#333333" d="M205.226,143.341c0.123,0.116,0.646,0.423,0.621,0.585c0.414,0,0.83,0,1.244,0
					c-0.461-1.848-2.275-2.524-3.906-3.111c-0.45-0.162-0.846,0.182-1,0.567c-1.132,2.841-1.873,6.61,0.23,9.174
					c1.902,2.322,6.888,1.404,6.601-1.958c-0.037-0.436-0.589-0.775-0.934-0.387c-0.718,0.811-1.512,1.735-2.653,1.856
					c-1.195,0.125-2.063-1.038-2.38-2.026c-0.63-1.964,0.014-4.363,0.704-6.228c-0.334,0.189-0.667,0.378-1,0.567
					c1.347,0.424,2.353,0.805,3.158,2.043c0.465,0.713,1.441,0.098,1.115-0.652c-0.355-0.818-0.645-0.63-1.385-0.971
					C205.306,142.646,204.924,143.055,205.226,143.341L205.226,143.341z"/>
			</g>
		</g>
		<g>
			<g>
				<path fill="#333333" d="M209.953,137.098c-0.215,2.184,0.479,4.207,0.989,6.31c0.346,1.423,0.385,2.96,0.655,4.404
					c0.168,0.897,0.587,5.002,2.392,4.295c0.326-0.129,0.478-0.338,0.52-0.684c0.021-0.17-0.018-0.293-0.072-0.455
					c-0.098-0.283-0.435-0.467-0.713-0.289c0.361-0.23,0.973,0.963,0.547-0.086c-0.157-0.387-0.273-0.789-0.392-1.188
					c-0.355-1.198-0.595-2.436-0.818-3.664c-0.542-2.974-1.511-5.811-2.095-8.779C210.846,136.349,210.007,136.559,209.953,137.098
					L209.953,137.098z"/>
			</g>
		</g>
		<g>
			<g>
				<path fill="#333333" d="M207.653,142.912c0.801,0.889,2.15,0.958,3.285,1.012c1.672,0.08,3.506-0.335,4.5-1.756
					c0.431-0.615-0.403-1.389-1.01-1.01c-1.045,0.654-2.281,0.886-3.49,0.998c-0.563,0.053-1.132,0.061-1.696,0.057
					c-0.187,0-0.914,0.068-1.049,0C207.739,141.982,207.311,142.531,207.653,142.912L207.653,142.912z"/>
			</g>
		</g>
		<g>
			<g>
				<path fill="#333333" d="M222.278,144.513c-0.945-4.417-9.756,1.136-5.9,5.396c1.209,1.338,3.393,1.76,5.066,1.23
					c2.331-0.74,2.813-3.149,2.414-5.287c-0.146-0.79-1.328-0.895-1.687-0.221c-0.692,1.302-1.149,3.161,0.064,4.344
					c1.038,1.012,2.813,1.338,3.986,0.375c0.171-0.139,0.126-0.471-0.072-0.564c-0.679-0.314-1.409-0.304-2.074-0.675
					c-1.081-0.605-0.835-1.603-0.311-2.548c-0.563-0.073-1.124-0.147-1.687-0.221c0.424,2.523-1.568,3.846-3.799,2.63
					c-3.229-1.762,2.365-6.395,3.412-4.213C221.856,145.103,222.351,144.852,222.278,144.513L222.278,144.513z"/>
			</g>
		</g>
		<g>
			<g>
				<path fill="#333333" d="M227.57,144.598c0.22,2.35,0.765,4.74,1.702,6.905c0.233,0.539,1.152,0.518,1.393,0
					c0.971-2.093,1.038-4.747,2.899-6.31c-0.47-0.124-0.938-0.248-1.407-0.371c0.346,1.521,0.472,3.076,1.253,4.463
					c0.641,1.136,2.242,2.114,3.379,1.132c0.192-0.166,0.157-0.469,0-0.641c-0.782-0.852-1.757-0.837-2.243-2.069
					c-0.416-1.057-0.506-2.232-0.766-3.334c-0.154-0.658-0.951-0.761-1.407-0.371c-2.046,1.746-2.063,4.389-3.101,6.688
					c0.465,0,0.928,0,1.393,0c-1.016-1.994-1.471-4.144-2.313-6.198C228.198,144.113,227.524,144.111,227.57,144.598L227.57,144.598
					z"/>
			</g>
		</g>
		<g>
			<g>
				<path fill="#333333" d="M236.742,136.371c-1.675,1.398-0.687,4.276-0.228,6.068c0.793,3.096,2.074,6.34,3.658,9.122
					c0.513,0.898,2.008,0.297,1.684-0.709c-0.187-0.582-0.311-0.898-0.564-1.444c-0.113-0.245-0.533-0.245-0.646,0
					c-0.254,0.546-0.378,0.862-0.564,1.444c0.561-0.074,1.122-0.146,1.684-0.221c-1.254-2.133-2.232-4.44-3.115-6.747
					c-0.496-1.299-2.557-5.73-1.454-7.061C237.46,136.506,237.062,136.105,236.742,136.371L236.742,136.371z"/>
			</g>
		</g>
		<g>
			<g>
				<path fill="#333333" d="M234.469,142.723c-0.458,0.002-0.913-0.035-1.366-0.109c-0.244-0.051-0.574,0.067-0.619,0.351
					c-0.025,0.16-0.07,0.313-0.093,0.475c-0.044,0.327,0.073,0.638,0.419,0.737c1.941,0.561,4.063,0.416,6.023,0.022
					c1.365-0.274,3.521-1.023,3.683-2.601c0.03-0.295-0.271-0.549-0.547-0.547c-1.224,0.01-2.405,1.117-3.597,1.479
					c-1.789,0.543-3.563,0.486-5.403,0.469c0.192,0.146,0.386,0.293,0.578,0.44c-0.022-0.161-0.067-0.314-0.093-0.475
					c-0.117,0.206-0.234,0.413-0.352,0.618c0.453-0.074,0.908-0.111,1.366-0.109C234.952,143.459,234.952,142.736,234.469,142.723
					L234.469,142.723z"/>
			</g>
		</g>
		<g>
			<g>
				<path fill="#333333" d="M247.854,142.873c-1.463-2.094-6.665,0.463-4.049,2.403c1.992,1.478,4.71,1.53,6.71,2.757
					c0.349,0.215,0.679,0.475,0.867,0.844c0.004,0.008,0.01,0.005-0.004,0.068c-0.016,0.068-0.043,0.108-0.113,0.185
					c-0.451,0.496-1.418,0.732-2.133,0.813c-0.919,0.104-1.926,0.043-2.761-0.385c-0.866-0.444-1.089-1.382-1.585-2.146
					c-0.12-0.184-0.417-0.264-0.577-0.074c-0.819,0.971-0.476,2.184,0.319,3.044c0.764,0.826,1.918,1.141,2.992,1.283
					c1.664,0.219,4.541-0.168,5.338-1.928c1.049-2.319-2.389-3.722-4.043-4.216c-1.271-0.381-2.604-0.688-3.788-1.304
					c-0.195-0.101-0.37-0.212-0.52-0.372c0.198,0.212-0.148,0.436,0.171,0.211c0.613-0.43,1.848-0.982,2.565-0.574
					C247.611,143.691,248.12,143.254,247.854,142.873L247.854,142.873z"/>
			</g>
		</g>
		<g>
			<g>
				<path fill="#333333" d="M171.199,140.69c0.101-0.192,0.116-0.329,0.21-0.545c-0.282-0.076-0.564-0.152-0.846-0.229
					c0.028,3.362,2.102,6.363,2.461,9.666c0.617-0.166,1.232-0.334,1.85-0.5c-0.666-1.509-0.472-3.611-0.25-5.193
					c0.111-0.793,0.283-1.611,0.668-2.318c0.329-0.605,0.903,0.504,1.154,0.874c0.754,1.11,2.57,0.062,1.808-1.057
					c-1.63-2.389-4.001-2.948-5.192,0.089c-0.971,2.469-1.016,6.181,0.099,8.607c0.468,1.018,2.216,0.283,1.813-0.766
					c-1.219-3.18-2.172-6.527-3.564-9.631c-0.241-0.536-1.012-0.071-0.783,0.457c0.092,0.216,0.108,0.353,0.209,0.545
					C170.907,140.827,171.127,140.827,171.199,140.69L171.199,140.69z"/>
			</g>
		</g>
	</g>
	<g>
		<g>
			<g>
				<path fill="#333333" d="M509.914,277.365c-0.489,0.615-0.304,1.314-0.123,2.027c0.353,1.383,0.994,2.744,0.974,4.193
					c-0.014,0.961,1.56,1.219,1.709,0.232c0.278-1.832,0.348-3.654,0.885-5.447c0.199-0.666,0.49-1.553,1.111-1.943
					c0.613-0.385,1.818,1.082,2.243,1.381c0.747,0.525,1.473-0.461,1.144-1.145c-0.578-1.201-1.904-2.252-3.284-2.24
					c-1.16,0.01-1.991,0.979-2.488,1.92c-1.101,2.082-1.609,5.143-1.288,7.475c0.569-0.078,1.14-0.154,1.709-0.232
					c-0.117-1.084-0.497-2.051-0.939-3.039c-0.408-0.91-1.108-1.928-1.118-2.961C510.445,277.338,510.092,277.141,509.914,277.365
					L509.914,277.365z"/>
			</g>
		</g>
		<g>
			<g>
				<path fill="#333333" d="M523.435,276.074c-3.181-1.424-4.924,2.574-4.047,5.109c0.791,2.283,3.372,3.73,5.68,2.883
					c1.675-0.617,3.322-2.375,3.123-4.277c-0.267-2.555-3.9-3.496-5.832-2.176c-0.419,0.287-0.308,0.816,0.131,1
					c0.847,0.355,1.811,0.303,2.694,0.543c0.465,0.125,0.839,0.412,0.925,0.689c0.082,0.262-0.03,0.656-0.242,1.031
					c-0.254,0.449-0.647,0.795-1.085,1.059c-1.188,0.715-2.23,0.166-3.086-0.75c-0.646-0.691-0.724-1.77-0.469-2.631
					c0.294-0.988,1.151-1.24,2.066-1.396C523.782,277.076,523.892,276.277,523.435,276.074L523.435,276.074z"/>
			</g>
		</g>
		<g>
			<g>
				<path fill="#333333" d="M535.351,278.213c0.098-0.191,0.192-0.385,0.284-0.58c0.159-0.338,0.07-0.65-0.228-0.867
					c-1.936-1.412-4.456,0.836-5.153,2.555c-0.898,2.219,0.939,4.41,2.881,5.129c2.504,0.926,4.918-1.393,5.729-3.527
					c1.221-3.207,1.078-6.814,0.204-10.094c-0.283-1.061-1.902-0.834-1.901,0.258c0.003,3.109-0.18,6.512,1.055,9.438
					c0.842,1.996,4.049,5.148,6.223,2.873c0.202-0.213,0.149-0.531-0.089-0.688c-0.856-0.563-1.936-0.438-2.859-0.926
					c-1.165-0.615-1.63-2.129-1.937-3.303c-0.626-2.387-0.474-4.951-0.457-7.395c-0.634,0.086-1.268,0.172-1.901,0.258
					c0.721,2.785,0.813,5.707-0.052,8.471c-0.556,1.775-2.226,3.416-4.131,2.371c-0.837-0.461-1.027-1.502-0.857-2.338
					c0.025-0.125,2.545-3.049,2.732-1.695C534.924,278.367,535.261,278.395,535.351,278.213L535.351,278.213z"/>
			</g>
		</g>
		<g>
			<g>
				<path fill="#333333" d="M545.949,275.77c-2.598,1.43-1.753,5.346,0.165,7.088c3.61,3.275,5.572-3.068,5.916-5.523
					c0.165-1.174-1.364-1.637-1.791-0.494c-0.688,1.842-0.598,3.57,0.625,5.141c1.108,1.422,3.441,1.82,4.952,0.916
					c0.279-0.168,0.202-0.557-0.086-0.656c-1.133-0.395-2.322-0.479-3.296-1.264c-1.141-0.92-0.857-2.457-0.404-3.643
					c-0.597-0.166-1.194-0.33-1.791-0.494c-0.179,1.205-0.998,6.584-3.159,4.422c-1.262-1.264-1.316-3.451-0.628-4.99
					C546.597,275.947,546.294,275.58,545.949,275.77L545.949,275.77z"/>
			</g>
		</g>
		<g>
			<g>
				<path fill="#333333" d="M564.425,269.797c-0.103-0.096-0.035,1.395-0.016,1.666c0.118,1.643,0.389,3.297,0.603,4.932
					c0.342,2.604,0.583,6.318,2.433,8.383c0.657,0.734,1.909-0.035,1.632-0.951c-0.187-0.617-0.292-0.887-0.57-1.457
					c-0.137-0.281-0.605-0.281-0.742,0c-0.278,0.57-0.384,0.84-0.57,1.457c0.544-0.143,1.088-0.287,1.632-0.43
					c-1.772-2.188-1.959-6.367-2.478-9.029c-0.244-1.256-0.231-4.299-1.563-5.037C564.495,269.17,564.171,269.563,564.425,269.797
					L564.425,269.797z"/>
			</g>
		</g>
		<g>
			<g>
				<path fill="#333333" d="M563.635,275.227c0.02,0.004,0.039,0.006,0.06,0.01c-0.032,0.238-0.064,0.475-0.097,0.713
					c0.21,0.014-0.298-0.279-0.042,0.012c0.139,0.156,0.281,0.223,0.486,0.254c0.609,0.09,1.213,0.131,1.83,0.088
					c1.157-0.082,2.838-0.127,3.644-1.096c0.378-0.453,0.185-1.334-0.53-1.279c-1.123,0.084-2.225,0.504-3.344,0.674
					c-0.525,0.078-1.096,0.137-1.6,0.311c-0.235,0.082-0.37,0.125-0.528,0.332c-0.14,0.184,0.301-0.047,0.084-0.021
					c-0.452,0.055-0.478,0.748,0,0.727c0.013-0.002,0.024-0.002,0.037-0.004C564.098,275.904,564.097,275.27,563.635,275.227
					L563.635,275.227z"/>
			</g>
		</g>
		<g>
			<g>
				<path fill="#333333" d="M574.459,275.896c-0.821-1.23-2.527-1.418-3.563-0.32c-1.228,1.305,0.139,3.262,1.311,4.02
					c1.188,0.77,2.941,0.777,3.972,1.764c0.341,0.326-1.675,1.342-1.87,1.387c-1.288,0.299-1.64-0.746-2.375-1.459
					c-0.214-0.205-0.498-0.129-0.663,0.086c-1.289,1.682,1.338,2.975,2.66,3.031c1.481,0.061,3.775-1.273,3.845-2.924
					c0.063-1.465-1.609-2.006-2.73-2.398c-0.763-0.266-1.545-0.486-2.233-0.922c-0.415-0.262-1.198-1.223-0.765-1.752
					c0.436-0.531,1.402-0.236,1.898,0.002C574.258,276.561,574.685,276.236,574.459,275.896L574.459,275.896z"/>
			</g>
		</g>
		<g>
			<g>
				<path fill="#333333" d="M559.809,277.26c0.087,0,0.174,0,0.26,0c0.121,0.213,0.242,0.426,0.363,0.639
					c0.229-0.611-0.354-1.729-0.758-2.184c-0.82-0.92-1.954-0.738-2.917-0.152c-1.96,1.191-2.443,3.523-1.534,5.533
					c0.782,1.73,2.389,3.193,4.206,3.764c1.727,0.541,4.193-0.719,3.553-2.814c-0.243-0.795-1.198-0.836-1.647-0.217
					c-0.548,0.754-0.354,1.266-1.349,1.012c-1.032-0.262-1.961-1.121-2.557-1.969c-0.63-0.898-1-1.986-0.415-2.996
					c0.186-0.32,1.022-1.293,1.431-1.076c0.355,0.189,0.54,0.82,0.732,1.15c0.174,0.299,0.483,0.379,0.803,0.328
					c0.337-0.055,0.493-0.252,0.6-0.568C560.725,277.275,560.113,276.918,559.809,277.26L559.809,277.26z"/>
			</g>
		</g>
		<g>
			<g>
				<path fill="#333333" d="M497.893,276.504c-1.15,0.457-1.034,3.926-1.141,4.928c-0.27,2.537-0.636,5.852,0.613,8.196
					c0.565,1.064,2.412,0.32,1.968-0.829c-0.195-0.506-0.357-0.959-0.712-1.373c-0.155-0.18-0.497-0.18-0.652,0
					c-0.354,0.414-0.517,0.867-0.712,1.373c0.692,0,1.384,0,2.076,0c-0.924-2.734-0.745-5.701-0.712-8.553
					C498.624,279.955,498.896,276.105,497.893,276.504L497.893,276.504z"/>
			</g>
		</g>
		<g>
			<g>
				<path fill="#333333" d="M496.33,276.984c-0.216-1.076,2.365-0.82,3.069-0.789c1.417,0.061,3.084,0.117,4.167,1.121
					c1.416,1.311,0.72,2.686-0.738,3.5c-0.658,0.367-1.426,0.502-2.171,0.494c-0.808-0.008-1.385-0.561-2.136-0.713
					c-0.667-0.137-1.168,0.391-1.048,1.047c0.795,4.32,12.848,0.416,7.748-5.457c-1.661-1.912-4.661-1.902-6.975-1.646
					c-1.14,0.127-4.533,1.334-2.479,2.875C496.063,277.637,496.389,277.273,496.33,276.984L496.33,276.984z"/>
			</g>
		</g>
	</g>
	<g>
		<g>
			<path fill="#699C52" d="M172.178,234.286c1.458-0.203,2.659-1.614,1.493-2.946c-1.177-1.344-2.948-0.975-3.843,0.45
				c-1.222,1.947-0.832,4.833,1.088,6.135c2.068,1.402,4.834,0.133,6.277-1.535c0.527-0.609-0.37-1.502-0.884-0.885
				c-2.082,2.502-6.236,2.453-6.073-1.521c0.046-1.118,0.782-3.044,2.225-2.423c1.436,0.618,0.519,1.651-0.47,2.048
				C171.566,233.778,171.73,234.349,172.178,234.286L172.178,234.286z"/>
		</g>
	</g>
	<g>
		<g>
			<path fill="#699C52" d="M178.47,231.895c1.393,1.789,1.68,3.781,2.293,5.899c0.214,0.74,1.323,0.589,1.334-0.181
				c0.015-1.004-0.552-5.021,0.623-5.468c1.303-0.495,2.278,2.722,2.574,3.478c0.416,1.06,0.88,2.105,1.966,2.563
				c0.523,0.221,0.881-0.465,0.67-0.872c-0.449-0.87-1.016-1.583-1.386-2.513c-0.36-0.905-0.696-1.795-1.244-2.607
				c-0.635-0.94-1.985-1.821-3.147-1.372c-2.192,0.846-1.474,5.04-1.415,6.792c0.445-0.061,0.89-0.12,1.334-0.181
				c-0.706-2.062-1.124-4.907-3.12-6.163C178.538,231.008,178.212,231.563,178.47,231.895L178.47,231.895z"/>
		</g>
	</g>
	<g>
		<g>
			<path fill="#699C52" d="M190.979,234.331c1.49,0.597,2.466-0.822,2.008-2.163c-0.423-1.239-1.954-2.09-2.893-0.825
				c-1.301,1.752-1.003,4.531,0.652,5.923c1.682,1.414,4.375,1.092,5.809-0.516c0.583-0.654-0.277-1.458-0.939-0.939
				c-1.044,0.818-2.095,1.253-3.405,0.806c-1.313-0.449-1.764-1.936-1.584-3.181c0.073-0.507,0.407-2.101,1.061-1.183
				c0.583,0.82,0.046,1.109-0.707,1.311C190.566,233.673,190.635,234.193,190.979,234.331L190.979,234.331z"/>
		</g>
	</g>
	<g>
		<g>
			<path fill="#699C52" d="M197.82,231.879c1.243,1.548,2.176,3.42,2.887,5.265c0.449-0.189,0.898-0.379,1.348-0.568
				c-0.787-1.128-1.432-2.502-1.415-3.899c0.026-2.132,2.218-0.577,3.228-0.974c0.169-0.066,0.342-0.217,0.321-0.422
				c-0.101-0.99-1.208-1.343-2.084-1.398c-1.04-0.066-1.954,0.29-2.527,1.195c-1.225,1.932-0.011,4.606,1.204,6.242
				c0.57,0.767,1.658,0.13,1.273-0.744c-0.861-1.954-2.089-3.818-3.705-5.228C197.98,231.025,197.52,231.505,197.82,231.879
				L197.82,231.879z"/>
		</g>
	</g>
	<g>
		<g>
			<path fill="#699C52" d="M209.306,232.06c-2.052-2.543-5.565,2.431-3.636,4.748c0.777,0.933,2.256,1.098,3.343,0.774
				c1.585-0.472,2.05-2.171,1.93-3.635c-0.075-0.922-1.447-1.222-1.687-0.229c-0.6,2.497,2.583,4.101,4.219,5.319
				c1.243,0.926,2.778,2.162,1.776,3.792c-1.731,2.815-4.937-0.447-5.843-2.072c-0.168-0.302-0.581-0.201-0.686,0.09
				c-1.562,4.34,6.977,6.592,8.502,2.011c0.609-1.829-0.447-3.304-1.774-4.477c-0.928-0.82-4.875-2.763-4.538-4.206
				c-0.563-0.076-1.125-0.152-1.687-0.229c0.114,1.305-0.362,2.426-1.844,2.035c-2.019-0.533,0.269-3.759,1.62-3.4
				C209.327,232.668,209.493,232.292,209.306,232.06L209.306,232.06z"/>
		</g>
	</g>
	<g>
		<g>
			<path fill="#699C52" d="M217.451,231.864c-0.315,1.838,0.272,5.604,2.912,5.298c2.4-0.279,2.406-3.78,1.864-5.438
				c-0.279-0.854-1.771-0.758-1.647,0.223c0.465,3.676,4.055,5.663,6.369,8.173c1.542,1.673,1.902,4.311-0.975,4.462
				c-2.09,0.109-3.769-1.199-4.742-2.915c-0.279-0.491-1.02-0.261-1.034,0.28c-0.11,4.29,7.24,5.94,9.401,2.512
				c3.052-4.844-6.786-8.626-7.372-12.734c-0.539,0.148-1.078,0.297-1.617,0.445c0.343,0.997,0.637,2.636-0.385,3.391
				c-0.734,0.542-1.847-3.295-2.203-3.771C217.88,231.6,217.502,231.565,217.451,231.864L217.451,231.864z"/>
		</g>
	</g>
	<g>
		<g>
			<path fill="#699C52" d="M236.546,232.971c0.011,0.005,0.021,0.01,0.032,0.015c-0.05-0.19-0.1-0.38-0.15-0.57
				c-0.427,0.582-0.147,1.695-0.092,2.366c0.075,0.907,0.094,1.916,0.432,2.771c0.489,1.234,2.174,0.763,1.974-0.545
				c-0.062-0.4,0.073-0.641-0.195-0.996c-0.177-0.234-0.451-0.343-0.727-0.19c-0.402,0.223-0.705,0.559-0.949,0.942
				c0.624,0.082,1.247,0.163,1.871,0.244c-0.199-0.894-0.373-1.793-0.585-2.685c-0.205-0.865-0.367-1.866-1.292-2.109
				C236.424,232.099,236.109,232.769,236.546,232.971L236.546,232.971z"/>
		</g>
	</g>
	<g>
		<g>
			<path fill="#699C52" d="M236.324,226.876c-0.076-0.039-0.151-0.077-0.228-0.115c-0.199-0.101-0.479-0.144-0.674,0
				c-0.702,0.517-0.371,1.472,0.428,1.666c0.45,0.109,0.808-0.28,0.718-0.718c-0.025-0.118-0.065-0.246-0.125-0.352
				c-0.212-0.373,0.104,0.12-0.023,0.254C236.616,227.403,236.603,227.016,236.324,226.876L236.324,226.876z"/>
		</g>
	</g>
	<g>
		<g>
			<path fill="#699C52" d="M242.421,231.913c-1.213,0.123-2.94,0.687-1.936,2.189c0.827,1.238,2.456,1.858,3.616,2.725
				c-0.076-0.289-0.151-0.578-0.227-0.866c-0.639,1.082-1.722,1.005-2.788,0.814c-0.539-0.096-1.153,0.618-0.607,1.043
				c1.409,1.095,3.685,0.224,4.488-1.219c0.18-0.321,0.059-0.664-0.227-0.866c-0.778-0.552-1.629-0.993-2.419-1.527
				c-0.358-0.242-0.775-0.528-1.04-0.878c-0.305-0.401,1.005-0.637,1.237-0.693C242.914,232.538,242.838,231.871,242.421,231.913
				L242.421,231.913z"/>
		</g>
	</g>
	<g>
		<g>
			<path fill="#699C52" d="M167.8,256.882c-0.502,1.684,0.132,3.713,0.188,5.45c0.035,1.082,1.388,1.137,1.767,0.239
				c0.222-0.525,0.158-1.104-0.263-1.51c-0.156-0.151-0.384-0.141-0.541,0c-0.185,0.165-0.314,0.337-0.518,0.494
				c0.451,0.259,0.902,0.518,1.354,0.776c-0.003-1.862-0.49-3.739-1.144-5.45C168.494,256.489,167.931,256.442,167.8,256.882
				L167.8,256.882z"/>
		</g>
	</g>
	<g>
		<g>
			<path fill="#699C52" d="M168.07,251.998c0.002-0.039,0.005-0.078,0.007-0.117c-0.051,0.123-0.102,0.246-0.153,0.369
				c0.039-0.032,0.078-0.065,0.117-0.099c0.471-0.401,0.078-1.174-0.486-1.174s-0.958,0.772-0.486,1.174
				c0.039,0.033,0.078,0.066,0.117,0.099c-0.051-0.123-0.102-0.246-0.153-0.369c0.002,0.039,0.004,0.078,0.007,0.117
				C167.079,252.662,168.03,252.662,168.07,251.998L168.07,251.998z"/>
		</g>
	</g>
	<g>
		<g>
			<path fill="#699C52" d="M172.742,256.748c-0.743,0.51-0.649,1.481-0.63,2.284c0.033,1.327,0.306,2.636,0.293,3.966
				c-0.009,0.901,1.448,1.143,1.605,0.217c0.266-1.563,0.274-4.099,1.43-5.307c0.403-0.421,1.277,1.956,1.362,2.318
				c0.272,1.157,0.542,2.767,1.919,3.041c0.431,0.086,0.938-0.286,0.769-0.769c-0.255-0.729-0.637-1.37-0.836-2.124
				c-0.234-0.889-0.409-1.756-0.846-2.574c-0.548-1.027-1.886-2.052-3.073-1.485c-2.047,0.978-2.117,4.776-2.331,6.683
				c0.544,0,1.089,0,1.634,0c-0.056-0.993-0.285-1.974-0.479-2.946c-0.161-0.806-0.668-2.167-0.393-2.977
				C173.246,256.841,172.949,256.606,172.742,256.748L172.742,256.748z"/>
		</g>
	</g>
	<g>
		<g>
			<path fill="#699C52" d="M194.999,257.694c-1.987-1.2-4.323-1.469-5.876,0.529c-1.005,1.292-0.936,3.167,0.034,4.441
				c0.919,1.209,2.37,1.728,3.847,1.52c1.78-0.25,2.471-2.157,2.618-3.69c-0.585,0.079-1.171,0.158-1.756,0.237
				c0.53,1.806,3.243,3.509,4.751,1.649c0.129-0.159,0.119-0.374-0.063-0.49c-1.023-0.656-2.542-0.181-2.963-1.634
				c-0.296-1.021-1.66-0.733-1.756,0.237c-0.182,1.837-1.71,2.608-3.129,1.295c-0.619-0.572-0.668-1.366-0.436-2.126
				c0.617-2.011,2.877-1.278,4.315-0.983C195.173,258.801,195.539,258.021,194.999,257.694L194.999,257.694z"/>
		</g>
	</g>
	<g>
		<g>
			<path fill="#699C52" d="M198.996,257.494c-0.176,1.526,0.607,3.086,0.923,4.557c0.159,0.737,1.168,0.783,1.53,0.2
				c0.935-1.51,1.032-3.456,2.24-4.795c-0.465-0.06-0.931-0.119-1.396-0.18c1.185,1.619,1.772,5.489,4.433,5.302
				c0.611-0.043,1.047-0.808,0.53-1.28c-0.831-0.76-1.514-1.136-2.03-2.203c-0.449-0.929-0.776-1.88-1.399-2.715
				c-0.32-0.43-0.981-0.647-1.396-0.18c-1.331,1.5-1.58,3.446-2.428,5.205c0.51,0.067,1.02,0.134,1.53,0.2
				c-0.474-1.444-1.306-2.779-1.755-4.217C199.637,256.935,199.046,257.062,198.996,257.494L198.996,257.494z"/>
		</g>
	</g>
	<g>
		<g>
			<path fill="#699C52" d="M238.343,256.658c-0.012,0.041-0.024,0.082-0.037,0.123c0.025-0.093,0.025-0.186,0-0.277
				c-0.032-0.116-0.112-0.255-0.196-0.339c-0.209-0.21-0.507-0.275-0.792-0.242c-0.725,0.083-1.189,0.643-1.537,1.236
				c-0.76,1.3-0.991,3.291,0.085,4.473c2.476,2.718,8.182-0.41,6.509-4.005c-0.423-0.909-1.201-1.469-2.143-1.76
				c-0.655-0.201-2.022-0.132-2.25,0.698c-0.232,0.846,0.794,0.802,1.32,0.885c0.945,0.149,1.712,0.898,1.471,1.902
				c-0.328,1.36-2.994,2.038-3.769,0.796c-0.337-0.541,0.063-1.627,0.228-2.163c0.213-0.692,0.499-0.623,0.966-0.995
				c-0.154,0.02-0.309,0.04-0.464,0.06c0.05,0.022,0.099,0.046,0.149,0.068C238.166,257.248,238.54,256.968,238.343,256.658
				L238.343,256.658z"/>
		</g>
	</g>
	<g>
		<g>
			<path fill="#699C52" d="M246.35,253.16c0.079-0.229,0.158-0.459,0.236-0.688c-0.376-0.158-0.752-0.317-1.129-0.476
				c-0.502,2.111-0.201,4.338,0.108,6.462c0.141,0.97,0.244,2.993,1.602,2.998c0.515,0.002,0.914-0.423,0.927-0.927
				c0.022-0.892-0.492-1.958-0.649-2.85c-0.332-1.879-0.353-3.836-0.796-5.684c-0.22-0.914-1.65-0.235-1.129,0.476
				c0.079,0.229,0.157,0.459,0.236,0.688C245.774,253.543,246.332,253.543,246.35,253.16L246.35,253.16z"/>
		</g>
	</g>
	<g>
		<g>
			<path fill="#699C52" d="M244.111,255.533c-0.007-0.001-0.013-0.002-0.02-0.002c0.098,0.236,0.196,0.473,0.294,0.709
				c-0.172,0.172-0.476,0.029-0.271,0.149c0.131,0.077,0.321,0.125,0.467,0.153c0.448,0.087,0.932,0.09,1.385,0.08
				c0.828-0.018,2.294,0.205,2.918-0.466c0.282-0.304,0.307-0.785,0-1.086c-0.767-0.749-2.407-0.241-3.333-0.107
				c-0.427,0.062-0.991,0.157-1.346,0.417c-0.078,0.027-0.146,0.07-0.206,0.13c-0.29,0.29,0.167-0.009,0.006,0.025
				c-0.125,0.027-0.2,0.103-0.273,0.2c-0.193,0.257,0.068,0.632,0.358,0.625c0.007,0,0.013,0,0.02,0
				C244.659,256.349,244.628,255.595,244.111,255.533L244.111,255.533z"/>
		</g>
	</g>
	<g>
		<g>
			<path fill="#699C52" d="M249.521,252.16c0.126,3.258,1.205,6.384,1.25,9.668c0.014,1.043,1.643,1.326,1.861,0.252
				c0.377-1.853,0.684-3.75,1.579-5.438c-0.5,0.064-1,0.129-1.5,0.193c1.959,1.697,2.147,3.77,3.143,5.97
				c0.239,0.529,0.971,0.305,1.128-0.147c0.856-2.466-1.146-5.585-2.92-7.174c-0.446-0.398-1.189-0.369-1.5,0.193
				c-1.019,1.849-1.377,3.846-1.757,5.898c0.62,0.084,1.241,0.168,1.861,0.252c-0.104-3.314-0.9-6.724-2.102-9.81
				C250.36,251.494,249.497,251.52,249.521,252.16L249.521,252.16z"/>
		</g>
	</g>
	<g>
		<g>
			<path fill="#699C52" d="M261.053,258.605c1.437,0.191,2.753-1.189,2.156-2.585c-0.568-1.328-2.17-1.137-2.96-0.155
				c-1.192,1.479-1.085,3.645,0.245,4.985c1.267,1.276,3.638,1.318,4.827-0.088c0.582-0.688-0.202-1.947-1.032-1.338
				c-0.688,0.506-1.351,0.917-2.211,0.52c-0.916-0.424-1.206-1.419-1.005-2.348c0.025-0.117,0.54-1.382,0.802-1.03
				c0.416,0.559-0.748,1.011-1.047,1.209C260.433,258.039,260.624,258.548,261.053,258.605L261.053,258.605z"/>
		</g>
	</g>
	<g>
		<g>
			<path fill="#699C52" d="M268.195,256.251c-0.912-0.658-1,0.94-0.888,1.511c0.267,1.365,0.789,2.652,1.212,3.972
				c0.307,0.957,1.763,0.799,1.768-0.239c0.005-1.008-0.175-2.012-0.213-3.02c-0.009-0.259-0.007-0.94,0.069-1.035
				c-0.08,0.1-0.208,0.039,0.062,0.125c0.335,0.106,0.609,0.321,0.958,0.409c0.655,0.165,1.418-0.607,0.953-1.239
				c-1.032-1.401-3.247-1.605-3.809,0.285c-0.429,1.446,0.127,3.017,0.181,4.475c0.589-0.08,1.178-0.159,1.768-0.239
				c-0.327-0.89-0.738-1.749-1.101-2.624c-0.266-0.643-0.568-2.032-1.191-2.417c0.037,0.142,0.074,0.283,0.111,0.425
				c-0.055,0.033-0.109,0.065-0.164,0.099C268.242,256.884,268.491,256.465,268.195,256.251L268.195,256.251z"/>
		</g>
	</g>
	<g>
		<g>
			<path fill="#699C52" d="M273.009,257.049c0.677,1.467,1.221,2.804,1.221,4.445c0,1.063,1.625,1.061,1.646,0
				c0.021-1.056-0.436-3.253,0.608-3.928c-0.345-0.045-0.69-0.09-1.036-0.134c0.671,0.816,0.98,1.851,1.657,2.675
				c0.33,0.401,1.151,0.313,1.362-0.176c0.567-1.317,0.719-2.865,1.824-3.865c-0.424-0.055-0.848-0.109-1.272-0.163
				c1.096,1.531,1.302,3.304,2.139,4.918c0.315,0.607,1.174,0.278,1.208-0.327c0.102-1.804-0.957-3.945-1.949-5.409
				c-0.308-0.453-0.859-0.519-1.272-0.163c-1.305,1.122-1.489,2.644-2.176,4.135c0.454-0.059,0.908-0.117,1.362-0.176
				c-0.676-0.81-0.993-1.84-1.675-2.657c-0.234-0.28-0.738-0.329-1.036-0.134c-1.779,1.172-1.478,3.541-1.392,5.404
				c0.549,0,1.098,0,1.646,0c-0.165-1.883-0.813-3.631-2.18-4.976C273.323,256.151,272.808,256.613,273.009,257.049L273.009,257.049
				z"/>
		</g>
	</g>
	<g>
		<g>
			<path fill="#699C52" d="M283.327,256.603c0.281,1.014,0.33,2.093,0.513,3.128c0.075,0.426,0.22,0.848,0.463,1.208
				c0.14,0.208,0.307,0.283,0.531,0.375c0.106,0.044,0.778-0.002,0.449-0.002c0.392,0,0.708-0.567,0.35-0.845
				c0.171,0.133,0.121,0.393,0.037,0.011c-0.042-0.194-0.145-0.34-0.238-0.51c-0.194-0.354-0.293-0.796-0.408-1.182
				c-0.257-0.862-0.441-1.742-0.955-2.497C283.817,255.918,283.199,256.141,283.327,256.603L283.327,256.603z"/>
		</g>
	</g>
	<g>
		<g>
			<path fill="#699C52" d="M282.667,252.323c0.002,0.878,0.373,2.061,1.252,2.104c-0.187-0.107-0.374-0.214-0.56-0.321
				c0.036,0.05,0.072,0.1,0.107,0.15c0.344,0.486,1.038,0.297,1.09-0.296c0.005-0.061,0.009-0.121,0.011-0.182
				c-0.063,0.153-0.127,0.306-0.19,0.459c0.203-0.163,0.246-0.435,0.251-0.678c-0.036,0.131-0.071,0.263-0.106,0.394
				c0.368-0.707-0.116-1.39-0.401-2.024C283.791,251.193,282.666,251.595,282.667,252.323L282.667,252.323z"/>
		</g>
	</g>
	<g>
		<g>
			<path fill="#699C52" d="M289.01,256.725c-0.104,0.305-0.203,0.61-0.312,0.914c-0.139,0.387,0.155,0.755,0.499,0.878
				c0.172,0.062,0.341,0.088,0.522,0.106c0.446,0.047,0.776-0.397,0.795-0.795c0.067-1.422-0.712-2.82-2.295-2.527
				c-1.437,0.267-2.234,1.978-2.339,3.269c-0.141,1.74,1.167,3.336,2.807,3.715c1.469,0.339,3.573,0.083,4.45-1.285
				c0.179-0.28,0.183-0.706,0-0.986c-0.013-0.02-0.026-0.039-0.039-0.059c-0.237-0.363-0.575-0.458-0.986-0.401
				c-0.402,0.056-0.526,0.394-0.827,0.587c-0.355,0.229-0.758,0.324-1.168,0.402c-1.033,0.194-1.854-0.167-2.346-1.065
				c-0.413-0.754-0.116-1.716,0.444-2.296c0.614-0.636,0.65,0.056,0.708,0.647c0.265-0.265,0.53-0.53,0.795-0.795
				c-0.181,0.019-0.35,0.045-0.522,0.106c0.293,0.166,0.585,0.332,0.878,0.499c-0.109-0.304-0.208-0.609-0.312-0.914
				C289.637,256.353,289.137,256.353,289.01,256.725L289.01,256.725z"/>
		</g>
	</g>
	<g>
		<g>
			<path fill="#699C52" d="M302.118,257.078c0.947,1.407,1.435,3.055,1.961,4.651c0.275,0.834,1.495,0.684,1.526-0.206
				c0.049-1.414-0.597-2.731-0.761-4.12c-0.093-0.792,0.192-2.269,1.2-2.342c0.653-0.048,1.235,0.762,1.795,1.015
				c0.51,0.231,1.071-0.141,0.941-0.723c-0.473-2.116-3.305-2.525-4.671-1.097c-1.981,2.069-0.352,4.93-0.057,7.267
				c0.482-0.131,0.965-0.262,1.448-0.392c-0.945-1.46-1.311-3.441-2.693-4.584C302.447,256.252,301.822,256.638,302.118,257.078
				L302.118,257.078z"/>
		</g>
	</g>
	<g>
		<g>
			<path fill="#699C52" d="M310.812,258.729c2.343,3.45,6.376-3.74,2.211-4.133c-1.042-0.098-2.26,0.634-2.896,1.395
				c-0.869,1.039-0.899,2.48-0.522,3.722c0.377,1.24,1.312,2.303,2.469,2.866c1.345,0.656,3.535-0.398,4.59-1.218
				c0.543-0.422,0.034-1.169-0.503-1.214c-0.926-0.078-1.695,0.517-2.537,0.826c-1.087,0.4-1.862-0.545-2.324-1.391
				c-0.761-1.395-0.13-3.218,1.573-3.389c0.642-0.065,0.318,0.981,0.175,1.293c-0.409,0.894-0.923,1-1.779,0.646
				C310.94,257.995,310.623,258.45,310.812,258.729L310.812,258.729z"/>
		</g>
	</g>
	<g>
		<g>
			<path fill="#699C52" d="M321.104,256.686c0.254-0.389,0.3-0.514,0.452-0.961c0.102-0.3-0.058-0.714-0.347-0.854
				c-3.771-1.819-6.509,4.337-4.216,7.022c0.977,1.145,2.42,1.233,3.728,0.653c1.516-0.673,2.129-2.493,2.053-4.023
				c-0.63,0-1.261,0-1.892,0c0.135,1.725,2.325,4.989,4.228,2.949c0.181-0.194,0.139-0.482-0.081-0.626
				c-1.066-0.698-2.17-0.763-2.255-2.323c-0.066-1.211-1.94-1.224-1.892,0c0.043,1.104-0.763,3.128-2.214,2.294
				c-0.677-0.39-0.602-1.728-0.5-2.353c0.221-1.364,1.321-2.225,2.661-2.186c-0.243-0.186-0.486-0.37-0.729-0.555
				c0.152,0.447,0.198,0.572,0.452,0.961C320.687,256.892,320.97,256.892,321.104,256.686L321.104,256.686z"/>
		</g>
	</g>
	<g>
		<g>
			<path fill="#699C52" d="M328.811,256.523c-0.006,0.166-0.221,0.311-0.262,0.498c-0.072,0.324,0.093,0.705,0.444,0.783
				c0.105,0.022,0.209,0.047,0.314,0.071c0.399,0.092,0.74-0.12,0.875-0.496c0.417-1.166,0.155-2.954-1.507-2.586
				c-1.5,0.331-2.35,1.874-2.508,3.286c-0.425,3.795,6.473,5.728,6.948,1.683c0.08-0.685-0.81-0.867-1.228-0.508
				c-0.707,0.606-1.137,1.154-2.161,0.975c-0.825-0.146-1.564-0.682-1.804-1.496c-0.226-0.766,0.148-1.548,0.68-2.083
				c0.14-0.141,0.542-0.279,0.401-0.299c-0.112-0.016-0.148-0.207-0.136-0.014c0.015,0.23-0.012,0.438-0.055,0.663
				c0.166-0.165,0.331-0.331,0.497-0.496c-0.105,0.024-0.209,0.049-0.314,0.071c0.261,0.148,0.522,0.297,0.783,0.445
				c-0.042-0.188-0.256-0.332-0.262-0.498C329.497,256.07,328.827,256.07,328.811,256.523L328.811,256.523z"/>
		</g>
	</g>
	<g>
		<g>
			<path fill="#699C52" d="M333.597,251.346c0.704,2.167,1.004,4.558,1.35,6.804c0.174,1.134,0.327,3.003,1.247,3.806
				c0.428,0.373,1.132,0.359,1.429-0.184c0.477-0.872-0.522-2.653-0.723-3.546c-0.561-2.491-0.909-5.103-2.232-7.331
				C334.334,250.333,333.388,250.702,333.597,251.346L333.597,251.346z"/>
		</g>
	</g>
	<g>
		<g>
			<path fill="#699C52" d="M333.794,257.821c0.036-0.038,0.072-0.077,0.108-0.116c-0.142,0.038-0.283,0.075-0.425,0.113
				c0.533,0.223,1.68-0.325,2.229-0.446c0.922-0.203,1.856-0.273,2.685-0.767c0.742-0.441,0.365-1.448-0.412-1.521
				c-1.103-0.102-2.211,0.26-3.223,0.665c-0.466,0.187-0.904,0.441-1.251,0.809c-0.117,0.123-0.215,0.276-0.307,0.419
				c-0.054,0.093-0.081,0.192-0.082,0.3c0.023,0.199,0.028,0.211,0.013,0.033C332.875,257.716,333.467,258.172,333.794,257.821
				L333.794,257.821z"/>
		</g>
	</g>
	<g>
		<g>
			<path fill="#699C52" d="M340.338,256.389c-0.377,1.249-0.096,3.445,0.938,4.354c0.879,0.771,2.166-0.489,1.293-1.293
				c-0.77-0.709-0.929-2.12-1.252-3.061C341.156,255.918,340.489,255.891,340.338,256.389L340.338,256.389z"/>
		</g>
	</g>
	<g>
		<g>
			<path fill="#699C52" d="M340.381,251.807c-0.454,0.271-0.718,0.916-0.404,1.398c0.292,0.449,0.623,0.604,1.102,0.649
				c0.389,0.037,0.771-0.368,0.747-0.747c-0.004-0.101-0.016-0.201-0.034-0.301c-0.019,0.144-0.034,0.083-0.044-0.181
				c-0.106-0.242-0.125-0.29-0.057-0.144c-0.039-0.092-0.078-0.184-0.116-0.275c0.042,0.155,0.084,0.311,0.126,0.466
				c0.001-0.017,0.001-0.033,0.002-0.051c-0.042,0.153-0.083,0.307-0.125,0.46c0.01-0.016,0.02-0.032,0.03-0.049
				C342.087,252.264,341.145,251.351,340.381,251.807L340.381,251.807z"/>
		</g>
	</g>
	<g>
		<g>
			<path fill="#699C52" d="M344.807,255.916c-1.582,0.839-2.18,2.565-1.044,4.061c1.128,1.485,3.154,2.104,4.939,1.648
				c1.91-0.486,3.363-2.715,2.442-4.595c-0.763-1.558-3.211-2.284-4.346-0.72c-0.205,0.281,0.079,0.612,0.364,0.635
				c0.924,0.073,1.872-0.098,2.406,0.834c0.581,1.013-0.624,2.027-1.492,2.26c-1.624,0.437-4.615-1.364-2.56-2.908
				C346.227,256.598,345.628,255.48,344.807,255.916L344.807,255.916z"/>
		</g>
	</g>
	<g>
		<g>
			<path fill="#699C52" d="M351.764,256.523c-0.021,1.537,0.343,3.137,0.891,4.566c0.315,0.822,1.372,0.834,1.684,0
				c0.607-1.626,0.822-3.719,2.592-4.49c-0.392-0.103-0.784-0.205-1.177-0.309c0.8,1.739,1.156,3.729,2.543,5.134
				c1.233,1.249,3.502,1.134,4.641-0.125c0.372-0.412,0.113-1.041-0.442-1.067c-1.614-0.078-2.643,0.607-3.638-1.065
				c-0.691-1.161-1.029-2.527-1.62-3.743c-0.222-0.458-0.774-0.483-1.177-0.309c-2.239,0.968-2.647,3.444-3.408,5.51
				c0.532-0.069,1.063-0.139,1.596-0.208c-0.695-1.325-1.042-2.786-1.744-4.095C352.314,255.964,351.769,256.139,351.764,256.523
				L351.764,256.523z"/>
		</g>
	</g>
	<g>
		<g>
			<path fill="#699C52" d="M254.631,232c-0.165,1.754,0.446,3.459,0.749,5.171c0.391-0.165,0.781-0.33,1.172-0.494
				c-0.512-1.136-0.452-2.667-0.236-3.861c0.095-0.524,0.25-1.102,0.625-1.497c0.435-0.458,1.216,0.274,1.537,0.534
				c0.72,0.583,1.744-0.379,1.039-1.039c-1.587-1.486-3.504-1.412-4.317,0.736c-0.643,1.7-0.543,4.137,0.244,5.773
				c0.324,0.674,1.346,0.19,1.172-0.494c-0.419-1.65-0.996-3.238-1.264-4.927C255.283,231.464,254.667,231.619,254.631,232
				L254.631,232z"/>
		</g>
	</g>
	<g>
		<g>
			<path fill="#699C52" d="M263.998,234.646c1.42-0.098,3.036-1.093,2.331-2.703c-0.741-1.691-3.051-0.744-3.958,0.171
				c-1.442,1.454-1.652,3.729-0.146,5.201c1.604,1.568,4.545,1.154,5.909-0.512c0.455-0.557-0.118-1.455-0.805-1.043
				c-1.138,0.683-2.269,1.513-3.644,0.902c-1.085-0.481-1.419-1.614-1.071-2.685c0.286-0.877,1.542-2.31,2.591-1.729
				c1.132,0.626-0.878,1.637-1.291,1.783C263.601,234.144,263.626,234.671,263.998,234.646L263.998,234.646z"/>
		</g>
	</g>
	<g>
		<g>
			<path fill="#699C52" d="M271.55,226.606c-0.005-0.033-0.011-0.066-0.017-0.1c-0.028-0.163-0.27-0.268-0.404-0.164
				c-0.857,0.658-0.23,2.545-0.163,3.438c0.208,2.784-0.173,5.662,0.356,8.427c0.063,0.329,0.459,0.647,0.799,0.608
				c0.056-0.006,0.113-0.013,0.169-0.02c0.465-0.053,0.779-0.331,0.813-0.813c0.007-0.105,0.015-0.211,0.022-0.317
				c0.019-0.268-0.225-0.439-0.461-0.461c-0.181-0.018-0.362-0.033-0.543-0.047c0.266,0.202,0.533,0.405,0.799,0.608
				c-0.373-2.556-0.46-5.179-0.563-7.768c-0.025-0.638-0.197-1.283-0.317-1.906c-0.074-0.386-0.173-0.766-0.279-1.143
				c-0.241-0.859-0.214,0.083-0.544-0.089C271.404,226.96,271.583,226.803,271.55,226.606L271.55,226.606z"/>
		</g>
	</g>
	<g>
		<g>
			<path fill="#699C52" d="M277.232,234.028c1.347,0.494,2.765-0.319,2.25-1.874c-0.551-1.663-2.373-1.445-3.384-0.377
				c-1.559,1.648-1.469,4.11,0.362,5.468c0.787,0.583,1.829,0.699,2.765,0.528c0.843-0.152,2.145-0.881,1.868-1.892
				c-0.054-0.198-0.23-0.317-0.429-0.327c-0.569-0.027-0.846,0.375-1.289,0.648c-0.477,0.295-1.057,0.299-1.582,0.164
				c-1.262-0.322-1.714-1.596-1.363-2.747c0.146-0.479,1.184-2.131,1.811-1.276c0.519,0.707-0.339,0.94-0.91,0.948
				C276.89,233.298,276.845,233.887,277.232,234.028L277.232,234.028z"/>
		</g>
	</g>
	<g>
		<g>
			<path fill="#699C52" d="M287.558,232.333c-0.038-0.764-0.739-1.28-1.477-1.341c-1.114-0.092-1.984,0.332-2.798,1.064
				c-1.017,0.913-1.396,2.405-0.48,3.52c0.788,0.958,2.145,1.357,3.333,1.041c1.598-0.424,2.017-2.177,1.885-3.617
				c-0.082-0.894-1.288-0.884-1.381,0c-0.226,2.141,2.331,4.334,4.315,2.832c0.431-0.326,0.333-1.079-0.292-1.077
				c-1.35,0.004-2.829,0.11-2.643-1.755c-0.46,0-0.92,0-1.381,0c0.152,1.571-0.68,3.022-2.383,2.108
				c-2.145-1.151,1.273-4.072,2.913-2.615C287.31,232.616,287.568,232.543,287.558,232.333L287.558,232.333z"/>
		</g>
	</g>
	<g>
		<g>
			<path fill="#699C52" d="M296.951,231.921c-0.147-0.462-0.205-0.818-0.685-1.011c-0.442-0.177-1.215,0.16-1.622,0.292
				c-0.745,0.24-1.628,0.902-1.209,1.778c0.379,0.794,1.447,1.211,2.184,1.571c0.698,0.342,2.074,0.731,2.485,1.443
				c0.078-0.297,0.155-0.593,0.233-0.89c-1.505,1.019-2.97,0.561-4.537,0.072c-0.466-0.146-0.743,0.368-0.574,0.745
				c0.856,1.908,4.452,1.22,5.767,0.306c0.289-0.201,0.425-0.567,0.233-0.89c-0.642-1.078-2.25-1.51-3.317-2.004
				c-0.441-0.204-1.14-0.445-1.428-0.865c-0.016-0.022-0.072,0.184,0.032,0.074c0.099-0.104,0.263-0.167,0.387-0.23
				c0.471-0.242,1.217-0.825,1.509-0.164C296.545,232.46,297.052,232.237,296.951,231.921L296.951,231.921z"/>
		</g>
	</g>
	<g>
		<g>
			<path fill="#699C52" d="M302.106,234.894c0.635,0.509,1.119,0.804,1.93,0.388c0.635-0.325,1.008-1.093,1.127-1.765
				c0.124-0.698-0.01-1.498-0.633-1.924c-0.838-0.572-1.914-0.091-2.684,0.359c-2.152,1.259-2.431,3.773-0.388,5.292
				c1.624,1.207,5.232,1.45,5.803-1.08c0.11-0.488-0.431-1.024-0.907-0.697c-0.542,0.373-0.944,0.896-1.591,1.102
				c-0.601,0.191-1.297,0.08-1.865-0.169c-1.091-0.478-2-1.642-1.057-2.707c0.322-0.364,2.069-1.722,2.058-0.554
				c-0.006,0.624-0.656,1.655-1.405,1.252C302.187,234.225,301.812,234.657,302.106,234.894L302.106,234.894z"/>
		</g>
	</g>
	<g>
		<g>
			<path fill="#699C52" d="M312.333,231.903c-1.873-0.25-4.148,0.834-4.44,2.838c-0.235,1.608,0.957,2.64,2.471,2.433
				c1.71-0.232,3.187-2.024,4-3.397c1.02-1.722,1.168-3.844,0.024-5.531c-0.493-0.727-1.461-0.397-1.558,0.422
				c-0.325,2.763,0,8.744,4.371,7.396c0.824-0.254,0.658-1.46-0.202-1.488c-1.517-0.05-2.126-0.542-2.478-2.035
				c-0.292-1.242-0.165-2.618-0.02-3.873c-0.519,0.141-1.039,0.281-1.558,0.422c1.406,2.041,0.018,4.402-1.626,5.821
				c-0.337,0.291-1.55,1.18-1.837,0.448c-0.599-1.523,1.93-2.37,2.966-2.611C312.961,232.628,312.775,231.962,312.333,231.903
				L312.333,231.903z"/>
		</g>
	</g>
	<g>
		<g>
			<path fill="#699C52" d="M221.667,259.121c1.526,0.057,2.077-1.328,1.379-2.562c-0.75-1.327-2.354-1.36-3.156-0.1
				c-1.066,1.677-0.857,4.191,0.728,5.41c1.651,1.271,4.113,0.462,5.547-0.705c0.705-0.573-0.296-1.557-0.994-0.994
				c-1.748,1.409-4.933,1.205-4.532-1.661c0.06-0.426,0.285-2.238,1.08-1.613c0.604,0.476,0.551,1.076-0.171,1.335
				C221.069,258.402,221.14,259.102,221.667,259.121L221.667,259.121z"/>
		</g>
	</g>
	<g>
		<g>
			<path fill="#699C52" d="M227.563,256.468c-0.152,0.317-0.471-0.085-0.193,0.34c0.144,0.219,0.363,0.408,0.549,0.591
				c0.488,0.479,0.968,0.966,1.457,1.444c0.48,0.47,0.972,0.925,1.462,1.384c0.346,0.325,0.657,0.756,1.162,0.787
				c0.351,0.021,0.706-0.326,0.68-0.68c-0.046-0.625-0.75-1.069-1.18-1.463c-0.657-0.604-1.339-1.188-2.051-1.725
				c-0.36-0.272-2.15-1.72-2.372-0.883C227.002,256.547,227.429,256.746,227.563,256.468L227.563,256.468z"/>
		</g>
	</g>
	<g>
		<g>
			<path fill="#699C52" d="M231.368,255.37c-1.25,1.176-2.357,2.418-3.246,3.881c-0.454,0.747-1.613,2.033-0.91,2.896
				c0.15,0.185,0.481,0.263,0.702,0.186c0.003-0.001,0.006-0.002,0.009-0.003c0.296-0.104,0.529-0.354,0.521-0.686
				c-0.01-0.439-0.015,0.22,0.024-0.311c0.021-0.293-0.317-0.549-0.593-0.452c-0.406,0.142-0.17,0.012,0.048,0.078
				c0.166,0.165,0.331,0.331,0.496,0.496c0-0.003-0.001-0.007-0.001-0.01c-0.11,0.271-0.221,0.543-0.332,0.814
				c-0.263,0.144,0.281-0.186,0.358-0.317c0.089-0.148,0.169-0.301,0.249-0.455c0.252-0.486,0.512-0.97,0.769-1.454
				c0.758-1.43,1.937-2.676,2.568-4.153C232.212,255.457,231.74,255.021,231.368,255.37L231.368,255.37z"/>
		</g>
	</g>
	<g>
		<g>
			<path fill="#699C52" d="M327.238,230.32c-0.231,0.079-0.462,0.158-0.693,0.238c-0.513,0.176-0.383,0.838,0.122,0.899
				c16.495,1.998,31.504-1.669,44.46-12.331c0.766-0.631,0.132-1.948-0.793-1.916c-2.49,0.086-4.863-0.698-7.333-0.87
				c0,0.661,0,1.323,0,1.984c3.115,0.014,6.219,0.253,9.333,0.296c-0.275-0.479-0.549-0.957-0.824-1.436
				c-0.9,1.943-1.983,3.782-2.985,5.674c-0.565,1.067,1.047,2.014,1.619,0.947c1.012-1.887,2.104-3.72,3.015-5.658
				c0.304-0.647-0.055-1.421-0.824-1.436c-3.114-0.06-6.22-0.292-9.333-0.372c-1.304-0.034-1.244,1.854,0,1.984
				c2.516,0.264,4.802,1.13,7.333,1.13c-0.265-0.639-0.529-1.277-0.793-1.916c-5.857,4.805-12.622,8.393-19.8,10.782
				c-4.034,1.344-8.257,1.838-12.489,1.987c-3.051,0.107-8.193-0.377-9.736,0.669C327.836,230.76,327.644,230.182,327.238,230.32
				L327.238,230.32z"/>
		</g>
	</g>
</g>
</svg>
